<?xml version="1.0" encoding="UTF-8"?>
<svg xmlns="http://www.w3.org/2000/svg"
  xmlns:xlink="http://www.w3.org/1999/xlink" width="555pt" height="555pt" viewBox="0 0 666 666" version="1.1">
  <g id="surface1">
    <path style=" stroke:none;fill-rule:nonzero;fill:rgb(89.019608%,92.941176%,96.078431%);fill-opacity:1;" d="M 660.449219 626.488281 L 0.00390625 626.488281 L 0.00390625 636.335938 L 660.449219 636.335938 L 660.449219 626.488281 "/>
    <path style=" stroke:none;fill-rule:nonzero;fill:rgb(74.117647%,100%,84.705882%);fill-opacity:1;" d="M 40.441406 577.640625 C 40.441406 577.640625 58.691406 530.773438 118.128906 508.6875 C 164.828125 491.339844 232.101562 534.230469 232.101562 534.230469 C 232.101562 534.230469 173.488281 562.207031 138.765625 562.511719 C 87.320312 562.964844 40.441406 577.640625 40.441406 577.640625 "/>
    <path style=" stroke:none;fill-rule:nonzero;fill:rgb(86.27451%,96.078431%,97.647059%);fill-opacity:1;" d="M 101.351562 357.753906 C 101.351562 357.753906 129.917969 409.238281 182.726562 463.027344 C 242.113281 523.511719 218.625 568.671875 218.625 568.671875 C 218.625 568.671875 124.121094 559.613281 94.746094 493.640625 C 71.375 441.152344 101.351562 357.753906 101.351562 357.753906 "/>
    <path style=" stroke:none;fill-rule:nonzero;fill:rgb(73.72549%,96.862745%,88.627451%);fill-opacity:1;" d="M 569.070312 254.484375 C 568.878906 253.496094 567.921875 252.851562 566.929688 253.042969 C 565.9375 253.234375 565.289062 254.191406 565.484375 255.183594 C 565.535156 255.445312 570.570312 281.800781 570.464844 323.078125 C 570.367188 361.207031 565.730469 420.15625 544.195312 484.472656 C 524.953125 541.9375 496.160156 579.675781 467.996094 602.757812 L 487.476562 602.757812 C 512.113281 579.796875 534.949219 547.339844 554.152344 490.007812 C 575.835938 425.234375 577.050781 359.464844 577.148438 321.066406 C 577.253906 279.433594 569.117188 254.75 569.070312 254.484375 "/>
    <path style=" stroke:none;fill-rule:nonzero;fill:rgb(73.72549%,96.862745%,88.627451%);fill-opacity:1;" d="M 572.714844 373.90625 C 570.117188 352.636719 580.785156 313.496094 603.726562 296.75 C 623.304688 282.460938 632.835938 267.070312 632.835938 267.070312 C 632.835938 267.070312 637.097656 284.386719 635.195312 305.5 C 633.917969 319.699219 622.625 337.613281 609.039062 343.964844 C 584.878906 355.257812 572.714844 373.90625 572.714844 373.90625 "/>
    <path style=" stroke:none;fill-rule:nonzero;fill:rgb(73.72549%,96.862745%,88.627451%);fill-opacity:1;" d="M 570.488281 280 C 559.5625 253.882812 546.082031 238.375 549.574219 211.511719 C 552.207031 191.183594 548.792969 165.976562 548.792969 165.976562 C 548.792969 165.976562 565.746094 177.511719 576.679688 193.117188 C 586.5625 207.214844 588.832031 225.253906 583.964844 239.894531 C 580.457031 250.445312 570.488281 280 570.488281 280 "/>
    <path style=" stroke:none;fill-rule:nonzero;fill:rgb(73.72549%,96.862745%,88.627451%);fill-opacity:1;" d="M 550.0625 494.648438 C 560.808594 461.800781 572.328125 403.585938 597.003906 381.101562 C 625.167969 355.449219 641.886719 355.679688 655.808594 337.8125 C 655.808594 337.8125 656.765625 354.890625 653.546875 383.375 C 650.636719 409.097656 634.136719 455.6875 607.632812 464.167969 C 574.574219 474.738281 550.0625 494.648438 550.0625 494.648438 "/>
    <path style=" stroke:none;fill-rule:nonzero;fill:rgb(73.72549%,96.862745%,88.627451%);fill-opacity:1;" d="M 517.933594 229.941406 C 535.300781 263.339844 580.320312 294.554688 571.097656 360.59375 C 571.097656 360.59375 554.71875 337.984375 540.871094 329.789062 C 520.621094 317.800781 512.917969 294.699219 512.585938 271.519531 C 512.335938 254.820312 517.933594 229.941406 517.933594 229.941406 "/>
    <path style=" stroke:none;fill-rule:nonzero;fill:rgb(73.72549%,96.862745%,88.627451%);fill-opacity:1;" d="M 665.402344 506.300781 C 620.5625 537.699219 623.171875 556.734375 554.640625 570.632812 C 508.015625 580.089844 493.847656 600.148438 493.847656 600.148438 C 493.847656 600.148438 516.648438 557.847656 534.921875 535.292969 C 546.773438 520.664062 565.109375 503.214844 603.003906 497.957031 C 627.601562 494.546875 665.402344 506.300781 665.402344 506.300781 "/>
    <path style=" stroke:none;fill-rule:nonzero;fill:rgb(73.72549%,96.862745%,88.627451%);fill-opacity:1;" d="M 504.304688 574.179688 C 484.589844 534.527344 472.714844 498.148438 469.835938 475.058594 C 465.488281 440.273438 475.183594 411.621094 475.183594 411.621094 C 475.183594 411.621094 475.246094 417.871094 501.285156 434.050781 C 524.796875 448.664062 535.441406 465.640625 537.105469 492.867188 C 539.015625 523.980469 504.304688 574.179688 504.304688 574.179688 "/>
    <path style=" stroke:none;fill-rule:nonzero;fill:rgb(73.72549%,96.862745%,88.627451%);fill-opacity:1;" d="M 555.441406 466.050781 C 537.605469 432.585938 509.984375 421.929688 507.097656 384.777344 C 504.773438 354.84375 485.441406 337.8125 485.441406 337.8125 C 485.441406 337.8125 516.40625 340.527344 539.078125 353.746094 C 559.5625 365.683594 562.269531 379.476562 566.433594 402.453125 C 572.113281 433.800781 555.441406 466.050781 555.441406 466.050781 "/>
    <path style=" stroke:none;fill-rule:nonzero;fill:rgb(29.019608%,81.176471%,82.745098%);fill-opacity:1;" d="M 298.246094 626.226562 L 493.277344 627.808594 C 498.597656 627.855469 502.953125 623.578125 502.996094 618.257812 L 506.480469 203.558594 C 506.527344 198.238281 502.25 193.882812 496.929688 193.839844 L 301.898438 192.253906 C 296.574219 192.207031 292.226562 196.488281 292.179688 201.808594 L 288.699219 616.507812 C 288.652344 621.828125 292.925781 626.179688 298.246094 626.226562 "/>
    <path style=" stroke:none;fill-rule:nonzero;fill:rgb(54.901961%,91.764706%,90.588235%);fill-opacity:1;" d="M 285.613281 626.140625 L 480.640625 627.726562 C 485.964844 627.773438 490.316406 623.496094 490.359375 618.175781 L 493.847656 203.476562 C 493.894531 198.15625 489.613281 193.800781 484.292969 193.753906 L 289.261719 192.164062 C 283.941406 192.121094 279.589844 196.398438 279.546875 201.722656 L 276.058594 616.421875 C 276.019531 621.746094 280.292969 626.09375 285.613281 626.140625 "/>
    <path style=" stroke:none;fill-rule:nonzero;fill:rgb(91.764706%,97.647059%,98.823529%);fill-opacity:1;" d="M 276.375 579.335938 L 212.226562 578.8125 L 212.320312 567.828125 C 216.324219 568.453125 218.625 568.671875 218.625 568.671875 C 218.625 568.671875 224.53125 557.316406 222.9375 538.375 C 228.65625 535.875 232.101562 534.230469 232.101562 534.230469 C 232.101562 534.230469 228.113281 531.6875 221.40625 528.089844 C 219.863281 520.804688 217.195312 512.707031 212.855469 503.960938 L 216.335938 88.5625 L 481.417969 90.722656 L 480.554688 193.707031 L 462.511719 193.558594 L 462.613281 176.367188 L 462.613281 176.25 C 462.613281 173.175781 461.855469 170.238281 460.503906 167.585938 C 458.480469 163.609375 455.121094 160.269531 450.945312 157.917969 C 446.769531 155.5625 441.757812 154.183594 436.375 154.148438 L 336.710938 153.558594 L 336.519531 153.558594 C 329.363281 153.558594 322.851562 155.9375 318.074219 159.859375 C 315.683594 161.820312 313.730469 164.175781 312.367188 166.8125 C 311 169.457031 310.226562 172.382812 310.210938 175.453125 L 310.113281 191.789062 L 309.648438 192.3125 L 301.898438 192.253906 C 301.871094 192.253906 301.84375 192.253906 301.816406 192.253906 C 301.644531 192.253906 301.472656 192.257812 301.304688 192.261719 L 289.261719 192.164062 C 289.238281 192.164062 289.207031 192.164062 289.183594 192.164062 C 283.894531 192.164062 279.589844 196.425781 279.546875 201.722656 L 279.332031 227.101562 L 277.523438 229.175781 L 279.3125 229.265625 L 277.832031 405.171875 L 258.601562 405.058594 L 258.605469 405.058594 C 258.535156 405.058594 258.46875 405.058594 258.410156 405.058594 C 251.238281 405.058594 244.714844 407.4375 239.933594 411.367188 C 237.535156 413.328125 235.582031 415.691406 234.214844 418.332031 C 232.847656 420.972656 232.074219 423.910156 232.054688 426.984375 L 231.695312 487.332031 L 231.699219 487.324219 L 231.695312 487.445312 C 231.695312 490.523438 232.449219 493.460938 233.804688 496.121094 C 235.839844 500.101562 239.199219 503.453125 243.386719 505.808594 C 247.570312 508.167969 252.585938 509.546875 257.976562 509.578125 L 276.953125 509.691406 L 276.375 579.335938 M 459.382812 193.535156 L 313.242188 192.34375 L 313.34375 175.472656 C 313.355469 172.910156 313.992188 170.484375 315.148438 168.25 C 316.871094 164.910156 319.78125 162.011719 323.484375 159.957031 C 327.191406 157.898438 331.675781 156.6875 336.519531 156.6875 L 336.695312 156.6875 L 436.355469 157.28125 C 442.835938 157.316406 448.664062 159.519531 452.824219 162.988281 C 454.910156 164.726562 456.578125 166.765625 457.722656 169.011719 C 458.859375 171.25 459.484375 173.691406 459.484375 176.25 L 459.484375 176.347656 L 459.382812 193.535156 "/>
    <path style=" stroke:none;fill-rule:nonzero;fill:rgb(81.568627%,97.647059%,92.54902%);fill-opacity:1;" d="M 222.9375 538.375 C 222.660156 535.160156 222.175781 531.726562 221.40625 528.089844 C 228.113281 531.6875 232.101562 534.230469 232.101562 534.230469 C 232.101562 534.230469 228.65625 535.875 222.9375 538.375 "/>
    <path style=" stroke:none;fill-rule:nonzero;fill:rgb(86.27451%,96.078431%,97.647059%);fill-opacity:1;" d="M 218.625 568.671875 C 218.625 568.671875 216.324219 568.453125 212.320312 567.828125 L 212.855469 503.960938 C 217.195312 512.707031 219.863281 520.804688 221.40625 528.089844 C 222.175781 531.726562 222.660156 535.160156 222.9375 538.375 C 224.53125 557.316406 218.625 568.671875 218.625 568.671875 "/>
    <path style=" stroke:none;fill-rule:nonzero;fill:rgb(63.529412%,90.196078%,91.764706%);fill-opacity:1;" d="M 480.554688 193.722656 L 462.511719 193.578125 L 462.511719 193.558594 L 480.554688 193.707031 L 480.554688 193.722656 M 459.382812 193.550781 L 313.242188 192.363281 L 313.242188 192.34375 L 459.382812 193.535156 L 459.382812 193.550781 M 309.636719 192.332031 L 301.304688 192.261719 C 301.472656 192.257812 301.644531 192.253906 301.816406 192.253906 C 301.84375 192.253906 301.871094 192.253906 301.898438 192.253906 L 309.648438 192.3125 L 309.636719 192.332031 "/>
    <path style=" stroke:none;fill-rule:nonzero;fill:rgb(91.764706%,97.647059%,98.823529%);fill-opacity:1;" d="M 276.980469 506.5625 L 257.996094 506.449219 C 251.503906 506.410156 245.664062 504.199219 241.496094 500.730469 C 239.40625 498.992188 237.738281 496.945312 236.597656 494.699219 C 235.449219 492.449219 234.828125 490.011719 234.828125 487.445312 L 234.828125 487.339844 L 235.183594 427.003906 C 235.203125 424.441406 235.839844 422.003906 236.996094 419.769531 C 238.722656 416.417969 241.636719 413.519531 245.347656 411.460938 C 249.058594 409.398438 253.550781 408.183594 258.402344 408.183594 C 258.402344 408.183594 258.410156 408.183594 258.410156 408.183594 L 258.582031 408.183594 L 277.804688 408.296875 L 277.410156 455.613281 L 271.882812 455.574219 L 271.863281 458.703125 L 277.382812 458.738281 L 276.980469 506.5625 M 263.082031 455.523438 L 263.0625 458.648438 L 264.929688 458.664062 L 264.949219 455.535156 L 263.082031 455.523438 "/>
    <path style=" stroke:none;fill-rule:nonzero;fill:rgb(73.72549%,94.509804%,94.901961%);fill-opacity:1;" d="M 477.308594 580.972656 L 276.375 579.335938 L 276.953125 509.691406 L 357.804688 510.171875 L 357.996094 510.171875 C 365.164062 510.171875 371.683594 507.785156 376.46875 503.863281 C 378.867188 501.894531 380.816406 499.539062 382.1875 496.898438 C 383.558594 494.25 384.332031 491.316406 384.347656 488.242188 L 384.378906 483.394531 L 417.148438 484.140625 L 414.996094 481.507812 L 413.789062 482.496094 L 413.824219 480.933594 L 413.789062 482.496094 L 414.996094 481.507812 L 384.613281 444.273438 L 384.707031 427.894531 L 384.707031 427.78125 C 384.707031 424.707031 383.953125 421.761719 382.597656 419.109375 C 380.5625 415.121094 377.203125 411.78125 373.023438 409.421875 C 368.835938 407.0625 363.816406 405.6875 358.429688 405.652344 L 277.832031 405.171875 L 279.3125 229.265625 L 280.746094 229.332031 L 309.878906 230.773438 L 309.851562 235.703125 L 309.851562 235.699219 L 309.851562 235.816406 C 309.851562 238.886719 310.605469 241.824219 311.957031 244.472656 C 313.988281 248.457031 317.34375 251.792969 321.519531 254.152344 C 325.699219 256.507812 330.710938 257.878906 336.09375 257.910156 L 435.75 258.503906 L 435.945312 258.503906 C 443.101562 258.503906 449.613281 256.125 454.394531 252.203125 C 456.78125 250.242188 458.730469 247.890625 460.097656 245.25 C 461.46875 242.613281 462.238281 239.679688 462.253906 236.609375 L 462.511719 193.578125 L 480.554688 193.722656 L 477.308594 580.972656 M 322.546875 296.734375 C 316.421875 296.734375 311.421875 301.683594 311.371094 307.828125 L 310.960938 357.011719 C 310.910156 363.1875 315.871094 368.234375 322.042969 368.289062 L 449.121094 369.355469 C 449.15625 369.355469 449.1875 369.355469 449.21875 369.355469 C 455.351562 369.355469 460.34375 364.414062 460.398438 358.273438 L 460.8125 309.082031 C 460.863281 302.910156 455.898438 297.859375 449.726562 297.808594 L 322.644531 296.734375 C 322.613281 296.734375 322.582031 296.734375 322.546875 296.734375 M 357.996094 507.042969 L 357.820312 507.042969 L 357.824219 507.042969 L 276.980469 506.5625 L 277.382812 458.738281 L 278.796875 458.746094 L 278.8125 455.621094 L 277.410156 455.613281 L 277.804688 408.296875 L 358.40625 408.78125 C 364.898438 408.816406 370.738281 411.023438 374.90625 414.5 C 376.996094 416.234375 378.664062 418.28125 379.808594 420.527344 C 380.949219 422.773438 381.578125 425.222656 381.578125 427.78125 L 381.578125 427.882812 L 381.578125 427.875 L 381.472656 445.378906 L 410.429688 480.855469 L 381.265625 480.191406 L 381.214844 488.222656 C 381.203125 490.789062 380.566406 493.21875 379.410156 495.460938 C 377.679688 498.804688 374.765625 501.710938 371.058594 503.773438 C 367.351562 505.824219 362.851562 507.042969 357.996094 507.042969 M 341.207031 455.992188 L 341.1875 459.117188 L 348.117188 459.160156 L 348.136719 456.03125 L 341.207031 455.992188 M 327.339844 455.910156 L 327.324219 459.035156 L 334.257812 459.074219 L 334.273438 455.949219 L 327.339844 455.910156 M 313.476562 455.828125 L 313.457031 458.953125 L 320.390625 458.992188 L 320.414062 455.863281 L 313.476562 455.828125 M 299.613281 455.738281 L 299.59375 458.871094 L 306.527344 458.910156 L 306.546875 455.785156 L 299.613281 455.738281 M 285.746094 455.660156 L 285.730469 458.789062 L 292.660156 458.828125 L 292.679688 455.699219 L 285.746094 455.660156 M 435.949219 255.378906 C 435.949219 255.378906 435.949219 255.378906 435.945312 255.378906 L 435.769531 255.378906 L 336.113281 254.785156 C 329.628906 254.746094 323.800781 252.542969 319.636719 249.074219 C 317.554688 247.34375 315.886719 245.292969 314.75 243.058594 C 313.601562 240.8125 312.980469 238.375 312.980469 235.816406 L 312.980469 235.722656 L 313.03125 227.792969 L 284.121094 226.367188 L 313.238281 192.96875 L 313.242188 192.363281 L 459.382812 193.550781 L 459.125 236.589844 C 459.109375 239.148438 458.476562 241.582031 457.324219 243.8125 C 455.59375 247.160156 452.683594 250.054688 448.980469 252.109375 C 445.28125 254.164062 440.792969 255.378906 435.949219 255.378906 M 400.824219 222.394531 L 400.804688 225.519531 L 407.734375 225.5625 L 407.757812 222.4375 L 400.824219 222.394531 M 386.960938 222.3125 L 386.945312 225.4375 L 393.875 225.480469 L 393.890625 222.355469 L 386.960938 222.3125 M 373.097656 222.230469 L 373.078125 225.355469 L 380.011719 225.398438 L 380.027344 222.273438 L 373.097656 222.230469 M 359.230469 222.148438 L 359.210938 225.273438 L 366.144531 225.316406 L 366.164062 222.1875 L 359.230469 222.148438 M 345.363281 222.066406 L 345.34375 225.191406 L 352.277344 225.230469 L 352.296875 222.105469 L 345.363281 222.066406 M 415.496094 197.664062 L 415.480469 200.789062 L 422.410156 200.832031 L 422.429688 197.707031 L 415.496094 197.664062 M 401.632812 197.582031 L 401.613281 200.707031 L 408.546875 200.75 L 408.5625 197.621094 L 401.632812 197.582031 M 387.765625 197.5 L 387.746094 200.625 L 394.679688 200.664062 L 394.699219 197.535156 L 387.765625 197.5 M 373.902344 197.414062 L 373.882812 200.542969 L 380.8125 200.582031 L 380.832031 197.457031 L 373.902344 197.414062 M 360.035156 197.335938 L 360.019531 200.460938 L 366.949219 200.5 L 366.96875 197.375 L 360.035156 197.335938 M 346.171875 197.246094 L 346.152344 200.378906 L 353.085938 200.417969 L 353.101562 197.292969 L 346.171875 197.246094 M 279.332031 227.101562 L 279.546875 201.722656 C 279.589844 196.425781 283.894531 192.164062 289.183594 192.164062 C 289.207031 192.164062 289.238281 192.164062 289.261719 192.164062 L 301.304688 192.261719 L 309.636719 192.332031 L 279.332031 227.101562 "/>
    <path style=" stroke:none;fill-rule:nonzero;fill:rgb(96.862745%,99.215686%,99.607843%);fill-opacity:1;" d="M 276.953125 509.691406 L 257.976562 509.578125 C 252.585938 509.546875 247.570312 508.167969 243.386719 505.808594 C 239.199219 503.453125 235.839844 500.101562 233.804688 496.121094 C 232.449219 493.460938 231.695312 490.523438 231.695312 487.445312 L 231.699219 487.324219 L 231.695312 487.332031 L 232.054688 426.984375 C 232.074219 423.910156 232.847656 420.972656 234.214844 418.332031 C 235.582031 415.691406 237.535156 413.328125 239.933594 411.367188 C 244.714844 407.4375 251.238281 405.058594 258.410156 405.058594 C 258.46875 405.058594 258.535156 405.058594 258.605469 405.058594 L 258.601562 405.058594 L 277.832031 405.171875 L 277.804688 408.296875 L 258.582031 408.183594 L 258.410156 408.183594 C 258.410156 408.183594 258.402344 408.183594 258.402344 408.183594 C 253.550781 408.183594 249.058594 409.398438 245.347656 411.460938 C 241.636719 413.519531 238.722656 416.417969 236.996094 419.769531 C 235.839844 422.003906 235.203125 424.441406 235.183594 427.003906 L 234.828125 487.339844 L 234.828125 487.445312 C 234.828125 490.011719 235.449219 492.449219 236.597656 494.699219 C 237.738281 496.945312 239.40625 498.992188 241.496094 500.730469 C 245.664062 504.199219 251.503906 506.410156 257.996094 506.449219 L 276.980469 506.5625 L 276.953125 509.691406 "/>
    <path style=" stroke:none;fill-rule:nonzero;fill:rgb(89.411765%,97.647059%,98.039216%);fill-opacity:1;" d="M 357.996094 510.171875 L 357.804688 510.171875 L 276.953125 509.691406 L 276.980469 506.5625 L 357.824219 507.042969 L 357.820312 507.042969 L 357.996094 507.042969 C 362.851562 507.042969 367.351562 505.824219 371.058594 503.773438 C 374.765625 501.710938 377.679688 498.804688 379.410156 495.460938 C 380.566406 493.21875 381.203125 490.789062 381.214844 488.222656 L 381.265625 480.191406 L 410.429688 480.855469 L 381.472656 445.378906 L 381.578125 427.875 L 381.578125 427.882812 L 381.578125 427.78125 C 381.578125 425.222656 380.949219 422.773438 379.808594 420.527344 C 378.664062 418.28125 376.996094 416.234375 374.90625 414.5 C 370.738281 411.023438 364.898438 408.816406 358.40625 408.78125 L 277.804688 408.296875 L 277.832031 405.171875 L 358.429688 405.652344 C 363.816406 405.6875 368.835938 407.0625 373.023438 409.421875 C 377.203125 411.78125 380.5625 415.121094 382.597656 419.109375 C 383.953125 421.761719 384.707031 424.707031 384.707031 427.78125 L 384.707031 427.894531 L 384.613281 444.273438 L 414.996094 481.507812 L 413.789062 482.496094 L 413.824219 480.933594 L 413.789062 482.496094 L 414.996094 481.507812 L 417.148438 484.140625 L 384.378906 483.394531 L 384.347656 488.242188 C 384.332031 491.316406 383.558594 494.25 382.1875 496.898438 C 380.816406 499.539062 378.867188 501.894531 376.46875 503.863281 C 371.683594 507.785156 365.164062 510.171875 357.996094 510.171875 "/>
    <path style=" stroke:none;fill-rule:nonzero;fill:rgb(89.411765%,97.647059%,98.039216%);fill-opacity:1;" d="M 348.117188 459.160156 L 341.1875 459.117188 L 341.207031 455.992188 L 348.136719 456.03125 L 348.117188 459.160156 M 334.257812 459.074219 L 327.324219 459.035156 L 327.339844 455.910156 L 334.273438 455.949219 L 334.257812 459.074219 M 320.390625 458.992188 L 313.457031 458.953125 L 313.476562 455.828125 L 320.414062 455.863281 L 320.390625 458.992188 M 306.527344 458.910156 L 299.59375 458.871094 L 299.613281 455.738281 L 306.546875 455.785156 L 306.527344 458.910156 M 292.660156 458.828125 L 285.730469 458.789062 L 285.746094 455.660156 L 292.679688 455.699219 L 292.660156 458.828125 "/>
    <path style=" stroke:none;fill-rule:nonzero;fill:rgb(96.862745%,99.215686%,99.607843%);fill-opacity:1;" d="M 277.382812 458.738281 L 271.863281 458.703125 L 271.882812 455.574219 L 277.410156 455.613281 L 277.382812 458.738281 "/>
    <path style=" stroke:none;fill-rule:nonzero;fill:rgb(89.411765%,97.647059%,98.039216%);fill-opacity:1;" d="M 278.796875 458.746094 L 277.382812 458.738281 L 277.410156 455.613281 L 278.8125 455.621094 L 278.796875 458.746094 "/>
    <path style=" stroke:none;fill-rule:nonzero;fill:rgb(96.862745%,99.215686%,99.607843%);fill-opacity:1;" d="M 264.929688 458.664062 L 263.0625 458.648438 L 263.082031 455.523438 L 264.949219 455.535156 L 264.929688 458.664062 "/>
    <path style=" stroke:none;fill-rule:nonzero;fill:rgb(96.862745%,99.215686%,99.607843%);fill-opacity:1;" d="M 279.3125 229.265625 L 277.523438 229.175781 L 279.332031 227.101562 L 279.3125 229.265625 M 462.511719 193.558594 L 459.382812 193.535156 L 459.484375 176.347656 L 459.484375 176.25 C 459.484375 173.691406 458.859375 171.25 457.722656 169.011719 C 456.578125 166.765625 454.910156 164.726562 452.824219 162.988281 C 448.664062 159.519531 442.835938 157.316406 436.355469 157.28125 L 336.695312 156.6875 L 336.519531 156.6875 C 331.675781 156.6875 327.191406 157.898438 323.484375 159.957031 C 319.78125 162.011719 316.871094 164.910156 315.148438 168.25 C 313.992188 170.484375 313.355469 172.910156 313.34375 175.472656 L 313.242188 192.34375 L 309.648438 192.3125 L 310.113281 191.789062 L 310.210938 175.453125 C 310.226562 172.382812 311 169.457031 312.367188 166.8125 C 313.730469 164.175781 315.683594 161.820312 318.074219 159.859375 C 322.851562 155.9375 329.363281 153.558594 336.519531 153.558594 L 336.710938 153.558594 L 436.375 154.148438 C 441.757812 154.183594 446.769531 155.5625 450.945312 157.917969 C 455.121094 160.269531 458.480469 163.609375 460.503906 167.585938 C 461.855469 170.238281 462.613281 173.175781 462.613281 176.25 L 462.613281 176.367188 L 462.511719 193.558594 "/>
    <path style=" stroke:none;fill-rule:nonzero;fill:rgb(85.490196%,96.078431%,96.862745%);fill-opacity:1;" d="M 462.511719 193.578125 L 459.382812 193.550781 L 459.382812 193.535156 L 462.511719 193.558594 L 462.511719 193.578125 M 313.242188 192.363281 L 309.636719 192.332031 L 309.648438 192.3125 L 313.242188 192.34375 L 313.242188 192.363281 "/>
    <path style=" stroke:none;fill-rule:nonzero;fill:rgb(89.411765%,97.647059%,98.039216%);fill-opacity:1;" d="M 435.945312 258.503906 L 435.75 258.503906 L 336.09375 257.910156 C 330.710938 257.878906 325.699219 256.507812 321.519531 254.152344 C 317.34375 251.792969 313.988281 248.457031 311.957031 244.472656 C 310.605469 241.824219 309.851562 238.886719 309.851562 235.816406 L 309.851562 235.699219 L 309.851562 235.703125 L 309.878906 230.773438 L 280.746094 229.332031 L 279.3125 229.265625 L 279.332031 227.101562 L 309.636719 192.332031 L 313.242188 192.363281 L 313.238281 192.96875 L 284.121094 226.367188 L 313.03125 227.792969 L 312.980469 235.722656 L 312.980469 235.816406 C 312.980469 238.375 313.601562 240.8125 314.75 243.058594 C 315.886719 245.292969 317.554688 247.34375 319.636719 249.074219 C 323.800781 252.542969 329.628906 254.746094 336.113281 254.785156 L 435.769531 255.378906 L 435.945312 255.378906 C 435.949219 255.378906 435.949219 255.378906 435.949219 255.378906 C 440.792969 255.378906 445.28125 254.164062 448.980469 252.109375 C 452.683594 250.054688 455.59375 247.160156 457.324219 243.8125 C 458.476562 241.582031 459.109375 239.148438 459.125 236.589844 L 459.382812 193.550781 L 462.511719 193.578125 L 462.253906 236.609375 C 462.238281 239.679688 461.46875 242.613281 460.097656 245.25 C 458.730469 247.890625 456.78125 250.242188 454.394531 252.203125 C 449.613281 256.125 443.101562 258.503906 435.945312 258.503906 "/>
    <path style=" stroke:none;fill-rule:nonzero;fill:rgb(89.411765%,97.647059%,98.039216%);fill-opacity:1;" d="M 422.410156 200.832031 L 415.480469 200.789062 L 415.496094 197.664062 L 422.429688 197.707031 L 422.410156 200.832031 M 408.546875 200.75 L 401.613281 200.707031 L 401.632812 197.582031 L 408.5625 197.621094 L 408.546875 200.75 M 394.679688 200.664062 L 387.746094 200.625 L 387.765625 197.5 L 394.699219 197.535156 L 394.679688 200.664062 M 380.8125 200.582031 L 373.882812 200.542969 L 373.902344 197.414062 L 380.832031 197.457031 L 380.8125 200.582031 M 366.949219 200.5 L 360.019531 200.460938 L 360.035156 197.335938 L 366.96875 197.375 L 366.949219 200.5 M 353.085938 200.417969 L 346.152344 200.378906 L 346.171875 197.246094 L 353.101562 197.292969 L 353.085938 200.417969 "/>
    <path style=" stroke:none;fill-rule:nonzero;fill:rgb(89.411765%,97.647059%,98.039216%);fill-opacity:1;" d="M 407.734375 225.5625 L 400.804688 225.519531 L 400.824219 222.394531 L 407.757812 222.4375 L 407.734375 225.5625 M 393.875 225.480469 L 386.945312 225.4375 L 386.960938 222.3125 L 393.890625 222.355469 L 393.875 225.480469 M 380.011719 225.398438 L 373.078125 225.355469 L 373.097656 222.230469 L 380.027344 222.273438 L 380.011719 225.398438 M 366.144531 225.316406 L 359.210938 225.273438 L 359.230469 222.148438 L 366.164062 222.1875 L 366.144531 225.316406 M 352.277344 225.230469 L 345.34375 225.191406 L 345.363281 222.066406 L 352.296875 222.105469 L 352.277344 225.230469 "/>
    <path style=" stroke:none;fill-rule:nonzero;fill:rgb(81.176471%,95.294118%,96.470588%);fill-opacity:1;" d="M 449.21875 369.355469 C 449.1875 369.355469 449.15625 369.355469 449.121094 369.355469 L 322.042969 368.289062 C 315.871094 368.234375 310.910156 363.1875 310.960938 357.011719 L 311.371094 307.828125 C 311.421875 301.683594 316.421875 296.734375 322.546875 296.734375 C 322.582031 296.734375 322.613281 296.734375 322.644531 296.734375 L 449.726562 297.808594 C 455.898438 297.859375 460.863281 302.910156 460.8125 309.082031 L 460.398438 358.273438 C 460.34375 364.414062 455.351562 369.355469 449.21875 369.355469 "/>
    <path style=" stroke:none;fill-rule:nonzero;fill:rgb(57.254902%,100%,86.666667%);fill-opacity:1;" d="M 396.273438 612.851562 L 370.910156 612.683594 C 368.707031 612.667969 366.933594 610.867188 366.945312 608.664062 L 366.964844 606.152344 C 366.980469 603.949219 368.777344 602.171875 370.980469 602.1875 L 396.34375 602.359375 C 398.546875 602.371094 400.320312 604.171875 400.308594 606.375 L 400.289062 608.886719 C 400.273438 611.089844 398.476562 612.863281 396.273438 612.851562 "/>
    <path style=" stroke:none;fill-rule:nonzero;fill:rgb(0%,26.27451%,50.588235%);fill-opacity:1;" d="M 201.464844 535.839844 L 123.609375 545.390625 C 123.609375 545.390625 229 613.402344 250.71875 613.402344 C 274.726562 613.402344 353.511719 575.234375 353.511719 575.234375 L 290.421875 534.496094 L 201.464844 535.839844 "/>
    <path style=" stroke:none;fill-rule:nonzero;fill:rgb(0%,81.568627%,73.72549%);fill-opacity:1;" d="M 286.464844 474.652344 L 322.664062 526.917969 C 322.664062 526.917969 315.234375 539.417969 314.820312 542.480469 C 311.921875 563.84375 324.761719 566.792969 331.4375 564.050781 C 343.046875 559.277344 360.910156 529.90625 358.949219 524.75 C 346.113281 490.988281 333.519531 458.875 318.65625 426.898438 C 316.378906 422.003906 312.15625 410.03125 309.019531 413.183594 C 301.441406 420.84375 286.421875 487.019531 286.464844 474.652344 "/>
    <path style=" stroke:none;fill-rule:nonzero;fill:rgb(0%,81.568627%,73.72549%);fill-opacity:1;" d="M 219.890625 473.148438 L 178.683594 514.785156 C 178.683594 514.785156 186.542969 525.667969 183.066406 537.796875 C 182.269531 540.578125 175.601562 549.214844 167.898438 549.800781 C 154.984375 550.792969 136.367188 528.269531 139.738281 511.992188 C 147.039062 476.726562 172.617188 453.421875 186.84375 421.175781 C 190.035156 413.949219 197.03125 404.640625 199.796875 407.222656 C 207.691406 414.585938 219.933594 485.511719 219.890625 473.148438 "/>
    <path style=" stroke:none;fill-rule:nonzero;fill:rgb(0%,26.27451%,50.588235%);fill-opacity:1;" d="M 103.699219 568.671875 L 102.304688 590.105469 C 102.304688 590.105469 142.671875 618.164062 162.238281 626.011719 C 169.859375 629.0625 234.121094 637.613281 234.121094 637.613281 L 240.382812 612.0625 L 103.699219 568.671875 "/>
    <path style=" stroke:none;fill-rule:nonzero;fill:rgb(100%,81.568627%,80.784314%);fill-opacity:1;" d="M 244.289062 605.144531 L 315.230469 625.421875 L 314.953125 648.886719 C 314.953125 648.886719 281.945312 647.511719 271.96875 646.582031 C 265.625 645.992188 235.800781 641.425781 235.800781 641.425781 L 244.289062 605.144531 "/>
    <path style=" stroke:none;fill-rule:nonzero;fill:rgb(100%,81.568627%,80.784314%);fill-opacity:1;" d="M 246.34375 606.609375 L 189.921875 627.675781 L 192.292969 649.015625 C 192.292969 649.015625 219.289062 646.550781 227.398438 645.332031 C 232.554688 644.558594 256.648438 639.304688 256.648438 639.304688 L 246.34375 606.609375 "/>
    <path style=" stroke:none;fill-rule:nonzero;fill:rgb(0%,22.352941%,46.666667%);fill-opacity:1;" d="M 295.503906 623.847656 C 295.503906 623.847656 311.144531 624.902344 318.652344 622.957031 C 322.648438 621.921875 330.492188 617.140625 334.152344 617.335938 C 343.542969 617.835938 349.988281 634.085938 350.898438 639.671875 C 351.578125 643.820312 344.183594 650.605469 339.84375 650.480469 C 319.515625 649.898438 295.667969 648.390625 295.667969 648.390625 L 297.351562 642.960938 C 298.34375 639.773438 298.464844 636.386719 297.695312 633.136719 L 295.503906 623.847656 "/>
    <path style=" stroke:none;fill-rule:nonzero;fill:rgb(0%,22.352941%,46.666667%);fill-opacity:1;" d="M 167.460938 652.257812 C 169.332031 653.070312 174.601562 653.128906 176.605469 652.699219 C 183.476562 651.214844 202.484375 648.214844 202.484375 648.214844 C 196.652344 644.480469 193.820312 637.648438 195.363281 631.050781 L 196.675781 625.472656 L 183.734375 620.378906 C 183.734375 620.378906 172.96875 623.925781 168.546875 630.859375 C 159.433594 645.132812 163.277344 650.445312 167.460938 652.257812 "/>
    <path style=" stroke:none;fill-rule:nonzero;fill:rgb(100%,78.039216%,76.862745%);fill-opacity:1;" d="M 265.570312 356.257812 L 240.480469 366.308594 C 239.734375 366.304688 237.878906 380.65625 237.871094 381.371094 L 236.835938 406.03125 C 236.761719 413.988281 244.199219 420.335938 252.445312 420.410156 C 260.699219 420.480469 268.597656 414.242188 268.671875 406.28125 L 266.910156 357.570312 C 266.914062 356.851562 266.316406 356.265625 265.570312 356.257812 "/>
    <path style=" stroke:none;fill-rule:nonzero;fill:rgb(20.392157%,91.764706%,74.509804%);fill-opacity:1;" d="M 194.40625 411.972656 C 198.472656 405.054688 233.640625 395.789062 233.640625 395.789062 L 252.621094 415.667969 L 279.855469 396.429688 C 279.855469 396.429688 306.714844 406.714844 312.351562 416.566406 C 317.253906 425.132812 312.738281 464.496094 308.308594 492.65625 C 303.363281 524.136719 303.988281 545.554688 302.847656 547.269531 C 299.742188 551.933594 291.277344 553.449219 285.839844 554.585938 C 270.199219 557.855469 199.242188 559.699219 196.222656 542.390625 C 193.933594 529.320312 197.023438 499.433594 195.296875 473.15625 C 194.511719 461.273438 190.59375 418.464844 194.40625 411.972656 "/>
    <path style=" stroke:none;fill-rule:nonzero;fill:rgb(0%,81.568627%,73.72549%);fill-opacity:1;" d="M 252.472656 415.546875 L 259.957031 429.757812 C 270.738281 420.375 294.050781 400.140625 294.050781 400.140625 L 277.914062 389.757812 L 252.472656 415.546875 "/>
    <path style=" stroke:none;fill-rule:nonzero;fill:rgb(0%,81.568627%,73.72549%);fill-opacity:1;" d="M 252.695312 415.484375 L 244.738281 429.695312 C 233.957031 420.308594 220.976562 398.867188 220.976562 398.867188 L 234.117188 390.9375 L 252.695312 415.484375 "/>
    <path style=" stroke:none;fill-rule:nonzero;fill:rgb(0%,39.215686%,62.352941%);fill-opacity:1;" d="M 283.496094 391.0625 C 296.671875 434.886719 274.832031 468.929688 274.832031 468.929688 L 254.136719 470.726562 C 254.136719 470.726562 271.316406 433.195312 268.453125 398.207031 C 268.355469 397.027344 268.109375 392.023438 268.359375 390.917969 C 270.25 382.574219 273.324219 375.1875 277.59375 380.058594 C 278.617188 381.210938 282.761719 388.621094 283.496094 391.0625 "/>
    <path style=" stroke:none;fill-rule:nonzero;fill:rgb(0%,39.215686%,62.352941%);fill-opacity:1;" d="M 282.5625 320.820312 C 293.414062 331.9375 296.273438 357.292969 285.917969 368.308594 C 276.957031 377.835938 242.773438 378.90625 239.960938 378.5 C 210.152344 374.195312 213.628906 344.226562 220.214844 332.128906 C 231.289062 311.792969 262.304688 300.074219 282.5625 320.820312 "/>
    <path style=" stroke:none;fill-rule:nonzero;fill:rgb(100%,78.039216%,76.862745%);fill-opacity:1;" d="M 276.664062 367.539062 C 276.496094 363.867188 279.414062 360.765625 283.175781 360.601562 C 286.941406 360.441406 290.132812 363.285156 290.296875 366.960938 C 290.46875 370.625 287.550781 373.738281 283.785156 373.898438 C 280.023438 374.054688 276.835938 371.214844 276.664062 367.539062 "/>
    <path style=" stroke:none;fill-rule:nonzero;fill:rgb(100%,78.039216%,76.862745%);fill-opacity:1;" d="M 228.957031 367.25 C 228.957031 370.925781 225.902344 373.90625 222.132812 373.90625 C 218.363281 373.90625 215.3125 370.925781 215.3125 367.25 C 215.3125 363.574219 218.363281 360.59375 222.132812 360.59375 C 225.902344 360.59375 228.957031 363.574219 228.957031 367.25 "/>
    <path style=" stroke:none;fill-rule:nonzero;fill:rgb(100%,81.568627%,80.784314%);fill-opacity:1;" d="M 282.804688 367.539062 C 282.804688 389.480469 267.046875 406.089844 253.339844 406.089844 C 238.871094 406.089844 224.0625 389.480469 224.0625 367.539062 C 224.0625 345.605469 237.214844 327.820312 253.433594 327.820312 C 269.652344 327.820312 282.804688 345.605469 282.804688 367.539062 "/>
    <path style=" stroke:none;fill-rule:nonzero;fill:rgb(0%,39.215686%,62.352941%);fill-opacity:1;" d="M 268.671875 329.046875 C 288.121094 336.886719 289.230469 357.984375 288.105469 362.921875 C 287.082031 367.4375 283.914062 370.566406 282.707031 370.464844 C 269.015625 369.371094 235.59375 350.339844 235.59375 350.339844 C 235.59375 350.339844 216.917969 363.898438 230.191406 414.078125 C 230.191406 414.078125 219.207031 395.519531 218.644531 370 C 217.933594 337.699219 240.449219 317.675781 268.671875 329.046875 "/>
    <path style=" stroke:none;fill-rule:nonzero;fill:rgb(100%,81.568627%,80.784314%);fill-opacity:1;" d="M 280.933594 541.9375 C 281.164062 541.78125 286.328125 537.726562 290.074219 537.699219 C 297.5625 537.644531 305.253906 543.203125 312.964844 541.140625 C 315.542969 540.449219 319.890625 540.886719 322.308594 541.988281 L 327.324219 544.273438 C 331.203125 546.042969 332.476562 550.851562 329.839844 554.125 C 327.121094 557.496094 323.289062 560.878906 318.84375 560.914062 C 314.328125 560.957031 308.078125 557.929688 303.554688 557.882812 C 300.914062 557.847656 296.648438 561.730469 294.15625 562.574219 C 293.316406 562.851562 291.519531 563.484375 290.671875 563.238281 C 290.316406 563.136719 289.570312 562.292969 289.570312 562.292969 C 289.570312 562.292969 286.820312 564.167969 285.738281 564.296875 C 284.726562 564.421875 281.78125 563.320312 281.78125 563.320312 L 292.808594 550.859375 L 285.046875 554.550781 C 285.046875 554.550781 280.867188 558.292969 279.101562 558.769531 C 277.074219 559.316406 275.941406 557.699219 275.941406 557.699219 L 287.65625 544.074219 C 287.65625 544.074219 278.554688 548.394531 275.675781 547.808594 C 274.390625 547.550781 272.601562 546.113281 272.601562 546.113281 L 280.933594 541.9375 "/>
    <path style=" stroke:none;fill-rule:nonzero;fill:rgb(100%,81.568627%,80.784314%);fill-opacity:1;" d="M 203.761719 515.082031 C 203.484375 515.0625 196.90625 514.046875 193.652344 515.832031 C 187.140625 519.402344 183.359375 527.929688 175.609375 529.867188 C 173.019531 530.511719 169.484375 532.988281 167.957031 535.109375 L 164.804688 539.511719 C 162.355469 542.925781 163.746094 547.699219 167.722656 549.261719 C 171.824219 550.867188 176.886719 551.941406 180.753906 549.832031 C 184.695312 547.683594 188.539062 542.046875 192.425781 539.816406 C 194.703125 538.515625 200.394531 539.8125 203 539.339844 C 203.867188 539.179688 205.746094 538.859375 206.355469 538.238281 C 206.613281 537.976562 206.820312 536.886719 206.820312 536.886719 C 206.820312 536.886719 210.179688 537.179688 211.183594 536.769531 C 212.117188 536.386719 214.101562 534.011719 214.101562 534.011719 L 198.105469 528.550781 L 206.730469 527.988281 C 206.730469 527.988281 212.285156 529.21875 214.066406 528.777344 C 216.105469 528.269531 216.253906 526.320312 216.253906 526.320312 L 199.046875 520.183594 C 199.046875 520.183594 209.167969 519.523438 211.359375 517.625 C 212.332031 516.785156 213.140625 514.679688 213.140625 514.679688 L 203.761719 515.082031 "/>
    <path style=" stroke:none;fill-rule:nonzero;fill:rgb(44.313725%,91.764706%,92.54902%);fill-opacity:1;" d="M 187.046875 500.332031 L 317.242188 503.855469 C 319.738281 503.921875 321.59375 505.871094 321.199219 508 L 307.507812 581.875 L 182.726562 576.875 L 182.78125 503.910156 C 182.785156 501.882812 184.71875 500.265625 187.046875 500.332031 "/>
    <path style=" stroke:none;fill-rule:nonzero;fill:rgb(0%,39.215686%,62.352941%);fill-opacity:1;" d="M 94.410156 563.867188 C 91.941406 570.671875 96.164062 586.71875 101.328125 591.921875 C 113.949219 604.65625 167.171875 622.382812 167.171875 622.382812 L 258.753906 649.164062 L 274.984375 621.367188 L 156.660156 553.980469 C 156.660156 553.980469 130.90625 542.484375 121.804688 543.292969 C 113.164062 544.0625 97.289062 555.964844 94.410156 563.867188 "/>
    <path style=" stroke:none;fill-rule:nonzero;fill:rgb(0%,39.215686%,62.352941%);fill-opacity:1;" d="M 240.421875 615.867188 C 240.421875 615.867188 316.476562 574.261719 353.109375 550.664062 C 361.605469 545.1875 386.949219 552.289062 392.699219 560.445312 C 397.972656 567.921875 393.886719 589.273438 388.039062 596.347656 C 368.472656 620.023438 259.554688 633.828125 259.554688 633.828125 L 240.421875 615.867188 "/>
    <path style=" stroke:none;fill-rule:nonzero;fill:rgb(74.117647%,100%,84.705882%);fill-opacity:1;" d="M 255.648438 527.121094 C 255.648438 529.410156 253.503906 530.457031 250.863281 530.457031 C 248.222656 530.457031 246.078125 529.410156 246.078125 527.121094 C 246.078125 524.832031 248.222656 523.695312 250.863281 523.695312 C 253.503906 523.695312 255.648438 524.832031 255.648438 527.121094 "/>
    <path style=" stroke:none;fill-rule:nonzero;fill:rgb(86.27451%,96.078431%,97.647059%);fill-opacity:1;" d="M 185.644531 24.285156 C 185.78125 24.140625 185.964844 24.0625 186.152344 24.0625 C 186.324219 24.0625 186.496094 24.125 186.628906 24.25 C 186.910156 24.511719 186.929688 24.953125 186.667969 25.234375 C 186.40625 25.511719 185.960938 25.53125 185.683594 25.269531 C 185.398438 25.007812 185.382812 24.566406 185.644531 24.285156 Z M 186.886719 30.71875 C 185.578125 32.660156 185.597656 35.191406 186.929688 37.09375 L 185.699219 38.414062 L 172.566406 26.207031 L 173.789062 24.890625 C 175.839844 26.246094 178.496094 26.136719 180.40625 24.628906 L 183.054688 22.554688 C 181.960938 24.089844 182.128906 26.242188 183.550781 27.5625 C 184.289062 28.246094 185.222656 28.582031 186.152344 28.582031 C 187.179688 28.582031 188.207031 28.175781 188.957031 27.363281 C 190.390625 25.820312 190.304688 23.390625 188.761719 21.960938 C 187.648438 20.921875 186.074219 20.691406 184.75 21.21875 L 187.054688 19.402344 C 187.367188 19.15625 187.6875 18.925781 188.015625 18.699219 L 192.28125 22.671875 C 192.078125 23.011719 191.867188 23.351562 191.648438 23.683594 Z M 194.671875 15.835938 C 194.460938 16.90625 194.078125 18.421875 193.699219 19.710938 L 190.863281 17.074219 C 192.144531 16.597656 193.613281 16.121094 194.671875 15.835938 Z M 197.363281 12.949219 C 196.765625 12.394531 196.070312 11.804688 189.746094 14.152344 L 189.644531 14.195312 C 188.035156 14.929688 186.515625 15.851562 185.125 16.941406 L 178.476562 22.171875 C 177.621094 22.84375 176.4375 22.894531 175.53125 22.296875 L 175.28125 22.125 C 174.132812 21.371094 172.625 21.550781 171.695312 22.554688 L 169.210938 25.21875 C 168.625 25.851562 168.664062 26.84375 169.292969 27.433594 L 173.09375 30.960938 C 172.824219 31.039062 172.566406 31.183594 172.359375 31.402344 L 168.515625 35.542969 C 167.925781 36.171875 167.960938 37.160156 168.59375 37.753906 C 168.894531 38.03125 169.277344 38.171875 169.660156 38.171875 C 170.078125 38.171875 170.5 38 170.808594 37.671875 L 174.652344 33.535156 C 174.859375 33.3125 174.980469 33.046875 175.035156 32.773438 L 176.011719 33.675781 C 175.738281 33.753906 175.484375 33.894531 175.28125 34.113281 L 167.902344 42.046875 C 167.316406 42.675781 167.351562 43.664062 167.984375 44.253906 C 168.285156 44.535156 168.667969 44.671875 169.050781 44.671875 C 169.46875 44.671875 169.890625 44.507812 170.199219 44.171875 L 177.570312 36.242188 C 177.777344 36.019531 177.898438 35.757812 177.957031 35.484375 L 178.972656 36.429688 C 178.703125 36.503906 178.449219 36.648438 178.242188 36.867188 L 174.390625 41.007812 C 173.804688 41.644531 173.839844 42.628906 174.472656 43.214844 C 174.777344 43.496094 175.15625 43.636719 175.539062 43.636719 C 175.957031 43.636719 176.375 43.46875 176.6875 43.136719 L 180.53125 39 C 180.738281 38.78125 180.859375 38.515625 180.914062 38.238281 L 184.71875 41.769531 C 185.007812 42.042969 185.386719 42.191406 185.78125 42.191406 L 185.835938 42.191406 C 186.253906 42.175781 186.644531 41.996094 186.929688 41.695312 L 189.410156 39.023438 C 190.347656 38.019531 190.414062 36.503906 189.578125 35.414062 C 188.90625 34.558594 188.871094 33.371094 189.480469 32.46875 L 194.242188 25.4375 C 195.234375 23.949219 196.046875 22.378906 196.652344 20.753906 L 196.683594 20.652344 C 198.609375 14.113281 197.949219 13.492188 197.363281 12.949219 "/>
    <path style=" stroke:none;fill-rule:nonzero;fill:rgb(86.27451%,96.078431%,97.647059%);fill-opacity:1;" d="M 79.027344 220.792969 C 78.742188 220.792969 78.453125 220.714844 78.195312 220.550781 L 70.753906 215.894531 C 70.023438 215.433594 69.796875 214.46875 70.261719 213.734375 C 70.71875 213 71.679688 212.78125 72.414062 213.238281 L 79.859375 217.894531 C 80.59375 218.355469 80.8125 219.320312 80.355469 220.054688 C 80.058594 220.53125 79.546875 220.792969 79.027344 220.792969 "/>
    <path style=" stroke:none;fill-rule:nonzero;fill:rgb(86.27451%,96.078431%,97.647059%);fill-opacity:1;" d="M 50.378906 220.792969 C 49.847656 220.792969 49.328125 220.519531 49.035156 220.03125 C 48.589844 219.292969 48.824219 218.332031 49.566406 217.882812 L 57.289062 213.226562 C 58.027344 212.78125 58.988281 213.019531 59.4375 213.757812 C 59.882812 214.5 59.644531 215.460938 58.90625 215.90625 L 51.183594 220.5625 C 50.933594 220.71875 50.652344 220.792969 50.378906 220.792969 "/>
    <path style=" stroke:none;fill-rule:nonzero;fill:rgb(86.27451%,96.078431%,97.647059%);fill-opacity:1;" d="M 64.796875 212.308594 C 64.226562 212.308594 63.65625 212.132812 63.167969 211.773438 L 49.441406 201.632812 C 48.753906 201.121094 48.609375 200.140625 49.117188 199.445312 C 49.628906 198.75 50.609375 198.605469 51.304688 199.117188 L 64.796875 209.089844 L 78.289062 199.117188 C 78.984375 198.605469 79.964844 198.75 80.480469 199.445312 C 80.992188 200.140625 80.84375 201.121094 80.148438 201.632812 L 66.425781 211.773438 C 65.9375 212.132812 65.367188 212.308594 64.796875 212.308594 "/>
    <path style=" stroke:none;fill-rule:nonzero;fill:rgb(86.27451%,96.078431%,97.647059%);fill-opacity:1;" d="M 51.941406 218.339844 L 77.652344 218.339844 L 77.652344 201.941406 L 51.941406 201.941406 Z M 79.21875 221.46875 L 50.371094 221.46875 C 49.511719 221.46875 48.8125 220.769531 48.8125 219.90625 L 48.8125 200.378906 C 48.8125 199.511719 49.511719 198.808594 50.371094 198.808594 L 79.21875 198.808594 C 80.085938 198.808594 80.78125 199.511719 80.78125 200.378906 L 80.78125 219.90625 C 80.78125 220.769531 80.085938 221.46875 79.21875 221.46875 "/>
    <path style=" stroke:none;fill-rule:nonzero;fill:rgb(86.27451%,96.078431%,97.647059%);fill-opacity:1;" d="M 567.824219 84.316406 C 567.398438 84.585938 567.128906 85.042969 567.101562 85.546875 C 567.070312 86.121094 566.96875 86.6875 566.808594 87.242188 C 566.660156 87.726562 566.761719 88.246094 567.078125 88.644531 L 568.242188 90.128906 L 567.726562 90.941406 L 565.890625 90.527344 C 565.394531 90.414062 564.878906 90.550781 564.503906 90.886719 C 564.070312 91.265625 563.601562 91.601562 563.089844 91.878906 C 562.652344 92.121094 562.359375 92.5625 562.296875 93.0625 L 562.070312 94.933594 L 561.132812 95.144531 L 560.125 93.550781 C 559.859375 93.125 559.398438 92.855469 558.894531 92.828125 C 558.320312 92.792969 557.753906 92.695312 557.199219 92.535156 C 557.054688 92.488281 556.90625 92.472656 556.757812 92.472656 C 556.414062 92.472656 556.074219 92.585938 555.796875 92.804688 L 554.316406 93.964844 L 553.5 93.453125 L 553.917969 91.613281 C 554.027344 91.125 553.894531 90.605469 553.558594 90.230469 C 553.175781 89.804688 552.839844 89.328125 552.5625 88.820312 C 552.316406 88.378906 551.878906 88.082031 551.378906 88.023438 L 549.511719 87.800781 L 549.300781 86.863281 L 550.886719 85.855469 C 551.316406 85.589844 551.585938 85.128906 551.617188 84.625 C 551.648438 84.050781 551.75 83.476562 551.910156 82.921875 C 552.050781 82.441406 551.953125 81.917969 551.640625 81.519531 L 550.476562 80.039062 L 550.988281 79.226562 L 552.832031 79.640625 C 553.320312 79.75 553.835938 79.621094 554.214844 79.28125 C 554.648438 78.898438 555.121094 78.5625 555.621094 78.292969 C 556.066406 78.050781 556.359375 77.605469 556.417969 77.105469 L 556.644531 75.238281 L 557.582031 75.027344 L 558.589844 76.617188 C 558.863281 77.042969 559.320312 77.3125 559.824219 77.34375 C 560.390625 77.375 560.964844 77.472656 561.523438 77.636719 C 562.003906 77.78125 562.527344 77.679688 562.921875 77.367188 L 564.402344 76.203125 L 565.21875 76.71875 L 564.800781 78.554688 C 564.691406 79.042969 564.824219 79.5625 565.15625 79.9375 C 565.542969 80.367188 565.878906 80.84375 566.152344 81.34375 C 566.394531 81.789062 566.839844 82.082031 567.339844 82.148438 L 569.203125 82.371094 L 569.414062 83.3125 Z M 572.011719 80.605469 C 571.867188 79.960938 571.332031 79.476562 570.675781 79.398438 L 568.46875 79.132812 C 568.328125 78.917969 568.175781 78.707031 568.023438 78.5 L 568.511719 76.328125 C 568.660156 75.679688 568.382812 75.011719 567.824219 74.664062 L 565.144531 72.96875 C 564.585938 72.617188 563.859375 72.652344 563.339844 73.058594 L 561.59375 74.433594 C 561.339844 74.378906 561.082031 74.339844 560.828125 74.300781 L 559.640625 72.421875 C 559.289062 71.863281 558.617188 71.589844 557.972656 71.730469 L 554.882812 72.429688 C 554.238281 72.574219 553.753906 73.109375 553.675781 73.769531 L 553.410156 75.96875 C 553.191406 76.113281 552.976562 76.261719 552.773438 76.417969 L 550.605469 75.929688 C 549.957031 75.785156 549.292969 76.0625 548.941406 76.621094 L 547.246094 79.300781 C 546.890625 79.859375 546.929688 80.585938 547.335938 81.101562 L 548.707031 82.847656 C 548.65625 83.105469 548.609375 83.363281 548.574219 83.617188 L 546.695312 84.804688 C 546.136719 85.15625 545.855469 85.828125 546.003906 86.472656 L 546.699219 89.5625 C 546.847656 90.207031 547.382812 90.691406 548.042969 90.769531 L 550.242188 91.035156 C 550.390625 91.257812 550.535156 91.46875 550.691406 91.675781 L 550.207031 93.839844 C 550.058594 94.484375 550.335938 95.152344 550.894531 95.503906 L 553.574219 97.199219 C 554.132812 97.554688 554.855469 97.515625 555.378906 97.109375 L 557.121094 95.734375 C 557.378906 95.789062 557.632812 95.835938 557.890625 95.867188 L 559.078125 97.746094 C 559.367188 98.207031 559.871094 98.472656 560.402344 98.472656 C 560.511719 98.472656 560.628906 98.464844 560.746094 98.4375 L 563.832031 97.742188 C 564.480469 97.59375 564.960938 97.058594 565.042969 96.402344 L 565.308594 94.199219 C 565.523438 94.054688 565.738281 93.90625 565.945312 93.75 L 568.113281 94.238281 C 568.757812 94.382812 569.425781 94.105469 569.777344 93.546875 L 571.472656 90.867188 C 571.824219 90.308594 571.789062 89.585938 571.382812 89.066406 L 570.007812 87.320312 C 570.0625 87.066406 570.105469 86.8125 570.140625 86.554688 L 572.023438 85.363281 C 572.582031 85.011719 572.855469 84.347656 572.714844 83.695312 L 572.011719 80.605469 "/>
    <path style=" stroke:none;fill-rule:nonzero;fill:rgb(86.27451%,96.078431%,97.647059%);fill-opacity:1;" d="M 560.875 86.042969 C 560.617188 86.449219 560.21875 86.730469 559.75 86.835938 C 559.285156 86.941406 558.800781 86.859375 558.398438 86.601562 C 557.996094 86.34375 557.714844 85.945312 557.609375 85.476562 C 557.503906 85.011719 557.589844 84.53125 557.84375 84.125 C 558.097656 83.722656 558.496094 83.441406 558.960938 83.335938 C 559.09375 83.304688 559.226562 83.292969 559.359375 83.292969 C 559.695312 83.292969 560.027344 83.382812 560.3125 83.566406 C 560.722656 83.824219 561 84.222656 561.105469 84.691406 C 561.210938 85.15625 561.128906 85.640625 560.875 86.042969 Z M 561.992188 80.929688 C 560.878906 80.222656 559.558594 79.996094 558.273438 80.285156 C 556.992188 80.574219 555.902344 81.339844 555.199219 82.453125 C 554.5 83.566406 554.269531 84.882812 554.558594 86.164062 C 554.847656 87.449219 555.621094 88.539062 556.726562 89.242188 C 557.523438 89.746094 558.425781 90.007812 559.347656 90.007812 C 559.710938 90.007812 560.074219 89.964844 560.441406 89.882812 C 561.726562 89.59375 562.8125 88.824219 563.519531 87.714844 C 564.21875 86.605469 564.449219 85.285156 564.160156 84.003906 C 563.871094 82.71875 563.097656 81.625 561.992188 80.929688 "/>
    <path style=" stroke:none;fill-rule:nonzero;fill:rgb(86.27451%,96.078431%,97.647059%);fill-opacity:1;" d="M 579.804688 72.464844 L 579.332031 70 C 579.207031 69.347656 578.683594 68.84375 578.03125 68.742188 L 576.441406 68.5 C 576.378906 68.40625 576.320312 68.3125 576.257812 68.226562 L 576.664062 66.664062 C 576.828125 66.027344 576.578125 65.347656 576.027344 64.972656 L 573.957031 63.5625 C 573.40625 63.191406 572.683594 63.203125 572.152344 63.59375 L 570.847656 64.546875 C 570.738281 64.523438 570.628906 64.5 570.519531 64.480469 L 569.703125 63.089844 C 569.371094 62.515625 568.71875 62.21875 568.066406 62.34375 L 565.597656 62.8125 C 564.945312 62.9375 564.449219 63.460938 564.347656 64.117188 L 564.097656 65.707031 C 564.003906 65.765625 563.910156 65.824219 563.820312 65.890625 L 562.265625 65.480469 C 561.625 65.316406 560.945312 65.574219 560.574219 66.117188 L 559.164062 68.199219 C 558.792969 68.738281 558.800781 69.464844 559.195312 69.996094 L 560.59375 71.90625 C 561.101562 72.605469 562.082031 72.757812 562.773438 72.246094 C 563.476562 71.734375 563.628906 70.753906 563.113281 70.058594 L 562.371094 69.039062 L 562.546875 68.785156 L 563.761719 69.105469 C 564.25 69.230469 564.769531 69.121094 565.15625 68.792969 C 565.492188 68.515625 565.855469 68.28125 566.234375 68.089844 C 566.6875 67.863281 567 67.429688 567.078125 66.929688 L 567.269531 65.683594 L 567.566406 65.628906 L 568.210938 66.714844 C 568.460938 67.148438 568.910156 67.4375 569.410156 67.484375 C 569.835938 67.519531 570.261719 67.605469 570.675781 67.746094 C 571.15625 67.898438 571.683594 67.816406 572.085938 67.519531 L 573.109375 66.773438 L 573.359375 66.941406 L 573.039062 68.164062 C 572.910156 68.648438 573.03125 69.171875 573.351562 69.558594 C 573.625 69.890625 573.863281 70.25 574.0625 70.640625 C 574.289062 71.089844 574.722656 71.402344 575.21875 71.480469 L 576.460938 71.671875 L 576.519531 71.96875 L 575.4375 72.605469 C 575 72.863281 574.710938 73.3125 574.667969 73.816406 C 574.628906 74.242188 574.542969 74.667969 574.40625 75.070312 C 574.246094 75.554688 574.332031 76.082031 574.628906 76.488281 L 575.210938 77.28125 L 573.5625 76.824219 C 572.734375 76.59375 571.867188 77.078125 571.636719 77.914062 C 571.402344 78.746094 571.894531 79.609375 572.726562 79.84375 L 575.507812 80.613281 C 575.644531 80.652344 575.785156 80.671875 575.925781 80.671875 C 576.378906 80.671875 576.824219 80.46875 577.128906 80.109375 L 578.488281 78.476562 C 578.949219 77.921875 578.972656 77.128906 578.546875 76.546875 L 577.597656 75.25 C 577.621094 75.140625 577.644531 75.03125 577.667969 74.921875 L 579.054688 74.109375 C 579.628906 73.773438 579.925781 73.113281 579.804688 72.464844 "/>
    <path style=" stroke:none;fill-rule:nonzero;fill:rgb(86.27451%,96.078431%,97.647059%);fill-opacity:1;" d="M 142.390625 299.742188 C 141.167969 299.742188 139.949219 300.207031 139.019531 301.140625 C 137.160156 302.996094 137.160156 306.027344 139.019531 307.890625 L 150.609375 319.476562 L 162.191406 307.890625 C 164.050781 306.027344 164.050781 302.996094 162.191406 301.140625 C 160.332031 299.277344 157.300781 299.277344 155.441406 301.140625 L 151.710938 304.871094 C 151.101562 305.480469 150.109375 305.480469 149.5 304.871094 L 145.769531 301.140625 C 144.839844 300.207031 143.613281 299.742188 142.390625 299.742188 Z M 150.640625 323.21875 C 150.542969 323.183594 150.414062 323.207031 150.308594 323.183594 C 150 323.136719 149.699219 322.996094 149.46875 322.757812 L 136.804688 310.097656 C 133.722656 307.023438 133.722656 302.007812 136.804688 298.925781 C 139.886719 295.847656 144.902344 295.847656 147.976562 298.925781 L 150.609375 301.550781 L 153.230469 298.925781 C 156.3125 295.847656 161.320312 295.847656 164.40625 298.925781 C 167.484375 302.007812 167.484375 307.023438 164.40625 310.097656 L 151.746094 322.757812 C 151.449219 323.050781 151.050781 323.21875 150.640625 323.21875 "/>
    <path style=" stroke:none;fill-rule:nonzero;fill:rgb(86.27451%,96.078431%,97.647059%);fill-opacity:1;" d="M 56.800781 50.105469 L 54.253906 48.292969 L 60.703125 39.242188 L 70.179688 45.628906 L 68.429688 48.222656 L 61.480469 43.535156 L 56.800781 50.105469 "/>
    <path style=" stroke:none;fill-rule:nonzero;fill:rgb(86.27451%,96.078431%,97.647059%);fill-opacity:1;" d="M 162.695312 157.839844 L 169.40625 158.800781 L 170.316406 152.410156 L 163.613281 151.445312 Z M 172.058594 162.339844 L 159.160156 160.488281 L 160.957031 147.90625 L 173.859375 149.75 L 172.058594 162.339844 "/>
    <path style=" stroke:none;fill-rule:nonzero;fill:rgb(86.27451%,96.078431%,97.647059%);fill-opacity:1;" d="M 628.941406 183.8125 L 628.441406 180.722656 L 633.046875 179.976562 L 633.546875 183.066406 L 628.941406 183.8125 "/>
    <path style=" stroke:none;fill-rule:nonzero;fill:rgb(86.27451%,96.078431%,97.647059%);fill-opacity:1;" d="M 633.539062 178.796875 L 632.808594 174.28125 L 635.894531 173.78125 L 636.625 178.300781 L 633.539062 178.796875 "/>
    <path style=" stroke:none;fill-rule:nonzero;fill:rgb(86.27451%,96.078431%,97.647059%);fill-opacity:1;" d="M 638.570312 182.253906 L 638.074219 179.160156 L 642.425781 178.460938 L 642.925781 181.546875 L 638.570312 182.253906 "/>
    <path style=" stroke:none;fill-rule:nonzero;fill:rgb(86.27451%,96.078431%,97.647059%);fill-opacity:1;" d="M 635.136719 188.667969 L 634.363281 183.894531 L 637.453125 183.394531 L 638.222656 188.167969 L 635.136719 188.667969 "/>
    <path style=" stroke:none;fill-rule:nonzero;fill:rgb(86.27451%,96.078431%,97.647059%);fill-opacity:1;" d="M 376.632812 30.609375 C 375.925781 30.609375 375.226562 30.804688 374.609375 31.191406 C 373.742188 31.730469 373.132812 32.578125 372.902344 33.578125 C 372.421875 35.644531 373.710938 37.707031 375.769531 38.1875 C 377.835938 38.667969 379.902344 37.382812 380.382812 35.324219 C 380.859375 33.257812 379.570312 31.191406 377.507812 30.710938 C 377.21875 30.640625 376.921875 30.609375 376.632812 30.609375 Z M 376.640625 41.417969 C 376.117188 41.417969 375.589844 41.359375 375.058594 41.238281 C 371.320312 40.363281 368.980469 36.613281 369.851562 32.871094 C 370.273438 31.058594 371.378906 29.515625 372.957031 28.539062 C 374.535156 27.550781 376.40625 27.242188 378.21875 27.667969 C 381.957031 28.539062 384.296875 32.285156 383.425781 36.027344 C 382.679688 39.242188 379.808594 41.417969 376.640625 41.417969 "/>
    <path style=" stroke:none;fill-rule:nonzero;fill:rgb(86.27451%,96.078431%,97.647059%);fill-opacity:1;" d="M 36.625 491.5 L 43.335938 492.464844 L 44.25 486.070312 L 37.542969 485.109375 Z M 45.992188 496.003906 L 33.089844 494.152344 L 34.894531 481.570312 L 47.792969 483.417969 L 45.992188 496.003906 "/>
  </g>
</svg>
