<?xml version="1.0" encoding="UTF-8"?>
<svg xmlns="http://www.w3.org/2000/svg" xmlns:xlink="http://www.w3.org/1999/xlink" width="666pt" height="666pt" viewBox="0 0 666 666" version="1.1">
<g id="surface1">
<path style=" stroke:none;fill-rule:nonzero;fill:rgb(89.019608%,92.941176%,96.078431%);fill-opacity:1;" d="M 660.847656 626.863281 L 0.00390625 626.863281 L 0.00390625 636.71875 L 660.847656 636.71875 L 660.847656 626.863281 "/>
<path style=" stroke:none;fill-rule:nonzero;fill:rgb(74.117647%,100%,84.705882%);fill-opacity:1;" d="M 40.464844 577.988281 C 40.464844 577.988281 58.726562 531.09375 118.199219 508.992188 C 164.925781 491.636719 232.242188 534.550781 232.242188 534.550781 C 232.242188 534.550781 173.59375 562.542969 138.847656 562.847656 C 87.371094 563.304688 40.464844 577.988281 40.464844 577.988281 "/>
<path style=" stroke:none;fill-rule:nonzero;fill:rgb(86.27451%,96.078431%,97.647059%);fill-opacity:1;" d="M 101.414062 357.96875 C 101.414062 357.96875 129.996094 409.484375 182.835938 463.304688 C 242.257812 523.824219 218.757812 569.011719 218.757812 569.011719 C 218.757812 569.011719 124.195312 559.949219 94.804688 493.9375 C 71.417969 441.417969 101.414062 357.96875 101.414062 357.96875 "/>
<path style=" stroke:none;fill-rule:nonzero;fill:rgb(73.72549%,96.862745%,88.627451%);fill-opacity:1;" d="M 569.410156 254.636719 C 569.21875 253.648438 568.261719 253.003906 567.269531 253.195312 C 566.277344 253.386719 565.628906 254.34375 565.824219 255.335938 C 565.875 255.597656 570.914062 281.96875 570.808594 323.273438 C 570.710938 361.425781 566.070312 420.410156 544.523438 484.761719 C 525.269531 542.261719 496.457031 580.023438 468.277344 603.121094 L 487.769531 603.121094 C 512.421875 580.144531 535.269531 547.667969 554.484375 490.300781 C 576.183594 425.488281 577.398438 359.679688 577.496094 321.257812 C 577.601562 279.601562 569.460938 254.902344 569.410156 254.636719 "/>
<path style=" stroke:none;fill-rule:nonzero;fill:rgb(73.72549%,96.862745%,88.627451%);fill-opacity:1;" d="M 573.058594 374.128906 C 570.460938 352.847656 581.132812 313.683594 604.089844 296.929688 C 623.679688 282.628906 633.214844 267.230469 633.214844 267.230469 C 633.214844 267.230469 637.480469 284.558594 635.578125 305.683594 C 634.296875 319.890625 623 337.816406 609.40625 344.171875 C 585.230469 355.472656 573.058594 374.128906 573.058594 374.128906 "/>
<path style=" stroke:none;fill-rule:nonzero;fill:rgb(73.72549%,96.862745%,88.627451%);fill-opacity:1;" d="M 570.832031 280.167969 C 559.898438 254.035156 546.410156 238.519531 549.902344 211.640625 C 552.539062 191.296875 549.121094 166.078125 549.121094 166.078125 C 549.121094 166.078125 566.085938 177.617188 577.027344 193.234375 C 586.914062 207.339844 589.1875 225.390625 584.316406 240.039062 C 580.804688 250.597656 570.832031 280.167969 570.832031 280.167969 "/>
<path style=" stroke:none;fill-rule:nonzero;fill:rgb(73.72549%,96.862745%,88.627451%);fill-opacity:1;" d="M 550.394531 494.945312 C 561.144531 462.078125 572.671875 403.828125 597.363281 381.332031 C 625.542969 355.664062 642.273438 355.894531 656.203125 338.015625 C 656.203125 338.015625 657.160156 355.105469 653.9375 383.605469 C 651.027344 409.34375 634.519531 455.960938 607.996094 464.445312 C 574.917969 475.023438 550.394531 494.945312 550.394531 494.945312 "/>
<path style=" stroke:none;fill-rule:nonzero;fill:rgb(73.72549%,96.862745%,88.627451%);fill-opacity:1;" d="M 518.246094 230.078125 C 535.621094 263.496094 580.667969 294.730469 571.441406 360.808594 C 571.441406 360.808594 555.050781 338.1875 541.195312 329.988281 C 520.933594 317.992188 513.226562 294.875 512.894531 271.683594 C 512.644531 254.972656 518.246094 230.078125 518.246094 230.078125 "/>
<path style=" stroke:none;fill-rule:nonzero;fill:rgb(73.72549%,96.862745%,88.627451%);fill-opacity:1;" d="M 665.800781 506.605469 C 620.933594 538.023438 623.546875 557.070312 554.972656 570.976562 C 508.320312 580.4375 494.144531 600.507812 494.144531 600.507812 C 494.144531 600.507812 516.957031 558.183594 535.242188 535.613281 C 547.101562 520.976562 565.449219 503.515625 603.367188 498.257812 C 627.976562 494.84375 665.800781 506.605469 665.800781 506.605469 "/>
<path style=" stroke:none;fill-rule:nonzero;fill:rgb(73.72549%,96.862745%,88.627451%);fill-opacity:1;" d="M 504.609375 574.523438 C 484.882812 534.847656 473 498.449219 470.117188 475.34375 C 465.769531 440.539062 475.46875 411.867188 475.46875 411.867188 C 475.46875 411.867188 475.53125 418.121094 501.585938 434.3125 C 525.113281 448.933594 535.761719 465.921875 537.429688 493.164062 C 539.339844 524.296875 504.609375 574.523438 504.609375 574.523438 "/>
<path style=" stroke:none;fill-rule:nonzero;fill:rgb(73.72549%,96.862745%,88.627451%);fill-opacity:1;" d="M 555.773438 466.332031 C 537.929688 432.847656 510.289062 422.183594 507.402344 385.007812 C 505.078125 355.058594 485.734375 338.015625 485.734375 338.015625 C 485.734375 338.015625 516.714844 340.730469 539.402344 353.957031 C 559.898438 365.902344 562.605469 379.703125 566.773438 402.695312 C 572.457031 434.0625 555.773438 466.332031 555.773438 466.332031 "/>
<path style=" stroke:none;fill-rule:nonzero;fill:rgb(29.019608%,81.176471%,82.745098%);fill-opacity:1;" d="M 298.425781 626.601562 L 493.574219 628.1875 C 498.898438 628.234375 503.253906 623.953125 503.296875 618.628906 L 506.785156 203.679688 C 506.832031 198.355469 502.550781 194 497.226562 193.957031 L 302.078125 192.371094 C 296.753906 192.324219 292.402344 196.605469 292.355469 201.929688 L 288.871094 616.878906 C 288.824219 622.203125 293.101562 626.554688 298.425781 626.601562 "/>
<path style=" stroke:none;fill-rule:nonzero;fill:rgb(54.901961%,91.764706%,90.588235%);fill-opacity:1;" d="M 285.785156 626.515625 L 480.929688 628.105469 C 486.257812 628.152344 490.609375 623.871094 490.652344 618.546875 L 494.144531 203.597656 C 494.191406 198.273438 489.90625 193.917969 484.582031 193.871094 L 289.433594 192.28125 C 284.113281 192.238281 279.757812 196.515625 279.714844 201.84375 L 276.222656 616.792969 C 276.183594 622.121094 280.460938 626.46875 285.785156 626.515625 "/>
<path style=" stroke:none;fill-rule:nonzero;fill:rgb(91.764706%,97.647059%,98.823529%);fill-opacity:1;" d="M 276.539062 579.683594 L 212.355469 579.160156 L 212.449219 568.167969 C 216.453125 568.792969 218.757812 569.011719 218.757812 569.011719 C 218.757812 569.011719 224.667969 557.652344 223.070312 538.699219 C 228.792969 536.195312 232.242188 534.550781 232.242188 534.550781 C 232.242188 534.550781 228.25 532.007812 221.539062 528.40625 C 219.996094 521.117188 217.324219 513.015625 212.984375 504.261719 L 216.464844 88.617188 L 481.707031 90.777344 L 480.84375 193.824219 L 462.789062 193.675781 L 462.890625 176.472656 L 462.890625 176.355469 C 462.890625 173.28125 462.132812 170.339844 460.78125 167.6875 C 458.753906 163.707031 455.394531 160.367188 451.214844 158.011719 C 447.039062 155.65625 442.023438 154.277344 436.636719 154.242188 L 336.914062 153.652344 L 336.722656 153.652344 C 329.5625 153.652344 323.046875 156.03125 318.265625 159.957031 C 315.875 161.917969 313.917969 164.273438 312.554688 166.914062 C 311.1875 169.558594 310.414062 172.488281 310.398438 175.558594 L 310.300781 191.902344 L 309.835938 192.429688 L 302.078125 192.371094 C 302.050781 192.371094 302.023438 192.371094 301.996094 192.371094 C 301.824219 192.371094 301.652344 192.375 301.484375 192.378906 L 289.433594 192.28125 C 289.410156 192.28125 289.378906 192.28125 289.355469 192.28125 C 284.066406 192.28125 279.757812 196.542969 279.714844 201.84375 L 279.5 227.238281 L 277.691406 229.3125 L 279.480469 229.402344 L 278 405.414062 L 258.757812 405.300781 L 258.761719 405.300781 C 258.691406 405.300781 258.625 405.300781 258.566406 405.300781 C 251.390625 405.300781 244.863281 407.683594 240.078125 411.613281 C 237.679688 413.578125 235.722656 415.941406 234.355469 418.582031 C 232.988281 421.226562 232.214844 424.164062 232.195312 427.242188 L 231.835938 487.625 L 231.839844 487.617188 L 231.835938 487.738281 C 231.835938 490.816406 232.589844 493.757812 233.945312 496.417969 C 235.980469 500.402344 239.34375 503.753906 243.53125 506.113281 C 247.71875 508.472656 252.738281 509.851562 258.132812 509.882812 L 277.121094 509.996094 L 276.539062 579.683594 M 459.660156 193.652344 L 313.429688 192.460938 L 313.53125 175.578125 C 313.542969 173.015625 314.179688 170.585938 315.335938 168.351562 C 317.0625 165.007812 319.972656 162.109375 323.679688 160.054688 C 327.386719 157.992188 331.875 156.78125 336.722656 156.78125 L 336.898438 156.78125 L 436.617188 157.375 C 443.101562 157.410156 448.933594 159.617188 453.097656 163.085938 C 455.183594 164.824219 456.851562 166.867188 457.996094 169.113281 C 459.136719 171.351562 459.761719 173.796875 459.761719 176.355469 L 459.761719 176.453125 L 459.660156 193.652344 "/>
<path style=" stroke:none;fill-rule:nonzero;fill:rgb(81.568627%,97.647059%,92.54902%);fill-opacity:1;" d="M 223.070312 538.699219 C 222.792969 535.480469 222.308594 532.046875 221.539062 528.40625 C 228.25 532.007812 232.242188 534.550781 232.242188 534.550781 C 232.242188 534.550781 228.792969 536.195312 223.070312 538.699219 "/>
<path style=" stroke:none;fill-rule:nonzero;fill:rgb(86.27451%,96.078431%,97.647059%);fill-opacity:1;" d="M 218.757812 569.011719 C 218.757812 569.011719 216.453125 568.792969 212.449219 568.167969 L 212.984375 504.261719 C 217.324219 513.015625 219.996094 521.117188 221.539062 528.40625 C 222.308594 532.046875 222.792969 535.480469 223.070312 538.699219 C 224.667969 557.652344 218.757812 569.011719 218.757812 569.011719 "/>
<path style=" stroke:none;fill-rule:nonzero;fill:rgb(63.529412%,90.196078%,91.764706%);fill-opacity:1;" d="M 480.84375 193.839844 L 462.789062 193.695312 L 462.789062 193.675781 L 480.84375 193.824219 L 480.84375 193.839844 M 459.660156 193.667969 L 313.429688 192.480469 L 313.429688 192.460938 L 459.660156 193.652344 L 459.660156 193.667969 M 309.824219 192.449219 L 301.484375 192.378906 C 301.652344 192.375 301.824219 192.371094 301.996094 192.371094 C 302.023438 192.371094 302.050781 192.371094 302.078125 192.371094 L 309.835938 192.429688 L 309.824219 192.449219 "/>
<path style=" stroke:none;fill-rule:nonzero;fill:rgb(91.764706%,97.647059%,98.823529%);fill-opacity:1;" d="M 277.148438 506.867188 L 258.152344 506.753906 C 251.65625 506.714844 245.8125 504.503906 241.640625 501.03125 C 239.550781 499.292969 237.882812 497.242188 236.738281 494.996094 C 235.589844 492.746094 234.96875 490.304688 234.96875 487.738281 L 234.96875 487.632812 L 235.324219 427.261719 C 235.34375 424.695312 235.980469 422.257812 237.136719 420.023438 C 238.867188 416.667969 241.78125 413.769531 245.496094 411.707031 C 249.207031 409.644531 253.703125 408.429688 258.558594 408.429688 C 258.558594 408.429688 258.566406 408.429688 258.566406 408.429688 L 258.738281 408.429688 L 277.972656 408.542969 L 277.578125 455.886719 L 272.046875 455.847656 L 272.027344 458.980469 L 277.550781 459.015625 L 277.148438 506.867188 M 263.238281 455.796875 L 263.21875 458.925781 L 265.089844 458.941406 L 265.109375 455.808594 L 263.238281 455.796875 "/>
<path style=" stroke:none;fill-rule:nonzero;fill:rgb(73.72549%,94.509804%,94.901961%);fill-opacity:1;" d="M 477.59375 581.320312 L 276.539062 579.683594 L 277.121094 509.996094 L 358.019531 510.476562 L 358.210938 510.476562 C 365.382812 510.476562 371.90625 508.089844 376.695312 504.164062 C 379.09375 502.195312 381.046875 499.839844 382.417969 497.195312 C 383.789062 494.546875 384.5625 491.613281 384.578125 488.535156 L 384.609375 483.683594 L 417.398438 484.429688 L 415.246094 481.796875 L 414.039062 482.785156 L 414.074219 481.222656 L 414.039062 482.785156 L 415.246094 481.796875 L 384.84375 444.539062 L 384.9375 428.152344 L 384.9375 428.039062 C 384.9375 424.960938 384.183594 422.015625 382.828125 419.359375 C 380.792969 415.371094 377.429688 412.027344 373.246094 409.667969 C 369.058594 407.308594 364.035156 405.929688 358.644531 405.894531 L 278 405.414062 L 279.480469 229.402344 L 280.914062 229.46875 L 310.066406 230.910156 L 310.039062 235.84375 L 310.039062 235.839844 L 310.039062 235.957031 C 310.039062 239.03125 310.792969 241.96875 312.144531 244.621094 C 314.175781 248.605469 317.535156 251.945312 321.710938 254.304688 C 325.894531 256.660156 330.910156 258.035156 336.296875 258.066406 L 436.011719 258.660156 L 436.207031 258.660156 C 443.367188 258.660156 449.882812 256.277344 454.667969 252.355469 C 457.054688 250.390625 459.007812 248.039062 460.375 245.398438 C 461.746094 242.757812 462.515625 239.824219 462.53125 236.75 L 462.789062 193.695312 L 480.84375 193.839844 L 477.59375 581.320312 M 322.742188 296.914062 C 316.613281 296.914062 311.609375 301.863281 311.558594 308.011719 L 311.148438 357.226562 C 311.097656 363.40625 316.0625 368.457031 322.238281 368.511719 L 449.390625 369.578125 C 449.425781 369.578125 449.457031 369.578125 449.488281 369.578125 C 455.625 369.578125 460.621094 364.632812 460.675781 358.488281 L 461.089844 309.269531 C 461.140625 303.09375 456.171875 298.039062 449.996094 297.988281 L 322.839844 296.914062 C 322.808594 296.914062 322.777344 296.914062 322.742188 296.914062 M 358.210938 507.347656 L 358.035156 507.347656 L 358.039062 507.347656 L 277.148438 506.867188 L 277.550781 459.015625 L 278.964844 459.023438 L 278.980469 455.894531 L 277.578125 455.886719 L 277.972656 408.542969 L 358.621094 409.027344 C 365.117188 409.0625 370.960938 411.269531 375.132812 414.75 C 377.222656 416.484375 378.890625 418.53125 380.035156 420.78125 C 381.179688 423.027344 381.808594 425.476562 381.808594 428.039062 L 381.808594 428.140625 L 381.808594 428.132812 L 381.703125 445.644531 L 410.675781 481.144531 L 381.496094 480.480469 L 381.445312 488.515625 C 381.433594 491.082031 380.796875 493.515625 379.636719 495.757812 C 377.90625 499.105469 374.992188 502.011719 371.28125 504.074219 C 367.570312 506.128906 363.070312 507.347656 358.210938 507.347656 M 341.410156 456.265625 L 341.390625 459.394531 L 348.328125 459.4375 L 348.347656 456.304688 L 341.410156 456.265625 M 327.535156 456.183594 L 327.519531 459.3125 L 334.457031 459.351562 L 334.472656 456.222656 L 327.535156 456.183594 M 313.664062 456.101562 L 313.644531 459.230469 L 320.582031 459.269531 L 320.605469 456.136719 L 313.664062 456.101562 M 299.792969 456.011719 L 299.773438 459.148438 L 306.710938 459.1875 L 306.730469 456.058594 L 299.792969 456.011719 M 285.917969 455.933594 L 285.902344 459.066406 L 292.835938 459.105469 L 292.855469 455.972656 L 285.917969 455.933594 M 436.210938 255.53125 C 436.210938 255.53125 436.210938 255.53125 436.207031 255.53125 L 436.03125 255.53125 L 336.316406 254.9375 C 329.828125 254.898438 323.996094 252.695312 319.828125 249.222656 C 317.746094 247.492188 316.078125 245.441406 314.9375 243.203125 C 313.789062 240.957031 313.167969 238.519531 313.167969 235.957031 L 313.167969 235.863281 L 313.21875 227.929688 L 284.292969 226.503906 L 313.425781 193.085938 L 313.429688 192.480469 L 459.660156 193.667969 L 459.402344 236.730469 C 459.386719 239.292969 458.75 241.726562 457.597656 243.957031 C 455.867188 247.308594 452.957031 250.203125 449.25 252.261719 C 445.546875 254.316406 441.058594 255.53125 436.210938 255.53125 M 401.066406 222.527344 L 401.046875 225.65625 L 407.980469 225.699219 L 408.003906 222.570312 L 401.066406 222.527344 M 387.191406 222.445312 L 387.175781 225.574219 L 394.113281 225.617188 L 394.128906 222.488281 L 387.191406 222.445312 M 373.320312 222.363281 L 373.300781 225.492188 L 380.238281 225.535156 L 380.253906 222.40625 L 373.320312 222.363281 M 359.445312 222.28125 L 359.425781 225.410156 L 366.363281 225.453125 L 366.382812 222.320312 L 359.445312 222.28125 M 345.570312 222.199219 L 345.550781 225.328125 L 352.488281 225.367188 L 352.507812 222.238281 L 345.570312 222.199219 M 415.746094 197.78125 L 415.730469 200.910156 L 422.664062 200.953125 L 422.683594 197.824219 L 415.746094 197.78125 M 401.875 197.699219 L 401.855469 200.828125 L 408.792969 200.871094 L 408.808594 197.738281 L 401.875 197.699219 M 388 197.617188 L 387.980469 200.746094 L 394.917969 200.785156 L 394.9375 197.652344 L 388 197.617188 M 374.125 197.53125 L 374.105469 200.664062 L 381.042969 200.703125 L 381.0625 197.574219 L 374.125 197.53125 M 360.25 197.453125 L 360.234375 200.582031 L 367.167969 200.621094 L 367.1875 197.492188 L 360.25 197.453125 M 346.378906 197.363281 L 346.359375 200.5 L 353.296875 200.539062 L 353.3125 197.410156 L 346.378906 197.363281 M 279.5 227.238281 L 279.714844 201.84375 C 279.757812 196.542969 284.066406 192.28125 289.355469 192.28125 C 289.378906 192.28125 289.410156 192.28125 289.433594 192.28125 L 301.484375 192.378906 L 309.824219 192.449219 L 279.5 227.238281 "/>
<path style=" stroke:none;fill-rule:nonzero;fill:rgb(96.862745%,99.215686%,99.607843%);fill-opacity:1;" d="M 277.121094 509.996094 L 258.132812 509.882812 C 252.738281 509.851562 247.71875 508.472656 243.53125 506.113281 C 239.34375 503.753906 235.980469 500.402344 233.945312 496.417969 C 232.589844 493.757812 231.835938 490.816406 231.835938 487.738281 L 231.839844 487.617188 L 231.835938 487.625 L 232.195312 427.242188 C 232.214844 424.164062 232.988281 421.226562 234.355469 418.582031 C 235.722656 415.941406 237.679688 413.578125 240.078125 411.613281 C 244.863281 407.683594 251.390625 405.300781 258.566406 405.300781 C 258.625 405.300781 258.691406 405.300781 258.761719 405.300781 L 258.757812 405.300781 L 278 405.414062 L 277.972656 408.542969 L 258.738281 408.429688 L 258.566406 408.429688 C 258.566406 408.429688 258.558594 408.429688 258.558594 408.429688 C 253.703125 408.429688 249.207031 409.644531 245.496094 411.707031 C 241.78125 413.769531 238.867188 416.667969 237.136719 420.023438 C 235.980469 422.257812 235.34375 424.695312 235.324219 427.261719 L 234.96875 487.632812 L 234.96875 487.738281 C 234.96875 490.304688 235.589844 492.746094 236.738281 494.996094 C 237.882812 497.242188 239.550781 499.292969 241.640625 501.03125 C 245.8125 504.503906 251.65625 506.714844 258.152344 506.753906 L 277.148438 506.867188 L 277.121094 509.996094 "/>
<path style=" stroke:none;fill-rule:nonzero;fill:rgb(89.411765%,97.647059%,98.039216%);fill-opacity:1;" d="M 358.210938 510.476562 L 358.019531 510.476562 L 277.121094 509.996094 L 277.148438 506.867188 L 358.039062 507.347656 L 358.035156 507.347656 L 358.210938 507.347656 C 363.070312 507.347656 367.570312 506.128906 371.28125 504.074219 C 374.992188 502.011719 377.90625 499.105469 379.636719 495.757812 C 380.796875 493.515625 381.433594 491.082031 381.445312 488.515625 L 381.496094 480.480469 L 410.675781 481.144531 L 381.703125 445.644531 L 381.808594 428.132812 L 381.808594 428.140625 L 381.808594 428.039062 C 381.808594 425.476562 381.179688 423.027344 380.035156 420.78125 C 378.890625 418.53125 377.222656 416.484375 375.132812 414.75 C 370.960938 411.269531 365.117188 409.0625 358.621094 409.027344 L 277.972656 408.542969 L 278 405.414062 L 358.644531 405.894531 C 364.035156 405.929688 369.058594 407.308594 373.246094 409.667969 C 377.429688 412.027344 380.792969 415.371094 382.828125 419.359375 C 384.183594 422.015625 384.9375 424.960938 384.9375 428.039062 L 384.9375 428.152344 L 384.84375 444.539062 L 415.246094 481.796875 L 414.039062 482.785156 L 414.074219 481.222656 L 414.039062 482.785156 L 415.246094 481.796875 L 417.398438 484.429688 L 384.609375 483.683594 L 384.578125 488.535156 C 384.5625 491.613281 383.789062 494.546875 382.417969 497.195312 C 381.046875 499.839844 379.09375 502.195312 376.695312 504.164062 C 371.90625 508.089844 365.382812 510.476562 358.210938 510.476562 "/>
<path style=" stroke:none;fill-rule:nonzero;fill:rgb(89.411765%,97.647059%,98.039216%);fill-opacity:1;" d="M 348.328125 459.4375 L 341.390625 459.394531 L 341.410156 456.265625 L 348.347656 456.304688 L 348.328125 459.4375 M 334.457031 459.351562 L 327.519531 459.3125 L 327.535156 456.183594 L 334.472656 456.222656 L 334.457031 459.351562 M 320.582031 459.269531 L 313.644531 459.230469 L 313.664062 456.101562 L 320.605469 456.136719 L 320.582031 459.269531 M 306.710938 459.1875 L 299.773438 459.148438 L 299.792969 456.011719 L 306.730469 456.058594 L 306.710938 459.1875 M 292.835938 459.105469 L 285.902344 459.066406 L 285.917969 455.933594 L 292.855469 455.972656 L 292.835938 459.105469 "/>
<path style=" stroke:none;fill-rule:nonzero;fill:rgb(96.862745%,99.215686%,99.607843%);fill-opacity:1;" d="M 277.550781 459.015625 L 272.027344 458.980469 L 272.046875 455.847656 L 277.578125 455.886719 L 277.550781 459.015625 "/>
<path style=" stroke:none;fill-rule:nonzero;fill:rgb(89.411765%,97.647059%,98.039216%);fill-opacity:1;" d="M 278.964844 459.023438 L 277.550781 459.015625 L 277.578125 455.886719 L 278.980469 455.894531 L 278.964844 459.023438 "/>
<path style=" stroke:none;fill-rule:nonzero;fill:rgb(96.862745%,99.215686%,99.607843%);fill-opacity:1;" d="M 265.089844 458.941406 L 263.21875 458.925781 L 263.238281 455.796875 L 265.109375 455.808594 L 265.089844 458.941406 "/>
<path style=" stroke:none;fill-rule:nonzero;fill:rgb(96.862745%,99.215686%,99.607843%);fill-opacity:1;" d="M 279.480469 229.402344 L 277.691406 229.3125 L 279.5 227.238281 L 279.480469 229.402344 M 462.789062 193.675781 L 459.660156 193.652344 L 459.761719 176.453125 L 459.761719 176.355469 C 459.761719 173.796875 459.136719 171.351562 457.996094 169.113281 C 456.851562 166.867188 455.183594 164.824219 453.097656 163.085938 C 448.933594 159.617188 443.101562 157.410156 436.617188 157.375 L 336.898438 156.78125 L 336.722656 156.78125 C 331.875 156.78125 327.386719 157.992188 323.679688 160.054688 C 319.972656 162.109375 317.0625 165.007812 315.335938 168.351562 C 314.179688 170.585938 313.542969 173.015625 313.53125 175.578125 L 313.429688 192.460938 L 309.835938 192.429688 L 310.300781 191.902344 L 310.398438 175.558594 C 310.414062 172.488281 311.1875 169.558594 312.554688 166.914062 C 313.917969 164.273438 315.875 161.917969 318.265625 159.957031 C 323.046875 156.03125 329.5625 153.652344 336.722656 153.652344 L 336.914062 153.652344 L 436.636719 154.242188 C 442.023438 154.277344 447.039062 155.65625 451.214844 158.011719 C 455.394531 160.367188 458.753906 163.707031 460.78125 167.6875 C 462.132812 170.339844 462.890625 173.28125 462.890625 176.355469 L 462.890625 176.472656 L 462.789062 193.675781 "/>
<path style=" stroke:none;fill-rule:nonzero;fill:rgb(85.490196%,96.078431%,96.862745%);fill-opacity:1;" d="M 462.789062 193.695312 L 459.660156 193.667969 L 459.660156 193.652344 L 462.789062 193.675781 L 462.789062 193.695312 M 313.429688 192.480469 L 309.824219 192.449219 L 309.835938 192.429688 L 313.429688 192.460938 L 313.429688 192.480469 "/>
<path style=" stroke:none;fill-rule:nonzero;fill:rgb(89.411765%,97.647059%,98.039216%);fill-opacity:1;" d="M 436.207031 258.660156 L 436.011719 258.660156 L 336.296875 258.066406 C 330.910156 258.035156 325.894531 256.660156 321.710938 254.304688 C 317.535156 251.945312 314.175781 248.605469 312.144531 244.621094 C 310.792969 241.96875 310.039062 239.03125 310.039062 235.957031 L 310.039062 235.839844 L 310.039062 235.84375 L 310.066406 230.910156 L 280.914062 229.46875 L 279.480469 229.402344 L 279.5 227.238281 L 309.824219 192.449219 L 313.429688 192.480469 L 313.425781 193.085938 L 284.292969 226.503906 L 313.21875 227.929688 L 313.167969 235.863281 L 313.167969 235.957031 C 313.167969 238.519531 313.789062 240.957031 314.9375 243.203125 C 316.078125 245.441406 317.746094 247.492188 319.828125 249.222656 C 323.996094 252.695312 329.828125 254.898438 336.316406 254.9375 L 436.03125 255.53125 L 436.207031 255.53125 C 436.210938 255.53125 436.210938 255.53125 436.210938 255.53125 C 441.058594 255.53125 445.546875 254.316406 449.25 252.261719 C 452.957031 250.203125 455.867188 247.308594 457.597656 243.957031 C 458.75 241.726562 459.386719 239.292969 459.402344 236.730469 L 459.660156 193.667969 L 462.789062 193.695312 L 462.53125 236.75 C 462.515625 239.824219 461.746094 242.757812 460.375 245.398438 C 459.007812 248.039062 457.054688 250.390625 454.667969 252.355469 C 449.882812 256.277344 443.367188 258.660156 436.207031 258.660156 "/>
<path style=" stroke:none;fill-rule:nonzero;fill:rgb(89.411765%,97.647059%,98.039216%);fill-opacity:1;" d="M 422.664062 200.953125 L 415.730469 200.910156 L 415.746094 197.78125 L 422.683594 197.824219 L 422.664062 200.953125 M 408.792969 200.871094 L 401.855469 200.828125 L 401.875 197.699219 L 408.808594 197.738281 L 408.792969 200.871094 M 394.917969 200.785156 L 387.980469 200.746094 L 388 197.617188 L 394.9375 197.652344 L 394.917969 200.785156 M 381.042969 200.703125 L 374.105469 200.664062 L 374.125 197.53125 L 381.0625 197.574219 L 381.042969 200.703125 M 367.167969 200.621094 L 360.234375 200.582031 L 360.25 197.453125 L 367.1875 197.492188 L 367.167969 200.621094 M 353.296875 200.539062 L 346.359375 200.5 L 346.378906 197.363281 L 353.3125 197.410156 L 353.296875 200.539062 "/>
<path style=" stroke:none;fill-rule:nonzero;fill:rgb(89.411765%,97.647059%,98.039216%);fill-opacity:1;" d="M 407.980469 225.699219 L 401.046875 225.65625 L 401.066406 222.527344 L 408.003906 222.570312 L 407.980469 225.699219 M 394.113281 225.617188 L 387.175781 225.574219 L 387.191406 222.445312 L 394.128906 222.488281 L 394.113281 225.617188 M 380.238281 225.535156 L 373.300781 225.492188 L 373.320312 222.363281 L 380.253906 222.40625 L 380.238281 225.535156 M 366.363281 225.453125 L 359.425781 225.410156 L 359.445312 222.28125 L 366.382812 222.320312 L 366.363281 225.453125 M 352.488281 225.367188 L 345.550781 225.328125 L 345.570312 222.199219 L 352.507812 222.238281 L 352.488281 225.367188 "/>
<path style=" stroke:none;fill-rule:nonzero;fill:rgb(81.176471%,95.294118%,96.470588%);fill-opacity:1;" d="M 449.488281 369.578125 C 449.457031 369.578125 449.425781 369.578125 449.390625 369.578125 L 322.238281 368.511719 C 316.0625 368.457031 311.097656 363.40625 311.148438 357.226562 L 311.558594 308.011719 C 311.609375 301.863281 316.613281 296.914062 322.742188 296.914062 C 322.777344 296.914062 322.808594 296.914062 322.839844 296.914062 L 449.996094 297.988281 C 456.171875 298.039062 461.140625 303.09375 461.089844 309.269531 L 460.675781 358.488281 C 460.621094 364.632812 455.625 369.578125 449.488281 369.578125 "/>
<path style=" stroke:none;fill-rule:nonzero;fill:rgb(57.254902%,100%,86.666667%);fill-opacity:1;" d="M 396.511719 613.21875 L 371.132812 613.050781 C 368.929688 613.035156 367.152344 611.234375 367.164062 609.03125 L 367.183594 606.515625 C 367.199219 604.3125 369 602.535156 371.203125 602.550781 L 396.582031 602.722656 C 398.785156 602.734375 400.5625 604.535156 400.550781 606.738281 L 400.53125 609.253906 C 400.515625 611.457031 398.714844 613.230469 396.511719 613.21875 "/>
<path style=" stroke:none;fill-rule:nonzero;fill:rgb(0%,26.27451%,50.588235%);fill-opacity:1;" d="M 201.585938 536.160156 L 123.683594 545.71875 C 123.683594 545.71875 229.136719 613.769531 250.871094 613.769531 C 274.890625 613.769531 353.722656 575.578125 353.722656 575.578125 L 290.597656 534.816406 L 201.585938 536.160156 "/>
<path style=" stroke:none;fill-rule:nonzero;fill:rgb(0%,81.568627%,73.72549%);fill-opacity:1;" d="M 286.636719 474.9375 L 322.859375 527.234375 C 322.859375 527.234375 315.421875 539.742188 315.007812 542.804688 C 312.109375 564.183594 324.957031 567.132812 331.636719 564.390625 C 343.253906 559.613281 361.125 530.222656 359.164062 525.066406 C 346.320312 491.28125 333.71875 459.152344 318.847656 427.15625 C 316.570312 422.257812 312.34375 410.277344 309.207031 413.433594 C 301.621094 421.097656 286.59375 487.3125 286.636719 474.9375 "/>
<path style=" stroke:none;fill-rule:nonzero;fill:rgb(0%,81.568627%,73.72549%);fill-opacity:1;" d="M 220.023438 473.433594 L 178.789062 515.09375 C 178.789062 515.09375 186.65625 525.984375 183.175781 538.121094 C 182.378906 540.902344 175.707031 549.542969 168 550.132812 C 155.078125 551.125 136.449219 528.585938 139.820312 512.300781 C 147.128906 477.011719 172.722656 453.695312 186.957031 421.429688 C 190.148438 414.199219 197.148438 404.882812 199.917969 407.46875 C 207.816406 414.835938 220.066406 485.804688 220.023438 473.433594 "/>
<path style=" stroke:none;fill-rule:nonzero;fill:rgb(0%,26.27451%,50.588235%);fill-opacity:1;" d="M 103.761719 569.011719 L 102.367188 590.460938 C 102.367188 590.460938 142.757812 618.535156 162.335938 626.386719 C 169.960938 629.441406 234.261719 637.996094 234.261719 637.996094 L 240.527344 612.429688 L 103.761719 569.011719 "/>
<path style=" stroke:none;fill-rule:nonzero;fill:rgb(100%,81.568627%,80.784314%);fill-opacity:1;" d="M 244.4375 605.507812 L 315.417969 625.796875 L 315.140625 649.277344 C 315.140625 649.277344 282.113281 647.902344 272.132812 646.96875 C 265.785156 646.378906 235.941406 641.8125 235.941406 641.8125 L 244.4375 605.507812 "/>
<path style=" stroke:none;fill-rule:nonzero;fill:rgb(100%,81.568627%,80.784314%);fill-opacity:1;" d="M 246.492188 606.972656 L 190.035156 628.054688 L 192.410156 649.40625 C 192.410156 649.40625 219.421875 646.9375 227.535156 645.71875 C 232.695312 644.945312 256.800781 639.6875 256.800781 639.6875 L 246.492188 606.972656 "/>
<path style=" stroke:none;fill-rule:nonzero;fill:rgb(0%,22.352941%,46.666667%);fill-opacity:1;" d="M 295.679688 624.222656 C 295.679688 624.222656 311.332031 625.277344 318.84375 623.332031 C 322.84375 622.296875 330.691406 617.511719 334.351562 617.707031 C 343.75 618.207031 350.199219 634.464844 351.109375 640.054688 C 351.789062 644.207031 344.390625 650.996094 340.046875 650.871094 C 319.707031 650.289062 295.84375 648.78125 295.84375 648.78125 L 297.53125 643.347656 C 298.523438 640.15625 298.644531 636.769531 297.875 633.515625 L 295.679688 624.222656 "/>
<path style=" stroke:none;fill-rule:nonzero;fill:rgb(0%,22.352941%,46.666667%);fill-opacity:1;" d="M 167.5625 652.648438 C 169.433594 653.460938 174.707031 653.519531 176.710938 653.089844 C 183.585938 651.605469 202.605469 648.605469 202.605469 648.605469 C 196.769531 644.867188 193.9375 638.03125 195.480469 631.429688 L 196.792969 625.847656 L 183.84375 620.75 C 183.84375 620.75 173.074219 624.300781 168.648438 631.238281 C 159.53125 645.519531 163.375 650.835938 167.5625 652.648438 "/>
<path style=" stroke:none;fill-rule:nonzero;fill:rgb(100%,78.039216%,76.862745%);fill-opacity:1;" d="M 265.730469 356.472656 L 240.625 366.527344 C 239.878906 366.523438 238.023438 380.886719 238.015625 381.601562 L 236.976562 406.273438 C 236.902344 414.238281 244.347656 420.589844 252.597656 420.664062 C 260.855469 420.734375 268.757812 414.492188 268.832031 406.523438 L 267.070312 357.785156 C 267.074219 357.066406 266.476562 356.480469 265.730469 356.472656 "/>
<path style=" stroke:none;fill-rule:nonzero;fill:rgb(20.392157%,91.764706%,74.509804%);fill-opacity:1;" d="M 194.523438 412.21875 C 198.59375 405.296875 233.78125 396.027344 233.78125 396.027344 L 252.773438 415.917969 L 280.023438 396.667969 C 280.023438 396.667969 306.898438 406.960938 312.539062 416.816406 C 317.445312 425.386719 312.925781 464.773438 308.492188 492.953125 C 303.546875 524.453125 304.171875 545.882812 303.03125 547.597656 C 299.921875 552.265625 291.453125 553.78125 286.011719 554.917969 C 270.363281 558.191406 199.363281 560.035156 196.339844 542.714844 C 194.050781 529.636719 197.140625 499.734375 195.414062 473.441406 C 194.628906 461.550781 190.707031 418.714844 194.523438 412.21875 "/>
<path style=" stroke:none;fill-rule:nonzero;fill:rgb(0%,81.568627%,73.72549%);fill-opacity:1;" d="M 252.625 415.796875 L 260.113281 430.015625 C 270.902344 420.628906 294.226562 400.382812 294.226562 400.382812 L 278.082031 389.992188 L 252.625 415.796875 "/>
<path style=" stroke:none;fill-rule:nonzero;fill:rgb(0%,81.568627%,73.72549%);fill-opacity:1;" d="M 252.847656 415.734375 L 244.886719 429.953125 C 234.097656 420.5625 221.109375 399.105469 221.109375 399.105469 L 234.257812 391.171875 L 252.847656 415.734375 "/>
<path style=" stroke:none;fill-rule:nonzero;fill:rgb(0%,39.215686%,62.352941%);fill-opacity:1;" d="M 283.667969 391.296875 C 296.851562 435.148438 274.996094 469.210938 274.996094 469.210938 L 254.289062 471.007812 C 254.289062 471.007812 271.480469 433.457031 268.613281 398.445312 C 268.515625 397.265625 268.269531 392.257812 268.519531 391.152344 C 270.414062 382.804688 273.488281 375.414062 277.761719 380.285156 C 278.785156 381.441406 282.929688 388.855469 283.667969 391.296875 "/>
<path style=" stroke:none;fill-rule:nonzero;fill:rgb(0%,39.215686%,62.352941%);fill-opacity:1;" d="M 282.730469 321.011719 C 293.589844 332.136719 296.453125 357.507812 286.089844 368.53125 C 277.125 378.0625 242.917969 379.132812 240.105469 378.726562 C 210.277344 374.421875 213.757812 344.433594 220.347656 332.328125 C 231.429688 311.980469 262.460938 300.253906 282.730469 321.011719 "/>
<path style=" stroke:none;fill-rule:nonzero;fill:rgb(100%,78.039216%,76.862745%);fill-opacity:1;" d="M 276.832031 367.761719 C 276.664062 364.085938 279.582031 360.980469 283.347656 360.816406 C 287.113281 360.65625 290.308594 363.503906 290.472656 367.179688 C 290.644531 370.847656 287.722656 373.960938 283.957031 374.121094 C 280.191406 374.28125 277.003906 371.4375 276.832031 367.761719 "/>
<path style=" stroke:none;fill-rule:nonzero;fill:rgb(100%,78.039216%,76.862745%);fill-opacity:1;" d="M 229.09375 367.46875 C 229.09375 371.148438 226.039062 374.128906 222.265625 374.128906 C 218.496094 374.128906 215.441406 371.148438 215.441406 367.46875 C 215.441406 363.792969 218.496094 360.808594 222.265625 360.808594 C 226.039062 360.808594 229.09375 363.792969 229.09375 367.46875 "/>
<path style=" stroke:none;fill-rule:nonzero;fill:rgb(100%,81.568627%,80.784314%);fill-opacity:1;" d="M 282.972656 367.761719 C 282.972656 389.714844 267.207031 406.332031 253.492188 406.332031 C 239.015625 406.332031 224.195312 389.714844 224.195312 367.761719 C 224.195312 345.8125 237.355469 328.015625 253.585938 328.015625 C 269.8125 328.015625 282.972656 345.8125 282.972656 367.761719 "/>
<path style=" stroke:none;fill-rule:nonzero;fill:rgb(0%,39.215686%,62.352941%);fill-opacity:1;" d="M 268.832031 329.246094 C 288.292969 337.089844 289.402344 358.199219 288.277344 363.140625 C 287.253906 367.65625 284.085938 370.789062 282.875 370.6875 C 269.175781 369.59375 235.734375 350.550781 235.734375 350.550781 C 235.734375 350.550781 217.046875 364.117188 230.328125 414.328125 C 230.328125 414.328125 219.339844 395.757812 218.777344 370.222656 C 218.066406 337.902344 240.59375 317.867188 268.832031 329.246094 "/>
<path style=" stroke:none;fill-rule:nonzero;fill:rgb(100%,81.568627%,80.784314%);fill-opacity:1;" d="M 281.101562 542.261719 C 281.332031 542.105469 286.5 538.050781 290.25 538.023438 C 297.742188 537.96875 305.4375 543.53125 313.152344 541.464844 C 315.734375 540.773438 320.082031 541.210938 322.503906 542.3125 L 327.519531 544.601562 C 331.402344 546.371094 332.675781 551.183594 330.039062 554.457031 C 327.316406 557.832031 323.484375 561.214844 319.035156 561.25 C 314.515625 561.292969 308.261719 558.265625 303.738281 558.21875 C 301.09375 558.183594 296.828125 562.066406 294.332031 562.910156 C 293.492188 563.191406 291.695312 563.824219 290.847656 563.578125 C 290.492188 563.476562 289.746094 562.628906 289.746094 562.628906 C 289.746094 562.628906 286.992188 564.507812 285.910156 564.636719 C 284.898438 564.761719 281.949219 563.660156 281.949219 563.660156 L 292.984375 551.191406 L 285.21875 554.882812 C 285.21875 554.882812 281.035156 558.628906 279.269531 559.105469 C 277.242188 559.652344 276.105469 558.035156 276.105469 558.035156 L 287.828125 544.402344 C 287.828125 544.402344 278.722656 548.722656 275.839844 548.136719 C 274.554688 547.878906 272.765625 546.441406 272.765625 546.441406 L 281.101562 542.261719 "/>
<path style=" stroke:none;fill-rule:nonzero;fill:rgb(100%,81.568627%,80.784314%);fill-opacity:1;" d="M 203.882812 515.390625 C 203.605469 515.371094 197.023438 514.355469 193.769531 516.140625 C 187.253906 519.714844 183.46875 528.246094 175.714844 530.183594 C 173.125 530.832031 169.585938 533.308594 168.058594 535.429688 L 164.902344 539.835938 C 162.453125 543.25 163.84375 548.027344 167.824219 549.589844 C 171.925781 551.199219 176.992188 552.273438 180.863281 550.164062 C 184.804688 548.011719 188.652344 542.371094 192.542969 540.140625 C 194.820312 538.839844 200.515625 540.136719 203.121094 539.664062 C 203.988281 539.503906 205.871094 539.183594 206.480469 538.5625 C 206.738281 538.300781 206.945312 537.210938 206.945312 537.210938 C 206.945312 537.210938 210.304688 537.503906 211.308594 537.09375 C 212.246094 536.707031 214.230469 534.332031 214.230469 534.332031 L 198.222656 528.867188 L 206.855469 528.304688 C 206.855469 528.304688 212.414062 529.535156 214.195312 529.09375 C 216.234375 528.585938 216.382812 526.636719 216.382812 526.636719 L 199.167969 520.496094 C 199.167969 520.496094 209.292969 519.835938 211.484375 517.9375 C 212.460938 517.09375 213.269531 514.988281 213.269531 514.988281 L 203.882812 515.390625 "/>
<path style=" stroke:none;fill-rule:nonzero;fill:rgb(44.313725%,91.764706%,92.54902%);fill-opacity:1;" d="M 187.160156 500.632812 L 317.433594 504.15625 C 319.929688 504.222656 321.785156 506.175781 321.390625 508.304688 L 307.691406 582.222656 L 182.835938 577.222656 L 182.890625 504.210938 C 182.894531 502.183594 184.828125 500.566406 187.160156 500.632812 "/>
<path style=" stroke:none;fill-rule:nonzero;fill:rgb(0%,39.215686%,62.352941%);fill-opacity:1;" d="M 94.46875 564.207031 C 91.996094 571.015625 96.222656 587.070312 101.390625 592.277344 C 114.019531 605.019531 167.273438 622.757812 167.273438 622.757812 L 258.910156 649.554688 L 275.148438 621.742188 L 156.753906 554.3125 C 156.753906 554.3125 130.984375 542.808594 121.878906 543.621094 C 113.230469 544.390625 97.347656 556.296875 94.46875 564.207031 "/>
<path style=" stroke:none;fill-rule:nonzero;fill:rgb(0%,39.215686%,62.352941%);fill-opacity:1;" d="M 240.566406 616.238281 C 240.566406 616.238281 316.667969 574.605469 353.320312 550.996094 C 361.824219 545.515625 387.179688 552.621094 392.933594 560.78125 C 398.210938 568.261719 394.125 589.628906 388.273438 596.707031 C 368.695312 620.394531 259.710938 634.207031 259.710938 634.207031 L 240.566406 616.238281 "/>
<path style=" stroke:none;fill-rule:nonzero;fill:rgb(74.117647%,100%,84.705882%);fill-opacity:1;" d="M 255.800781 527.4375 C 255.800781 529.726562 253.65625 530.777344 251.015625 530.777344 C 248.371094 530.777344 246.226562 529.726562 246.226562 527.4375 C 246.226562 525.148438 248.371094 524.011719 251.015625 524.011719 C 253.65625 524.011719 255.800781 525.148438 255.800781 527.4375 "/>
<path style=" stroke:none;fill-rule:nonzero;fill:rgb(86.27451%,96.078431%,97.647059%);fill-opacity:1;" d="M 185.757812 24.300781 C 185.894531 24.15625 186.078125 24.078125 186.265625 24.078125 C 186.4375 24.078125 186.609375 24.140625 186.742188 24.265625 C 187.023438 24.527344 187.042969 24.96875 186.78125 25.25 C 186.519531 25.527344 186.074219 25.546875 185.796875 25.285156 C 185.511719 25.023438 185.496094 24.582031 185.757812 24.300781 Z M 187 30.738281 C 185.691406 32.679688 185.710938 35.210938 187.042969 37.117188 L 185.8125 38.4375 L 172.671875 26.222656 L 173.894531 24.90625 C 175.945312 26.261719 178.601562 26.152344 180.515625 24.644531 L 183.164062 22.566406 C 182.070312 24.105469 182.238281 26.257812 183.660156 27.578125 C 184.398438 28.261719 185.332031 28.597656 186.265625 28.597656 C 187.292969 28.597656 188.320312 28.191406 189.070312 27.378906 C 190.503906 25.835938 190.417969 23.40625 188.875 21.972656 C 187.761719 20.933594 186.1875 20.703125 184.859375 21.230469 L 187.167969 19.414062 C 187.480469 19.167969 187.800781 18.9375 188.128906 18.710938 L 192.398438 22.683594 C 192.195312 23.027344 191.984375 23.367188 191.761719 23.699219 Z M 194.789062 15.84375 C 194.578125 16.917969 194.195312 18.433594 193.816406 19.722656 L 190.976562 17.085938 C 192.261719 16.609375 193.730469 16.128906 194.789062 15.84375 Z M 197.480469 12.957031 C 196.882812 12.402344 196.1875 11.8125 189.859375 14.160156 L 189.757812 14.203125 C 188.148438 14.9375 186.628906 15.859375 185.234375 16.953125 L 178.582031 22.183594 C 177.726562 22.859375 176.542969 22.910156 175.636719 22.308594 L 175.386719 22.136719 C 174.238281 21.382812 172.730469 21.5625 171.796875 22.566406 L 169.3125 25.234375 C 168.726562 25.867188 168.765625 26.859375 169.394531 27.449219 L 173.199219 30.980469 C 172.929688 31.058594 172.671875 31.203125 172.464844 31.421875 L 168.617188 35.5625 C 168.027344 36.195312 168.0625 37.183594 168.695312 37.777344 C 168.996094 38.054688 169.378906 38.195312 169.761719 38.195312 C 170.179688 38.195312 170.601562 38.023438 170.910156 37.695312 L 174.757812 33.554688 C 174.964844 33.332031 175.085938 33.066406 175.140625 32.792969 L 176.117188 33.695312 C 175.84375 33.773438 175.589844 33.914062 175.386719 34.132812 L 168.003906 42.070312 C 167.417969 42.703125 167.453125 43.691406 168.085938 44.28125 C 168.386719 44.5625 168.769531 44.699219 169.152344 44.699219 C 169.570312 44.699219 169.992188 44.535156 170.300781 44.199219 L 177.675781 36.265625 C 177.882812 36.042969 178.003906 35.777344 178.0625 35.503906 L 179.082031 36.453125 C 178.808594 36.527344 178.554688 36.671875 178.347656 36.890625 L 174.496094 41.03125 C 173.910156 41.667969 173.945312 42.65625 174.578125 43.242188 C 174.882812 43.523438 175.261719 43.664062 175.644531 43.664062 C 176.0625 43.664062 176.480469 43.496094 176.792969 43.164062 L 180.640625 39.023438 C 180.847656 38.804688 180.96875 38.539062 181.023438 38.261719 L 184.828125 41.792969 C 185.117188 42.066406 185.5 42.214844 185.894531 42.214844 L 185.949219 42.214844 C 186.367188 42.199219 186.757812 42.019531 187.042969 41.71875 L 189.523438 39.046875 C 190.460938 38.042969 190.527344 36.527344 189.691406 35.433594 C 189.019531 34.578125 188.984375 33.390625 189.59375 32.488281 L 194.359375 25.453125 C 195.351562 23.964844 196.164062 22.390625 196.769531 20.765625 L 196.800781 20.664062 C 198.730469 14.121094 198.066406 13.5 197.480469 12.957031 "/>
<path style=" stroke:none;fill-rule:nonzero;fill:rgb(86.27451%,96.078431%,97.647059%);fill-opacity:1;" d="M 79.074219 220.925781 C 78.789062 220.925781 78.5 220.847656 78.242188 220.683594 L 70.796875 216.023438 C 70.066406 215.5625 69.839844 214.597656 70.304688 213.863281 C 70.761719 213.128906 71.722656 212.910156 72.457031 213.367188 L 79.90625 218.027344 C 80.640625 218.488281 80.859375 219.453125 80.402344 220.1875 C 80.105469 220.664062 79.59375 220.925781 79.074219 220.925781 "/>
<path style=" stroke:none;fill-rule:nonzero;fill:rgb(86.27451%,96.078431%,97.647059%);fill-opacity:1;" d="M 50.410156 220.925781 C 49.878906 220.925781 49.359375 220.652344 49.066406 220.164062 C 48.617188 219.425781 48.855469 218.464844 49.597656 218.015625 L 57.324219 213.355469 C 58.0625 212.910156 59.023438 213.148438 59.472656 213.886719 C 59.917969 214.628906 59.679688 215.589844 58.941406 216.035156 L 51.214844 220.695312 C 50.964844 220.851562 50.683594 220.925781 50.410156 220.925781 "/>
<path style=" stroke:none;fill-rule:nonzero;fill:rgb(86.27451%,96.078431%,97.647059%);fill-opacity:1;" d="M 64.835938 212.4375 C 64.265625 212.4375 63.695312 212.261719 63.207031 211.902344 L 49.472656 201.753906 C 48.78125 201.242188 48.636719 200.261719 49.148438 199.566406 C 49.660156 198.871094 50.640625 198.726562 51.335938 199.238281 L 64.835938 209.214844 L 78.335938 199.238281 C 79.03125 198.726562 80.011719 198.871094 80.527344 199.566406 C 81.039062 200.261719 80.890625 201.242188 80.195312 201.753906 L 66.464844 211.902344 C 65.976562 212.261719 65.40625 212.4375 64.835938 212.4375 "/>
<path style=" stroke:none;fill-rule:nonzero;fill:rgb(86.27451%,96.078431%,97.647059%);fill-opacity:1;" d="M 51.972656 218.472656 L 77.699219 218.472656 L 77.699219 202.0625 L 51.972656 202.0625 Z M 79.265625 221.601562 L 50.402344 221.601562 C 49.542969 221.601562 48.84375 220.902344 48.84375 220.039062 L 48.84375 200.5 C 48.84375 199.632812 49.542969 198.929688 50.402344 198.929688 L 79.265625 198.929688 C 80.132812 198.929688 80.828125 199.632812 80.828125 200.5 L 80.828125 220.039062 C 80.828125 220.902344 80.132812 221.601562 79.265625 221.601562 "/>
<path style=" stroke:none;fill-rule:nonzero;fill:rgb(86.27451%,96.078431%,97.647059%);fill-opacity:1;" d="M 568.164062 84.367188 C 567.738281 84.636719 567.46875 85.09375 567.441406 85.597656 C 567.410156 86.171875 567.308594 86.738281 567.148438 87.292969 C 567 87.777344 567.101562 88.300781 567.417969 88.699219 L 568.582031 90.183594 L 568.066406 90.996094 L 566.230469 90.582031 C 565.734375 90.46875 565.21875 90.605469 564.84375 90.941406 C 564.410156 91.320312 563.941406 91.65625 563.429688 91.933594 C 562.992188 92.175781 562.695312 92.617188 562.632812 93.117188 L 562.40625 94.992188 L 561.46875 95.203125 L 560.460938 93.605469 C 560.195312 93.179688 559.734375 92.910156 559.230469 92.882812 C 558.65625 92.847656 558.089844 92.75 557.535156 92.589844 C 557.390625 92.542969 557.242188 92.527344 557.09375 92.527344 C 556.75 92.527344 556.40625 92.640625 556.128906 92.859375 L 554.648438 94.019531 L 553.832031 93.507812 L 554.25 91.667969 C 554.359375 91.179688 554.226562 90.660156 553.890625 90.285156 C 553.507812 89.859375 553.171875 89.382812 552.894531 88.875 C 552.648438 88.433594 552.210938 88.136719 551.710938 88.078125 L 549.839844 87.851562 L 549.628906 86.914062 L 551.21875 85.90625 C 551.648438 85.640625 551.917969 85.179688 551.949219 84.675781 C 551.980469 84.101562 552.082031 83.527344 552.242188 82.972656 C 552.382812 82.492188 552.285156 81.96875 551.972656 81.570312 L 550.808594 80.085938 L 551.320312 79.273438 L 553.164062 79.6875 C 553.652344 79.796875 554.167969 79.667969 554.546875 79.328125 C 554.980469 78.945312 555.453125 78.609375 555.953125 78.339844 C 556.398438 78.097656 556.695312 77.652344 556.753906 77.152344 L 556.980469 75.285156 L 557.917969 75.074219 L 558.925781 76.664062 C 559.199219 77.089844 559.65625 77.359375 560.160156 77.390625 C 560.726562 77.421875 561.300781 77.519531 561.859375 77.683594 C 562.339844 77.828125 562.863281 77.726562 563.261719 77.414062 L 564.742188 76.25 L 565.558594 76.765625 L 565.140625 78.601562 C 565.03125 79.089844 565.164062 79.609375 565.496094 79.984375 C 565.882812 80.414062 566.21875 80.890625 566.492188 81.394531 C 566.734375 81.839844 567.179688 82.132812 567.679688 82.199219 L 569.546875 82.421875 L 569.757812 83.363281 Z M 572.355469 80.652344 C 572.210938 80.007812 571.675781 79.523438 571.019531 79.445312 L 568.808594 79.179688 C 568.667969 78.964844 568.515625 78.753906 568.363281 78.546875 L 568.851562 76.375 C 569 75.726562 568.722656 75.058594 568.164062 74.707031 L 565.484375 73.011719 C 564.925781 72.660156 564.199219 72.695312 563.679688 73.101562 L 561.929688 74.476562 C 561.675781 74.421875 561.417969 74.382812 561.164062 74.34375 L 559.976562 72.464844 C 559.625 71.90625 558.953125 71.632812 558.308594 71.773438 L 555.214844 72.472656 C 554.570312 72.617188 554.085938 73.152344 554.007812 73.8125 L 553.742188 76.015625 C 553.523438 76.160156 553.308594 76.308594 553.105469 76.464844 L 550.9375 75.976562 C 550.289062 75.832031 549.621094 76.109375 549.269531 76.667969 L 547.574219 79.347656 C 547.21875 79.90625 547.257812 80.632812 547.664062 81.148438 L 549.035156 82.898438 C 548.984375 83.15625 548.9375 83.414062 548.902344 83.667969 L 547.023438 84.855469 C 546.464844 85.207031 546.183594 85.878906 546.332031 86.523438 L 547.027344 89.617188 C 547.175781 90.261719 547.710938 90.746094 548.371094 90.824219 L 550.574219 91.089844 C 550.722656 91.3125 550.867188 91.523438 551.023438 91.730469 L 550.539062 93.894531 C 550.390625 94.542969 550.667969 95.210938 551.226562 95.5625 L 553.90625 97.257812 C 554.464844 97.613281 555.1875 97.574219 555.710938 97.167969 L 557.457031 95.792969 C 557.714844 95.847656 557.96875 95.894531 558.226562 95.925781 L 559.414062 97.804688 C 559.703125 98.265625 560.207031 98.53125 560.738281 98.53125 C 560.847656 98.53125 560.964844 98.523438 561.082031 98.496094 L 564.171875 97.800781 C 564.820312 97.652344 565.300781 97.117188 565.382812 96.460938 L 565.648438 94.253906 C 565.863281 94.109375 566.078125 93.960938 566.285156 93.804688 L 568.453125 94.292969 C 569.097656 94.441406 569.769531 94.160156 570.121094 93.601562 L 571.816406 90.921875 C 572.167969 90.363281 572.132812 89.640625 571.726562 89.121094 L 570.351562 87.371094 C 570.40625 87.117188 570.449219 86.863281 570.484375 86.605469 L 572.367188 85.414062 C 572.925781 85.0625 573.199219 84.398438 573.058594 83.746094 L 572.355469 80.652344 "/>
<path style=" stroke:none;fill-rule:nonzero;fill:rgb(86.27451%,96.078431%,97.647059%);fill-opacity:1;" d="M 561.210938 86.09375 C 560.953125 86.5 560.554688 86.78125 560.085938 86.886719 C 559.621094 86.992188 559.136719 86.910156 558.734375 86.652344 C 558.332031 86.394531 558.050781 85.996094 557.945312 85.527344 C 557.839844 85.0625 557.925781 84.582031 558.179688 84.175781 C 558.433594 83.773438 558.832031 83.492188 559.296875 83.386719 C 559.429688 83.355469 559.5625 83.34375 559.695312 83.34375 C 560.03125 83.34375 560.363281 83.433594 560.648438 83.617188 C 561.058594 83.875 561.335938 84.273438 561.441406 84.742188 C 561.546875 85.207031 561.464844 85.691406 561.210938 86.09375 Z M 562.328125 80.976562 C 561.214844 80.269531 559.894531 80.042969 558.609375 80.332031 C 557.328125 80.621094 556.234375 81.390625 555.53125 82.503906 C 554.832031 83.617188 554.601562 84.933594 554.890625 86.214844 C 555.179688 87.5 555.953125 88.59375 557.0625 89.296875 C 557.859375 89.800781 558.761719 90.0625 559.683594 90.0625 C 560.046875 90.0625 560.410156 90.019531 560.777344 89.9375 C 562.0625 89.648438 563.152344 88.878906 563.859375 87.765625 C 564.558594 86.65625 564.789062 85.335938 564.5 84.054688 C 564.210938 82.769531 563.4375 81.675781 562.328125 80.976562 "/>
<path style=" stroke:none;fill-rule:nonzero;fill:rgb(86.27451%,96.078431%,97.647059%);fill-opacity:1;" d="M 580.152344 72.507812 L 579.679688 70.042969 C 579.554688 69.390625 579.03125 68.886719 578.378906 68.785156 L 576.789062 68.542969 C 576.726562 68.449219 576.667969 68.355469 576.605469 68.265625 L 577.011719 66.703125 C 577.175781 66.066406 576.925781 65.386719 576.375 65.011719 L 574.300781 63.601562 C 573.75 63.230469 573.027344 63.242188 572.496094 63.632812 L 571.191406 64.585938 C 571.082031 64.5625 570.972656 64.539062 570.863281 64.519531 L 570.046875 63.128906 C 569.714844 62.554688 569.058594 62.257812 568.40625 62.382812 L 565.9375 62.851562 C 565.285156 62.976562 564.789062 63.5 564.6875 64.15625 L 564.4375 65.746094 C 564.34375 65.804688 564.25 65.863281 564.160156 65.929688 L 562.601562 65.519531 C 561.960938 65.355469 561.28125 65.613281 560.910156 66.15625 L 559.5 68.238281 C 559.128906 68.78125 559.136719 69.507812 559.53125 70.039062 L 560.929688 71.949219 C 561.4375 72.648438 562.417969 72.800781 563.113281 72.289062 C 563.816406 71.777344 563.96875 70.796875 563.453125 70.101562 L 562.707031 69.082031 L 562.882812 68.828125 L 564.101562 69.148438 C 564.589844 69.273438 565.109375 69.164062 565.496094 68.835938 C 565.832031 68.558594 566.195312 68.320312 566.574219 68.128906 C 567.027344 67.902344 567.339844 67.46875 567.417969 66.96875 L 567.609375 65.722656 L 567.90625 65.667969 L 568.550781 66.753906 C 568.800781 67.1875 569.25 67.476562 569.753906 67.523438 C 570.179688 67.558594 570.605469 67.644531 571.019531 67.785156 C 571.5 67.9375 572.027344 67.855469 572.429688 67.558594 L 573.453125 66.8125 L 573.703125 66.980469 L 573.382812 68.203125 C 573.253906 68.691406 573.375 69.214844 573.695312 69.601562 C 573.96875 69.933594 574.207031 70.292969 574.40625 70.683594 C 574.632812 71.132812 575.066406 71.445312 575.5625 71.523438 L 576.808594 71.714844 L 576.867188 72.011719 L 575.78125 72.648438 C 575.34375 72.90625 575.054688 73.355469 575.011719 73.859375 C 574.972656 74.285156 574.886719 74.710938 574.75 75.117188 C 574.589844 75.601562 574.675781 76.128906 574.972656 76.535156 L 575.554688 77.328125 L 573.90625 76.871094 C 573.078125 76.640625 572.210938 77.125 571.980469 77.960938 C 571.746094 78.792969 572.238281 79.65625 573.070312 79.890625 L 575.851562 80.660156 C 575.992188 80.699219 576.132812 80.71875 576.273438 80.71875 C 576.726562 80.71875 577.171875 80.515625 577.476562 80.15625 L 578.835938 78.523438 C 579.296875 77.96875 579.320312 77.175781 578.894531 76.59375 L 577.945312 75.296875 C 577.96875 75.1875 577.992188 75.078125 578.015625 74.96875 L 579.402344 74.152344 C 579.976562 73.816406 580.273438 73.15625 580.152344 72.507812 "/>
<path style=" stroke:none;fill-rule:nonzero;fill:rgb(86.27451%,96.078431%,97.647059%);fill-opacity:1;" d="M 142.476562 299.921875 C 141.253906 299.921875 140.035156 300.386719 139.101562 301.320312 C 137.242188 303.179688 137.242188 306.210938 139.101562 308.074219 L 150.699219 319.667969 L 162.289062 308.074219 C 164.148438 306.210938 164.148438 303.179688 162.289062 301.320312 C 160.429688 299.457031 157.394531 299.457031 155.535156 301.320312 L 151.800781 305.054688 C 151.191406 305.664062 150.199219 305.664062 149.589844 305.054688 L 145.855469 301.320312 C 144.925781 300.386719 143.699219 299.921875 142.476562 299.921875 Z M 150.730469 323.414062 C 150.632812 323.378906 150.503906 323.402344 150.398438 323.378906 C 150.089844 323.332031 149.789062 323.191406 149.558594 322.953125 L 136.886719 310.285156 C 133.804688 307.207031 133.804688 302.1875 136.886719 299.105469 C 139.972656 296.023438 144.988281 296.023438 148.066406 299.105469 L 150.699219 301.730469 L 153.324219 299.105469 C 156.40625 296.023438 161.417969 296.023438 164.503906 299.105469 C 167.585938 302.1875 167.585938 307.207031 164.503906 310.285156 L 151.835938 322.953125 C 151.539062 323.246094 151.140625 323.414062 150.730469 323.414062 "/>
<path style=" stroke:none;fill-rule:nonzero;fill:rgb(86.27451%,96.078431%,97.647059%);fill-opacity:1;" d="M 56.835938 50.136719 L 54.285156 48.320312 L 60.738281 39.265625 L 70.222656 45.65625 L 68.472656 48.25 L 61.515625 43.5625 L 56.835938 50.136719 "/>
<path style=" stroke:none;fill-rule:nonzero;fill:rgb(86.27451%,96.078431%,97.647059%);fill-opacity:1;" d="M 162.792969 157.933594 L 169.507812 158.894531 L 170.417969 152.5 L 163.710938 151.535156 Z M 172.160156 162.4375 L 159.253906 160.585938 L 161.054688 147.996094 L 173.964844 149.839844 L 172.160156 162.4375 "/>
<path style=" stroke:none;fill-rule:nonzero;fill:rgb(86.27451%,96.078431%,97.647059%);fill-opacity:1;" d="M 629.320312 183.921875 L 628.820312 180.832031 L 633.425781 180.085938 L 633.925781 183.175781 L 629.320312 183.921875 "/>
<path style=" stroke:none;fill-rule:nonzero;fill:rgb(86.27451%,96.078431%,97.647059%);fill-opacity:1;" d="M 633.917969 178.902344 L 633.1875 174.386719 L 636.277344 173.886719 L 637.007812 178.40625 L 633.917969 178.902344 "/>
<path style=" stroke:none;fill-rule:nonzero;fill:rgb(86.27451%,96.078431%,97.647059%);fill-opacity:1;" d="M 638.953125 182.363281 L 638.457031 179.269531 L 642.8125 178.566406 L 643.3125 181.65625 L 638.953125 182.363281 "/>
<path style=" stroke:none;fill-rule:nonzero;fill:rgb(86.27451%,96.078431%,97.647059%);fill-opacity:1;" d="M 635.519531 188.78125 L 634.746094 184.003906 L 637.835938 183.503906 L 638.605469 188.28125 L 635.519531 188.78125 "/>
<path style=" stroke:none;fill-rule:nonzero;fill:rgb(86.27451%,96.078431%,97.647059%);fill-opacity:1;" d="M 376.859375 30.628906 C 376.152344 30.628906 375.453125 30.824219 374.835938 31.210938 C 373.964844 31.75 373.355469 32.597656 373.125 33.597656 C 372.644531 35.664062 373.933594 37.730469 375.996094 38.210938 C 378.0625 38.691406 380.128906 37.40625 380.609375 35.34375 C 381.089844 33.277344 379.796875 31.210938 377.734375 30.730469 C 377.445312 30.660156 377.148438 30.628906 376.859375 30.628906 Z M 376.867188 41.441406 C 376.34375 41.441406 375.816406 41.382812 375.285156 41.261719 C 371.542969 40.386719 369.203125 36.636719 370.074219 32.890625 C 370.496094 31.078125 371.601562 29.535156 373.179688 28.554688 C 374.761719 27.566406 376.632812 27.257812 378.445312 27.683594 C 382.1875 28.554688 384.527344 32.304688 383.65625 36.050781 C 382.910156 39.265625 380.035156 41.441406 376.867188 41.441406 "/>
<path style=" stroke:none;fill-rule:nonzero;fill:rgb(86.27451%,96.078431%,97.647059%);fill-opacity:1;" d="M 36.648438 491.796875 L 43.363281 492.761719 L 44.277344 486.363281 L 37.566406 485.402344 Z M 46.019531 496.300781 L 33.109375 494.449219 L 34.914062 481.859375 L 47.820312 483.707031 L 46.019531 496.300781 "/>
</g>
</svg>
