<?xml version="1.0" encoding="UTF-8"?>
<svg xmlns="http://www.w3.org/2000/svg" xmlns:xlink="http://www.w3.org/1999/xlink" width="667pt" height="667pt" viewBox="0 0 667 667" version="1.1">
<g id="surface1">
<path style=" stroke:none;fill-rule:nonzero;fill:rgb(89.019608%,92.941176%,96.078431%);fill-opacity:1;" d="M 613.527344 592.179688 L 50.132812 592.179688 L 50.132812 600.582031 L 613.527344 600.582031 L 613.527344 592.179688 "/>
<path style=" stroke:none;fill-rule:nonzero;fill:rgb(74.117647%,100%,84.705882%);fill-opacity:1;" d="M 84.628906 550.511719 C 84.628906 550.511719 100.195312 510.53125 150.898438 491.691406 C 190.734375 476.894531 248.125 513.480469 248.125 513.480469 C 248.125 513.480469 198.125 537.34375 168.503906 537.605469 C 124.617188 537.992188 84.628906 550.511719 84.628906 550.511719 "/>
<path style=" stroke:none;fill-rule:nonzero;fill:rgb(86.27451%,96.078431%,97.647059%);fill-opacity:1;" d="M 136.589844 362.9375 C 136.589844 362.9375 160.957031 406.855469 206.003906 452.738281 C 256.664062 504.335938 236.628906 542.859375 236.628906 542.859375 C 236.628906 542.859375 156.011719 535.132812 130.953125 478.855469 C 111.015625 434.082031 136.589844 362.9375 136.589844 362.9375 "/>
<path style=" stroke:none;fill-rule:nonzero;fill:rgb(73.72549%,96.862745%,88.627451%);fill-opacity:1;" d="M 535.574219 274.84375 C 535.410156 274 534.59375 273.449219 533.75 273.613281 C 532.902344 273.777344 532.351562 274.59375 532.515625 275.4375 C 532.558594 275.660156 536.855469 298.144531 536.765625 333.359375 C 536.683594 365.882812 532.726562 416.171875 514.355469 471.03125 C 497.941406 520.054688 473.378906 552.246094 449.355469 571.9375 L 465.972656 571.9375 C 486.988281 552.351562 506.46875 524.664062 522.847656 475.753906 C 541.347656 420.5 542.382812 364.394531 542.46875 331.640625 C 542.558594 296.125 535.617188 275.070312 535.574219 274.84375 "/>
<path style=" stroke:none;fill-rule:nonzero;fill:rgb(73.72549%,96.862745%,88.627451%);fill-opacity:1;" d="M 538.683594 376.714844 C 536.46875 358.570312 545.566406 325.183594 565.140625 310.898438 C 581.839844 298.707031 589.96875 285.578125 589.96875 285.578125 C 589.96875 285.578125 593.605469 300.351562 591.984375 318.363281 C 590.890625 330.472656 581.261719 345.757812 569.671875 351.175781 C 549.0625 360.808594 538.683594 376.714844 538.683594 376.714844 "/>
<path style=" stroke:none;fill-rule:nonzero;fill:rgb(73.72549%,96.862745%,88.627451%);fill-opacity:1;" d="M 536.785156 296.609375 C 527.464844 274.328125 515.964844 261.101562 518.941406 238.1875 C 521.191406 220.84375 518.277344 199.34375 518.277344 199.34375 C 518.277344 199.34375 532.738281 209.179688 542.066406 222.496094 C 550.496094 234.519531 552.433594 249.910156 548.28125 262.398438 C 545.289062 271.398438 536.785156 296.609375 536.785156 296.609375 "/>
<path style=" stroke:none;fill-rule:nonzero;fill:rgb(73.72549%,96.862745%,88.627451%);fill-opacity:1;" d="M 519.363281 479.714844 C 528.527344 451.695312 538.355469 402.035156 559.40625 382.855469 C 583.429688 360.972656 597.691406 361.167969 609.566406 345.925781 C 609.566406 345.925781 610.382812 360.496094 607.636719 384.792969 C 605.15625 406.734375 591.082031 446.480469 568.46875 453.710938 C 540.269531 462.730469 519.363281 479.714844 519.363281 479.714844 "/>
<path style=" stroke:none;fill-rule:nonzero;fill:rgb(73.72549%,96.862745%,88.627451%);fill-opacity:1;" d="M 491.953125 253.90625 C 506.765625 282.394531 545.171875 309.023438 537.304688 365.359375 C 537.304688 365.359375 523.332031 346.074219 511.519531 339.082031 C 494.246094 328.855469 487.675781 309.148438 487.390625 289.375 C 487.179688 275.128906 491.953125 253.90625 491.953125 253.90625 "/>
<path style=" stroke:none;fill-rule:nonzero;fill:rgb(73.72549%,96.862745%,88.627451%);fill-opacity:1;" d="M 617.75 489.65625 C 579.5 516.441406 581.726562 532.679688 523.265625 544.535156 C 483.492188 552.601562 471.40625 569.710938 471.40625 569.710938 C 471.40625 569.710938 490.855469 533.628906 506.445312 514.386719 C 516.554688 501.90625 532.195312 487.019531 564.523438 482.539062 C 585.503906 479.628906 617.75 489.65625 617.75 489.65625 "/>
<path style=" stroke:none;fill-rule:nonzero;fill:rgb(73.72549%,96.862745%,88.627451%);fill-opacity:1;" d="M 480.328125 547.558594 C 463.511719 513.734375 453.378906 482.703125 450.921875 463.003906 C 447.214844 433.332031 455.484375 408.886719 455.484375 408.886719 C 455.484375 408.886719 455.539062 414.21875 477.75 428.023438 C 497.808594 440.488281 506.886719 454.972656 508.308594 478.195312 C 509.9375 504.738281 480.328125 547.558594 480.328125 547.558594 "/>
<path style=" stroke:none;fill-rule:nonzero;fill:rgb(73.72549%,96.862745%,88.627451%);fill-opacity:1;" d="M 523.949219 455.320312 C 508.734375 426.773438 485.171875 417.683594 482.710938 385.988281 C 480.726562 360.457031 464.238281 345.925781 464.238281 345.925781 C 464.238281 345.925781 490.648438 348.242188 509.992188 359.515625 C 527.464844 369.699219 529.773438 381.464844 533.324219 401.066406 C 538.171875 427.808594 523.949219 455.320312 523.949219 455.320312 "/>
<path style=" stroke:none;fill-rule:nonzero;fill:rgb(29.019608%,81.176471%,82.745098%);fill-opacity:1;" d="M 304.550781 591.957031 L 470.921875 593.308594 C 475.460938 593.347656 479.171875 589.699219 479.210938 585.160156 L 482.183594 231.398438 C 482.222656 226.859375 478.574219 223.148438 474.035156 223.109375 L 307.664062 221.757812 C 303.125 221.71875 299.414062 225.367188 299.375 229.90625 L 296.402344 583.667969 C 296.363281 588.207031 300.011719 591.917969 304.550781 591.957031 "/>
<path style=" stroke:none;fill-rule:nonzero;fill:rgb(54.901961%,91.764706%,90.588235%);fill-opacity:1;" d="M 293.773438 591.882812 L 460.140625 593.238281 C 464.683594 593.277344 468.394531 589.628906 468.429688 585.089844 L 471.40625 231.328125 C 471.445312 226.789062 467.792969 223.078125 463.253906 223.039062 L 296.882812 221.683594 C 292.347656 221.644531 288.632812 225.292969 288.597656 229.835938 L 285.621094 583.59375 C 285.585938 588.136719 289.234375 591.84375 293.773438 591.882812 "/>
<path style=" stroke:none;fill-rule:nonzero;fill:rgb(91.764706%,97.647059%,98.823529%);fill-opacity:1;" d="M 285.890625 551.957031 L 231.171875 551.511719 L 231.25 542.140625 C 234.664062 542.671875 236.628906 542.859375 236.628906 542.859375 C 236.628906 542.859375 241.667969 533.175781 240.304688 517.015625 C 245.183594 514.882812 248.125 513.480469 248.125 513.480469 C 248.125 513.480469 244.722656 511.3125 239 508.242188 C 237.683594 502.027344 235.40625 495.121094 231.707031 487.65625 L 234.675781 133.304688 L 460.804688 135.144531 L 460.066406 222.996094 L 444.675781 222.871094 L 444.761719 208.203125 L 444.761719 208.105469 C 444.761719 205.484375 444.117188 202.976562 442.964844 200.714844 C 441.234375 197.320312 438.371094 194.472656 434.808594 192.464844 C 431.246094 190.457031 426.972656 189.28125 422.378906 189.253906 L 337.363281 188.75 L 337.199219 188.75 C 331.09375 188.75 325.539062 190.777344 321.464844 194.125 C 319.425781 195.796875 317.757812 197.804688 316.59375 200.054688 C 315.429688 202.308594 314.769531 204.808594 314.757812 207.425781 L 314.671875 221.359375 L 314.277344 221.808594 L 307.664062 221.757812 C 307.640625 221.757812 307.617188 221.757812 307.59375 221.757812 C 307.445312 221.757812 307.300781 221.761719 307.15625 221.765625 L 296.882812 221.683594 C 296.863281 221.683594 296.835938 221.683594 296.816406 221.683594 C 292.308594 221.683594 288.632812 225.316406 288.597656 229.835938 L 288.414062 251.484375 L 286.871094 253.253906 L 288.398438 253.328125 L 287.136719 403.386719 L 270.730469 403.289062 L 270.734375 403.289062 C 270.675781 403.289062 270.617188 403.289062 270.566406 403.289062 C 264.449219 403.289062 258.886719 405.320312 254.804688 408.671875 C 252.761719 410.347656 251.09375 412.359375 249.925781 414.613281 C 248.761719 416.867188 248.101562 419.371094 248.085938 421.996094 L 247.777344 473.472656 L 247.78125 473.46875 L 247.777344 473.570312 C 247.777344 476.195312 248.421875 478.703125 249.578125 480.96875 C 251.3125 484.367188 254.179688 487.222656 257.75 489.234375 C 261.320312 491.246094 265.597656 492.421875 270.199219 492.449219 L 286.386719 492.546875 L 285.890625 551.957031 M 442.007812 222.851562 L 317.339844 221.835938 L 317.425781 207.441406 C 317.4375 205.257812 317.980469 203.1875 318.964844 201.28125 C 320.4375 198.429688 322.917969 195.960938 326.078125 194.207031 C 329.238281 192.449219 333.066406 191.417969 337.199219 191.417969 L 337.347656 191.417969 L 422.363281 191.921875 C 427.890625 191.953125 432.863281 193.835938 436.414062 196.792969 C 438.191406 198.273438 439.613281 200.015625 440.589844 201.929688 C 441.5625 203.839844 442.09375 205.921875 442.09375 208.105469 L 442.09375 208.1875 L 442.007812 222.851562 "/>
<path style=" stroke:none;fill-rule:nonzero;fill:rgb(81.568627%,97.647059%,92.54902%);fill-opacity:1;" d="M 240.304688 517.015625 C 240.070312 514.273438 239.65625 511.34375 239 508.242188 C 244.722656 511.3125 248.125 513.480469 248.125 513.480469 C 248.125 513.480469 245.183594 514.882812 240.304688 517.015625 "/>
<path style=" stroke:none;fill-rule:nonzero;fill:rgb(86.27451%,96.078431%,97.647059%);fill-opacity:1;" d="M 236.628906 542.859375 C 236.628906 542.859375 234.664062 542.671875 231.25 542.140625 L 231.707031 487.65625 C 235.40625 495.121094 237.683594 502.027344 239 508.242188 C 239.65625 511.34375 240.070312 514.273438 240.304688 517.015625 C 241.667969 533.175781 236.628906 542.859375 236.628906 542.859375 "/>
<path style=" stroke:none;fill-rule:nonzero;fill:rgb(63.529412%,90.196078%,91.764706%);fill-opacity:1;" d="M 460.066406 223.011719 L 444.675781 222.886719 L 444.675781 222.871094 L 460.066406 222.996094 L 460.066406 223.011719 M 442.007812 222.863281 L 317.339844 221.851562 L 317.339844 221.835938 L 442.007812 222.851562 L 442.007812 222.863281 M 314.265625 221.824219 L 307.15625 221.765625 C 307.300781 221.761719 307.445312 221.757812 307.59375 221.757812 C 307.617188 221.757812 307.640625 221.757812 307.664062 221.757812 L 314.277344 221.808594 L 314.265625 221.824219 "/>
<path style=" stroke:none;fill-rule:nonzero;fill:rgb(91.764706%,97.647059%,98.823529%);fill-opacity:1;" d="M 286.410156 489.878906 L 270.214844 489.78125 C 264.675781 489.75 259.695312 487.863281 256.136719 484.902344 C 254.355469 483.421875 252.933594 481.671875 251.957031 479.757812 C 250.980469 477.839844 250.449219 475.757812 250.449219 473.570312 L 250.449219 473.480469 L 250.753906 422.011719 C 250.769531 419.824219 251.3125 417.746094 252.296875 415.839844 C 253.773438 412.980469 256.257812 410.507812 259.425781 408.75 C 262.589844 406.992188 266.421875 405.957031 270.5625 405.957031 C 270.5625 405.957031 270.566406 405.957031 270.566406 405.957031 L 270.714844 405.957031 L 287.113281 406.054688 L 286.777344 446.414062 L 282.058594 446.382812 L 282.042969 449.054688 L 286.753906 449.082031 L 286.410156 489.878906 M 274.550781 446.339844 L 274.535156 449.007812 L 276.128906 449.019531 L 276.144531 446.347656 L 274.550781 446.339844 "/>
<path style=" stroke:none;fill-rule:nonzero;fill:rgb(73.72549%,94.509804%,94.901961%);fill-opacity:1;" d="M 457.296875 553.351562 L 285.890625 551.957031 L 286.386719 492.546875 L 355.355469 492.957031 L 355.519531 492.957031 C 361.632812 492.957031 367.195312 490.921875 371.277344 487.574219 C 373.320312 485.894531 374.988281 483.886719 376.15625 481.632812 C 377.324219 479.375 377.984375 476.875 377.996094 474.25 L 378.023438 470.113281 L 405.976562 470.75 L 404.144531 468.503906 L 403.113281 469.347656 L 403.144531 468.015625 L 403.113281 469.347656 L 404.144531 468.503906 L 378.222656 436.742188 L 378.304688 422.769531 L 378.304688 422.675781 C 378.304688 420.050781 377.660156 417.539062 376.503906 415.273438 C 374.769531 411.875 371.902344 409.023438 368.335938 407.011719 C 364.765625 405 360.484375 403.824219 355.886719 403.796875 L 287.136719 403.386719 L 288.398438 253.328125 L 289.621094 253.386719 L 314.472656 254.613281 L 314.449219 258.820312 L 314.449219 258.816406 L 314.449219 258.917969 C 314.449219 261.539062 315.09375 264.042969 316.246094 266.304688 C 317.976562 269.699219 320.839844 272.546875 324.402344 274.558594 C 327.96875 276.566406 332.242188 277.738281 336.835938 277.765625 L 421.847656 278.273438 L 422.011719 278.273438 C 428.117188 278.273438 433.671875 276.242188 437.75 272.898438 C 439.785156 271.222656 441.453125 269.21875 442.617188 266.964844 C 443.785156 264.714844 444.441406 262.214844 444.457031 259.59375 L 444.675781 222.886719 L 460.066406 223.011719 L 457.296875 553.351562 M 325.28125 310.886719 C 320.054688 310.886719 315.789062 315.105469 315.746094 320.347656 L 315.394531 362.304688 C 315.351562 367.574219 319.585938 371.878906 324.851562 371.925781 L 433.253906 372.835938 C 433.28125 372.835938 433.308594 372.835938 433.335938 372.835938 C 438.566406 372.835938 442.828125 368.617188 442.875 363.378906 L 443.226562 321.417969 C 443.269531 316.152344 439.035156 311.84375 433.769531 311.800781 L 325.363281 310.886719 C 325.335938 310.886719 325.308594 310.886719 325.28125 310.886719 M 355.519531 490.289062 L 355.367188 490.289062 L 355.371094 490.289062 L 286.410156 489.878906 L 286.753906 449.082031 L 287.957031 449.089844 L 287.972656 446.421875 L 286.777344 446.414062 L 287.113281 406.054688 L 355.867188 406.464844 C 361.40625 406.496094 366.386719 408.378906 369.945312 411.34375 C 371.726562 412.824219 373.148438 414.570312 374.125 416.488281 C 375.101562 418.402344 375.636719 420.488281 375.636719 422.675781 L 375.636719 422.761719 L 375.636719 422.753906 L 375.546875 437.683594 L 400.246094 467.949219 L 375.371094 467.382812 L 375.328125 474.234375 C 375.316406 476.421875 374.773438 478.496094 373.785156 480.40625 C 372.308594 483.261719 369.824219 485.738281 366.660156 487.496094 C 363.496094 489.25 359.660156 490.289062 355.519531 490.289062 M 341.195312 446.738281 L 341.179688 449.40625 L 347.09375 449.441406 L 347.109375 446.773438 L 341.195312 446.738281 M 329.367188 446.667969 L 329.351562 449.335938 L 335.265625 449.371094 L 335.28125 446.703125 L 329.367188 446.667969 M 317.539062 446.597656 L 317.523438 449.265625 L 323.4375 449.300781 L 323.457031 446.628906 L 317.539062 446.597656 M 305.714844 446.523438 L 305.699219 449.195312 L 311.613281 449.230469 L 311.628906 446.5625 L 305.714844 446.523438 M 293.886719 446.457031 L 293.871094 449.125 L 299.785156 449.160156 L 299.800781 446.488281 L 293.886719 446.457031 M 422.015625 275.605469 C 422.015625 275.605469 422.015625 275.605469 422.011719 275.605469 L 421.863281 275.605469 L 336.851562 275.097656 C 331.320312 275.066406 326.347656 273.1875 322.796875 270.226562 C 321.019531 268.75 319.597656 267.003906 318.625 265.09375 C 317.648438 263.179688 317.117188 261.101562 317.117188 258.917969 L 317.117188 258.835938 L 317.160156 252.074219 L 292.5 250.859375 L 317.335938 222.367188 L 317.339844 221.851562 L 442.007812 222.863281 L 441.789062 259.578125 C 441.773438 261.761719 441.230469 263.835938 440.25 265.738281 C 438.773438 268.59375 436.292969 271.0625 433.132812 272.816406 C 429.976562 274.570312 426.148438 275.605469 422.015625 275.605469 M 392.054688 247.46875 L 392.039062 250.136719 L 397.949219 250.171875 L 397.96875 247.503906 L 392.054688 247.46875 M 380.226562 247.398438 L 380.210938 250.066406 L 386.125 250.101562 L 386.140625 247.433594 L 380.226562 247.398438 M 368.398438 247.328125 L 368.382812 249.996094 L 374.296875 250.03125 L 374.3125 247.363281 L 368.398438 247.328125 M 356.570312 247.257812 L 356.554688 249.925781 L 362.46875 249.960938 L 362.484375 247.292969 L 356.570312 247.257812 M 344.742188 247.1875 L 344.726562 249.855469 L 350.640625 249.890625 L 350.65625 247.222656 L 344.742188 247.1875 M 404.570312 226.371094 L 404.554688 229.039062 L 410.46875 229.074219 L 410.484375 226.40625 L 404.570312 226.371094 M 392.742188 226.300781 L 392.726562 228.96875 L 398.640625 229.003906 L 398.65625 226.335938 L 392.742188 226.300781 M 380.914062 226.230469 L 380.898438 228.898438 L 386.8125 228.933594 L 386.828125 226.261719 L 380.914062 226.230469 M 369.085938 226.15625 L 369.070312 228.828125 L 374.984375 228.863281 L 375 226.195312 L 369.085938 226.15625 M 357.257812 226.089844 L 357.242188 228.757812 L 363.15625 228.792969 L 363.171875 226.125 L 357.257812 226.089844 M 345.429688 226.015625 L 345.414062 228.6875 L 351.328125 228.722656 L 351.34375 226.054688 L 345.429688 226.015625 M 288.414062 251.484375 L 288.597656 229.835938 C 288.632812 225.316406 292.308594 221.683594 296.816406 221.683594 C 296.835938 221.683594 296.863281 221.683594 296.882812 221.683594 L 307.15625 221.765625 L 314.265625 221.824219 L 288.414062 251.484375 "/>
<path style=" stroke:none;fill-rule:nonzero;fill:rgb(96.862745%,99.215686%,99.607843%);fill-opacity:1;" d="M 286.386719 492.546875 L 270.199219 492.449219 C 265.597656 492.421875 261.320312 491.246094 257.75 489.234375 C 254.179688 487.222656 251.3125 484.367188 249.578125 480.96875 C 248.421875 478.703125 247.777344 476.195312 247.777344 473.570312 L 247.78125 473.46875 L 247.777344 473.472656 L 248.085938 421.996094 C 248.101562 419.371094 248.761719 416.867188 249.925781 414.613281 C 251.09375 412.359375 252.761719 410.347656 254.804688 408.671875 C 258.886719 405.320312 264.449219 403.289062 270.566406 403.289062 C 270.617188 403.289062 270.675781 403.289062 270.734375 403.289062 L 270.730469 403.289062 L 287.136719 403.386719 L 287.113281 406.054688 L 270.714844 405.957031 L 270.566406 405.957031 C 270.566406 405.957031 270.5625 405.957031 270.5625 405.957031 C 266.421875 405.957031 262.589844 406.992188 259.425781 408.75 C 256.257812 410.507812 253.773438 412.980469 252.296875 415.839844 C 251.3125 417.746094 250.769531 419.824219 250.753906 422.011719 L 250.449219 473.480469 L 250.449219 473.570312 C 250.449219 475.757812 250.980469 477.839844 251.957031 479.757812 C 252.933594 481.671875 254.355469 483.421875 256.136719 484.902344 C 259.695312 487.863281 264.675781 489.75 270.214844 489.78125 L 286.410156 489.878906 L 286.386719 492.546875 "/>
<path style=" stroke:none;fill-rule:nonzero;fill:rgb(89.411765%,97.647059%,98.039216%);fill-opacity:1;" d="M 355.519531 492.957031 L 355.355469 492.957031 L 286.386719 492.546875 L 286.410156 489.878906 L 355.371094 490.289062 L 355.367188 490.289062 L 355.519531 490.289062 C 359.660156 490.289062 363.496094 489.25 366.660156 487.496094 C 369.824219 485.738281 372.308594 483.261719 373.785156 480.40625 C 374.773438 478.496094 375.316406 476.421875 375.328125 474.234375 L 375.371094 467.382812 L 400.246094 467.949219 L 375.546875 437.683594 L 375.636719 422.753906 L 375.636719 422.761719 L 375.636719 422.675781 C 375.636719 420.488281 375.101562 418.402344 374.125 416.488281 C 373.148438 414.570312 371.726562 412.824219 369.945312 411.34375 C 366.386719 408.378906 361.40625 406.496094 355.867188 406.464844 L 287.113281 406.054688 L 287.136719 403.386719 L 355.886719 403.796875 C 360.484375 403.824219 364.765625 405 368.335938 407.011719 C 371.902344 409.023438 374.769531 411.875 376.503906 415.273438 C 377.660156 417.539062 378.304688 420.050781 378.304688 422.675781 L 378.304688 422.769531 L 378.222656 436.742188 L 404.144531 468.503906 L 403.113281 469.347656 L 403.144531 468.015625 L 403.113281 469.347656 L 404.144531 468.503906 L 405.976562 470.75 L 378.023438 470.113281 L 377.996094 474.25 C 377.984375 476.875 377.324219 479.375 376.15625 481.632812 C 374.988281 483.886719 373.320312 485.894531 371.277344 487.574219 C 367.195312 490.921875 361.632812 492.957031 355.519531 492.957031 "/>
<path style=" stroke:none;fill-rule:nonzero;fill:rgb(89.411765%,97.647059%,98.039216%);fill-opacity:1;" d="M 347.09375 449.441406 L 341.179688 449.40625 L 341.195312 446.738281 L 347.109375 446.773438 L 347.09375 449.441406 M 335.265625 449.371094 L 329.351562 449.335938 L 329.367188 446.667969 L 335.28125 446.703125 L 335.265625 449.371094 M 323.4375 449.300781 L 317.523438 449.265625 L 317.539062 446.597656 L 323.457031 446.628906 L 323.4375 449.300781 M 311.613281 449.230469 L 305.699219 449.195312 L 305.714844 446.523438 L 311.628906 446.5625 L 311.613281 449.230469 M 299.785156 449.160156 L 293.871094 449.125 L 293.886719 446.457031 L 299.800781 446.488281 L 299.785156 449.160156 "/>
<path style=" stroke:none;fill-rule:nonzero;fill:rgb(96.862745%,99.215686%,99.607843%);fill-opacity:1;" d="M 286.753906 449.082031 L 282.042969 449.054688 L 282.058594 446.382812 L 286.777344 446.414062 L 286.753906 449.082031 "/>
<path style=" stroke:none;fill-rule:nonzero;fill:rgb(89.411765%,97.647059%,98.039216%);fill-opacity:1;" d="M 287.957031 449.089844 L 286.753906 449.082031 L 286.777344 446.414062 L 287.972656 446.421875 L 287.957031 449.089844 "/>
<path style=" stroke:none;fill-rule:nonzero;fill:rgb(96.862745%,99.215686%,99.607843%);fill-opacity:1;" d="M 276.128906 449.019531 L 274.535156 449.007812 L 274.550781 446.339844 L 276.144531 446.347656 L 276.128906 449.019531 "/>
<path style=" stroke:none;fill-rule:nonzero;fill:rgb(96.862745%,99.215686%,99.607843%);fill-opacity:1;" d="M 288.398438 253.328125 L 286.871094 253.253906 L 288.414062 251.484375 L 288.398438 253.328125 M 444.675781 222.871094 L 442.007812 222.851562 L 442.09375 208.1875 L 442.09375 208.105469 C 442.09375 205.921875 441.5625 203.839844 440.589844 201.929688 C 439.613281 200.015625 438.191406 198.273438 436.414062 196.792969 C 432.863281 193.835938 427.890625 191.953125 422.363281 191.921875 L 337.347656 191.417969 L 337.199219 191.417969 C 333.066406 191.417969 329.238281 192.449219 326.078125 194.207031 C 322.917969 195.960938 320.4375 198.429688 318.964844 201.28125 C 317.980469 203.1875 317.4375 205.257812 317.425781 207.441406 L 317.339844 221.835938 L 314.277344 221.808594 L 314.671875 221.359375 L 314.757812 207.425781 C 314.769531 204.808594 315.429688 202.308594 316.59375 200.054688 C 317.757812 197.804688 319.425781 195.796875 321.464844 194.125 C 325.539062 190.777344 331.09375 188.75 337.199219 188.75 L 337.363281 188.75 L 422.378906 189.253906 C 426.972656 189.28125 431.246094 190.457031 434.808594 192.464844 C 438.371094 194.472656 441.234375 197.320312 442.964844 200.714844 C 444.117188 202.976562 444.761719 205.484375 444.761719 208.105469 L 444.761719 208.203125 L 444.675781 222.871094 "/>
<path style=" stroke:none;fill-rule:nonzero;fill:rgb(85.490196%,96.078431%,96.862745%);fill-opacity:1;" d="M 444.675781 222.886719 L 442.007812 222.863281 L 442.007812 222.851562 L 444.675781 222.871094 L 444.675781 222.886719 M 317.339844 221.851562 L 314.265625 221.824219 L 314.277344 221.808594 L 317.339844 221.835938 L 317.339844 221.851562 "/>
<path style=" stroke:none;fill-rule:nonzero;fill:rgb(89.411765%,97.647059%,98.039216%);fill-opacity:1;" d="M 422.011719 278.273438 L 421.847656 278.273438 L 336.835938 277.765625 C 332.242188 277.738281 327.96875 276.566406 324.402344 274.558594 C 320.839844 272.546875 317.976562 269.699219 316.246094 266.304688 C 315.09375 264.042969 314.449219 261.539062 314.449219 258.917969 L 314.449219 258.816406 L 314.449219 258.820312 L 314.472656 254.613281 L 289.621094 253.386719 L 288.398438 253.328125 L 288.414062 251.484375 L 314.265625 221.824219 L 317.339844 221.851562 L 317.335938 222.367188 L 292.5 250.859375 L 317.160156 252.074219 L 317.117188 258.835938 L 317.117188 258.917969 C 317.117188 261.101562 317.648438 263.179688 318.625 265.09375 C 319.597656 267.003906 321.019531 268.75 322.796875 270.226562 C 326.347656 273.1875 331.320312 275.066406 336.851562 275.097656 L 421.863281 275.605469 L 422.011719 275.605469 C 422.015625 275.605469 422.015625 275.605469 422.015625 275.605469 C 426.148438 275.605469 429.976562 274.570312 433.132812 272.816406 C 436.292969 271.0625 438.773438 268.59375 440.25 265.738281 C 441.230469 263.835938 441.773438 261.761719 441.789062 259.578125 L 442.007812 222.863281 L 444.675781 222.886719 L 444.457031 259.59375 C 444.441406 262.214844 443.785156 264.714844 442.617188 266.964844 C 441.453125 269.21875 439.785156 271.222656 437.75 272.898438 C 433.671875 276.242188 428.117188 278.273438 422.011719 278.273438 "/>
<path style=" stroke:none;fill-rule:nonzero;fill:rgb(89.411765%,97.647059%,98.039216%);fill-opacity:1;" d="M 410.46875 229.074219 L 404.554688 229.039062 L 404.570312 226.371094 L 410.484375 226.40625 L 410.46875 229.074219 M 398.640625 229.003906 L 392.726562 228.96875 L 392.742188 226.300781 L 398.65625 226.335938 L 398.640625 229.003906 M 386.8125 228.933594 L 380.898438 228.898438 L 380.914062 226.230469 L 386.828125 226.261719 L 386.8125 228.933594 M 374.984375 228.863281 L 369.070312 228.828125 L 369.085938 226.15625 L 375 226.195312 L 374.984375 228.863281 M 363.15625 228.792969 L 357.242188 228.757812 L 357.257812 226.089844 L 363.171875 226.125 L 363.15625 228.792969 M 351.328125 228.722656 L 345.414062 228.6875 L 345.429688 226.015625 L 351.34375 226.054688 L 351.328125 228.722656 "/>
<path style=" stroke:none;fill-rule:nonzero;fill:rgb(89.411765%,97.647059%,98.039216%);fill-opacity:1;" d="M 397.949219 250.171875 L 392.039062 250.136719 L 392.054688 247.46875 L 397.96875 247.503906 L 397.949219 250.171875 M 386.125 250.101562 L 380.210938 250.066406 L 380.226562 247.398438 L 386.140625 247.433594 L 386.125 250.101562 M 374.296875 250.03125 L 368.382812 249.996094 L 368.398438 247.328125 L 374.3125 247.363281 L 374.296875 250.03125 M 362.46875 249.960938 L 356.554688 249.925781 L 356.570312 247.257812 L 362.484375 247.292969 L 362.46875 249.960938 M 350.640625 249.890625 L 344.726562 249.855469 L 344.742188 247.1875 L 350.65625 247.222656 L 350.640625 249.890625 "/>
<path style=" stroke:none;fill-rule:nonzero;fill:rgb(81.176471%,95.294118%,96.470588%);fill-opacity:1;" d="M 433.335938 372.835938 C 433.308594 372.835938 433.28125 372.835938 433.253906 372.835938 L 324.851562 371.925781 C 319.585938 371.878906 315.351562 367.574219 315.394531 362.304688 L 315.746094 320.347656 C 315.789062 315.105469 320.054688 310.886719 325.28125 310.886719 C 325.308594 310.886719 325.335938 310.886719 325.363281 310.886719 L 433.769531 311.800781 C 439.035156 311.84375 443.269531 316.152344 443.226562 321.417969 L 442.875 363.378906 C 442.828125 368.617188 438.566406 372.835938 433.335938 372.835938 "/>
<path style=" stroke:none;fill-rule:nonzero;fill:rgb(57.254902%,100%,86.666667%);fill-opacity:1;" d="M 388.171875 580.546875 L 366.535156 580.402344 C 364.65625 580.390625 363.140625 578.855469 363.152344 576.976562 L 363.167969 574.832031 C 363.179688 572.953125 364.714844 571.4375 366.59375 571.453125 L 388.230469 571.597656 C 390.109375 571.609375 391.625 573.144531 391.613281 575.023438 L 391.597656 577.167969 C 391.585938 579.046875 390.050781 580.558594 388.171875 580.546875 "/>
<path style=" stroke:none;fill-rule:nonzero;fill:rgb(0%,26.27451%,50.588235%);fill-opacity:1;" d="M 221.988281 514.851562 L 155.574219 523 C 155.574219 523 245.476562 581.015625 264.007812 581.015625 C 284.484375 581.015625 351.691406 548.457031 351.691406 548.457031 L 297.875 513.707031 L 221.988281 514.851562 "/>
<path style=" stroke:none;fill-rule:nonzero;fill:rgb(0%,81.568627%,73.72549%);fill-opacity:1;" d="M 294.5 462.65625 L 325.378906 507.242188 C 325.378906 507.242188 319.039062 517.90625 318.6875 520.515625 C 316.214844 538.742188 327.167969 541.257812 332.863281 538.917969 C 342.765625 534.847656 358.003906 509.789062 356.332031 505.394531 C 345.382812 476.589844 334.636719 449.199219 321.960938 421.921875 C 320.019531 417.746094 316.414062 407.53125 313.742188 410.222656 C 307.273438 416.757812 294.460938 473.207031 294.5 462.65625 "/>
<path style=" stroke:none;fill-rule:nonzero;fill:rgb(0%,81.568627%,73.72549%);fill-opacity:1;" d="M 237.707031 461.375 L 202.554688 496.890625 C 202.554688 496.890625 209.261719 506.175781 206.292969 516.523438 C 205.613281 518.894531 199.925781 526.261719 193.355469 526.765625 C 182.339844 527.609375 166.457031 508.394531 169.332031 494.511719 C 175.5625 464.425781 197.382812 444.546875 209.519531 417.039062 C 212.238281 410.875 218.207031 402.933594 220.566406 405.136719 C 227.300781 411.417969 237.746094 471.921875 237.707031 461.375 "/>
<path style=" stroke:none;fill-rule:nonzero;fill:rgb(0%,26.27451%,50.588235%);fill-opacity:1;" d="M 138.589844 542.859375 L 137.402344 561.144531 C 137.402344 561.144531 171.835938 585.078125 188.527344 591.773438 C 195.027344 594.378906 249.847656 601.671875 249.847656 601.671875 L 255.1875 579.875 L 138.589844 542.859375 "/>
<path style=" stroke:none;fill-rule:nonzero;fill:rgb(100%,81.568627%,80.784314%);fill-opacity:1;" d="M 258.523438 573.972656 L 319.035156 591.269531 L 318.800781 611.289062 C 318.800781 611.289062 290.640625 610.117188 282.132812 609.320312 C 276.722656 608.816406 251.277344 604.925781 251.277344 604.925781 L 258.523438 573.972656 "/>
<path style=" stroke:none;fill-rule:nonzero;fill:rgb(100%,81.568627%,80.784314%);fill-opacity:1;" d="M 260.273438 575.222656 L 212.140625 593.195312 L 214.167969 611.398438 C 214.167969 611.398438 237.195312 609.292969 244.113281 608.253906 C 248.511719 607.59375 269.0625 603.113281 269.0625 603.113281 L 260.273438 575.222656 "/>
<path style=" stroke:none;fill-rule:nonzero;fill:rgb(0%,22.352941%,46.666667%);fill-opacity:1;" d="M 302.207031 589.929688 C 302.207031 589.929688 315.550781 590.828125 321.957031 589.167969 C 325.367188 588.285156 332.058594 584.207031 335.175781 584.375 C 343.191406 584.800781 348.6875 598.660156 349.464844 603.425781 C 350.042969 606.964844 343.734375 612.753906 340.03125 612.648438 C 322.691406 612.152344 302.347656 610.867188 302.347656 610.867188 L 303.785156 606.234375 C 304.632812 603.511719 304.734375 600.625 304.078125 597.851562 L 302.207031 589.929688 "/>
<path style=" stroke:none;fill-rule:nonzero;fill:rgb(0%,22.352941%,46.666667%);fill-opacity:1;" d="M 192.984375 614.164062 C 194.578125 614.855469 199.074219 614.90625 200.78125 614.539062 C 206.644531 613.273438 222.859375 610.714844 222.859375 610.714844 C 217.882812 607.527344 215.46875 601.699219 216.785156 596.074219 L 217.902344 591.3125 L 206.863281 586.96875 C 206.863281 586.96875 197.683594 589.996094 193.910156 595.910156 C 186.136719 608.085938 189.414062 612.617188 192.984375 614.164062 "/>
<path style=" stroke:none;fill-rule:nonzero;fill:rgb(100%,78.039216%,76.862745%);fill-opacity:1;" d="M 276.675781 361.660156 L 255.273438 370.234375 C 254.636719 370.230469 253.054688 382.476562 253.046875 383.085938 L 252.160156 404.117188 C 252.097656 410.910156 258.445312 416.324219 265.480469 416.386719 C 272.519531 416.445312 279.257812 411.125 279.320312 404.332031 L 277.816406 362.78125 C 277.820312 362.167969 277.3125 361.667969 276.675781 361.660156 "/>
<path style=" stroke:none;fill-rule:nonzero;fill:rgb(20.392157%,91.764706%,74.509804%);fill-opacity:1;" d="M 215.96875 409.1875 C 219.4375 403.285156 249.4375 395.382812 249.4375 395.382812 L 265.628906 412.339844 L 288.859375 395.929688 C 288.859375 395.929688 311.773438 404.703125 316.582031 413.105469 C 320.765625 420.414062 316.910156 453.992188 313.132812 478.015625 C 308.914062 504.871094 309.449219 523.140625 308.476562 524.601562 C 305.824219 528.582031 298.605469 529.875 293.964844 530.84375 C 280.625 533.632812 220.09375 535.207031 217.515625 520.441406 C 215.566406 509.289062 218.199219 483.796875 216.726562 461.382812 C 216.058594 451.246094 212.714844 414.726562 215.96875 409.1875 "/>
<path style=" stroke:none;fill-rule:nonzero;fill:rgb(0%,81.568627%,73.72549%);fill-opacity:1;" d="M 265.503906 412.238281 L 271.886719 424.359375 C 281.085938 416.355469 300.96875 399.097656 300.96875 399.097656 L 287.207031 390.238281 L 265.503906 412.238281 "/>
<path style=" stroke:none;fill-rule:nonzero;fill:rgb(0%,81.568627%,73.72549%);fill-opacity:1;" d="M 265.691406 412.183594 L 258.90625 424.304688 C 249.707031 416.300781 238.632812 398.007812 238.632812 398.007812 L 249.84375 391.242188 L 265.691406 412.183594 "/>
<path style=" stroke:none;fill-rule:nonzero;fill:rgb(0%,39.215686%,62.352941%);fill-opacity:1;" d="M 291.96875 391.351562 C 303.207031 428.734375 284.574219 457.773438 284.574219 457.773438 L 266.921875 459.308594 C 266.921875 459.308594 281.578125 427.292969 279.132812 397.445312 C 279.050781 396.4375 278.839844 392.167969 279.054688 391.226562 C 280.667969 384.109375 283.289062 377.808594 286.933594 381.960938 C 287.804688 382.949219 291.339844 389.269531 291.96875 391.351562 "/>
<path style=" stroke:none;fill-rule:nonzero;fill:rgb(0%,39.215686%,62.352941%);fill-opacity:1;" d="M 291.167969 331.429688 C 300.425781 340.914062 302.867188 362.542969 294.03125 371.941406 C 286.390625 380.066406 257.226562 380.980469 254.828125 380.632812 C 229.398438 376.964844 232.367188 351.398438 237.984375 341.078125 C 247.433594 323.730469 273.886719 313.734375 291.167969 331.429688 "/>
<path style=" stroke:none;fill-rule:nonzero;fill:rgb(100%,78.039216%,76.862745%);fill-opacity:1;" d="M 286.140625 371.285156 C 285.996094 368.152344 288.484375 365.503906 291.695312 365.363281 C 294.90625 365.226562 297.628906 367.65625 297.769531 370.789062 C 297.914062 373.917969 295.425781 376.570312 292.214844 376.707031 C 289.003906 376.84375 286.285156 374.417969 286.140625 371.285156 "/>
<path style=" stroke:none;fill-rule:nonzero;fill:rgb(100%,78.039216%,76.862745%);fill-opacity:1;" d="M 245.441406 371.035156 C 245.441406 374.171875 242.835938 376.714844 239.621094 376.714844 C 236.40625 376.714844 233.800781 374.171875 233.800781 371.035156 C 233.800781 367.902344 236.40625 365.359375 239.621094 365.359375 C 242.835938 365.359375 245.441406 367.902344 245.441406 371.035156 "/>
<path style=" stroke:none;fill-rule:nonzero;fill:rgb(100%,81.568627%,80.784314%);fill-opacity:1;" d="M 291.375 371.285156 C 291.375 390 277.933594 404.167969 266.242188 404.167969 C 253.898438 404.167969 241.265625 390 241.265625 371.285156 C 241.265625 352.574219 252.484375 337.402344 266.320312 337.402344 C 280.15625 337.402344 291.375 352.574219 291.375 371.285156 "/>
<path style=" stroke:none;fill-rule:nonzero;fill:rgb(0%,39.215686%,62.352941%);fill-opacity:1;" d="M 279.320312 338.449219 C 295.910156 345.136719 296.855469 363.132812 295.898438 367.347656 C 295.023438 371.195312 292.324219 373.867188 291.292969 373.78125 C 279.613281 372.847656 251.101562 356.613281 251.101562 356.613281 C 251.101562 356.613281 235.171875 368.179688 246.492188 410.984375 C 246.492188 410.984375 237.125 395.152344 236.644531 373.382812 C 236.039062 345.828125 255.246094 328.75 279.320312 338.449219 "/>
<path style=" stroke:none;fill-rule:nonzero;fill:rgb(100%,81.568627%,80.784314%);fill-opacity:1;" d="M 289.78125 520.054688 C 289.976562 519.921875 294.382812 516.464844 297.578125 516.441406 C 303.964844 516.394531 310.527344 521.136719 317.105469 519.375 C 319.304688 518.785156 323.011719 519.15625 325.078125 520.097656 L 329.351562 522.046875 C 332.664062 523.558594 333.75 527.660156 331.5 530.449219 C 329.179688 533.328125 325.914062 536.210938 322.121094 536.242188 C 318.265625 536.277344 312.933594 533.699219 309.078125 533.65625 C 306.824219 533.628906 303.1875 536.9375 301.058594 537.65625 C 300.34375 537.898438 298.8125 538.4375 298.089844 538.226562 C 297.785156 538.140625 297.148438 537.417969 297.148438 537.417969 C 297.148438 537.417969 294.800781 539.019531 293.878906 539.128906 C 293.015625 539.234375 290.503906 538.296875 290.503906 538.296875 L 299.910156 527.667969 L 293.289062 530.8125 C 293.289062 530.8125 289.722656 534.007812 288.21875 534.414062 C 286.488281 534.878906 285.519531 533.5 285.519531 533.5 L 295.515625 521.878906 C 295.515625 521.878906 287.75 525.5625 285.292969 525.0625 C 284.199219 524.84375 282.671875 523.617188 282.671875 523.617188 L 289.78125 520.054688 "/>
<path style=" stroke:none;fill-rule:nonzero;fill:rgb(100%,81.568627%,80.784314%);fill-opacity:1;" d="M 223.949219 497.144531 C 223.710938 497.128906 218.101562 496.261719 215.324219 497.785156 C 209.769531 500.832031 206.542969 508.105469 199.933594 509.757812 C 197.726562 510.308594 194.707031 512.421875 193.40625 514.230469 L 190.714844 517.984375 C 188.628906 520.894531 189.8125 524.96875 193.207031 526.300781 C 196.703125 527.671875 201.023438 528.589844 204.324219 526.789062 C 207.683594 524.957031 210.964844 520.148438 214.28125 518.246094 C 216.222656 517.136719 221.078125 518.242188 223.296875 517.839844 C 224.039062 517.703125 225.644531 517.429688 226.164062 516.898438 C 226.382812 516.675781 226.558594 515.746094 226.558594 515.746094 C 226.558594 515.746094 229.421875 515.996094 230.277344 515.648438 C 231.078125 515.316406 232.769531 513.292969 232.769531 513.292969 L 219.121094 508.632812 L 226.480469 508.15625 C 226.480469 508.15625 231.222656 509.203125 232.738281 508.828125 C 234.476562 508.394531 234.605469 506.734375 234.605469 506.734375 L 219.929688 501.496094 C 219.929688 501.496094 228.558594 500.933594 230.429688 499.316406 C 231.261719 498.597656 231.949219 496.800781 231.949219 496.800781 L 223.949219 497.144531 "/>
<path style=" stroke:none;fill-rule:nonzero;fill:rgb(44.313725%,91.764706%,92.54902%);fill-opacity:1;" d="M 209.691406 484.5625 L 320.753906 487.566406 C 322.882812 487.625 324.464844 489.289062 324.128906 491.105469 L 312.449219 554.121094 L 206.003906 549.859375 L 206.050781 487.613281 C 206.054688 485.886719 207.703125 484.507812 209.691406 484.5625 "/>
<path style=" stroke:none;fill-rule:nonzero;fill:rgb(0%,39.215686%,62.352941%);fill-opacity:1;" d="M 130.667969 538.761719 C 128.558594 544.566406 132.164062 558.253906 136.570312 562.695312 C 147.335938 573.558594 192.738281 588.679688 192.738281 588.679688 L 270.859375 611.523438 L 284.703125 587.8125 L 183.769531 530.328125 C 183.769531 530.328125 161.800781 520.519531 154.035156 521.210938 C 146.664062 521.867188 133.121094 532.019531 130.667969 538.761719 "/>
<path style=" stroke:none;fill-rule:nonzero;fill:rgb(0%,39.215686%,62.352941%);fill-opacity:1;" d="M 255.222656 583.121094 C 255.222656 583.121094 320.101562 547.628906 351.347656 527.5 C 358.597656 522.828125 380.214844 528.886719 385.121094 535.84375 C 389.621094 542.21875 386.136719 560.4375 381.148438 566.46875 C 364.457031 586.664062 271.542969 598.441406 271.542969 598.441406 L 255.222656 583.121094 "/>
<path style=" stroke:none;fill-rule:nonzero;fill:rgb(74.117647%,100%,84.705882%);fill-opacity:1;" d="M 268.210938 507.414062 C 268.210938 509.367188 266.382812 510.261719 264.128906 510.261719 C 261.875 510.261719 260.046875 509.367188 260.046875 507.414062 C 260.046875 505.464844 261.875 504.496094 264.128906 504.496094 C 266.382812 504.496094 268.210938 505.464844 268.210938 507.414062 "/>
<path style=" stroke:none;fill-rule:nonzero;fill:rgb(86.27451%,96.078431%,97.647059%);fill-opacity:1;" d="M 208.496094 78.472656 C 208.613281 78.347656 208.769531 78.28125 208.929688 78.28125 C 209.074219 78.28125 209.222656 78.335938 209.335938 78.441406 C 209.574219 78.664062 209.589844 79.042969 209.367188 79.28125 C 209.144531 79.519531 208.765625 79.535156 208.527344 79.3125 C 208.285156 79.089844 208.273438 78.710938 208.496094 78.472656 Z M 209.554688 83.960938 C 208.4375 85.617188 208.457031 87.773438 209.589844 89.398438 L 208.542969 90.523438 L 197.339844 80.109375 L 198.382812 78.988281 C 200.128906 80.144531 202.394531 80.050781 204.027344 78.765625 L 206.285156 76.992188 C 205.351562 78.304688 205.496094 80.140625 206.707031 81.265625 C 207.335938 81.847656 208.132812 82.136719 208.929688 82.136719 C 209.804688 82.136719 210.679688 81.789062 211.320312 81.097656 C 212.542969 79.78125 212.46875 77.710938 211.152344 76.488281 C 210.203125 75.601562 208.863281 75.40625 207.730469 75.855469 L 209.699219 74.304688 C 209.964844 74.097656 210.238281 73.898438 210.515625 73.707031 L 214.15625 77.09375 C 213.984375 77.386719 213.804688 77.675781 213.613281 77.960938 Z M 216.195312 71.261719 C 216.015625 72.179688 215.6875 73.46875 215.367188 74.570312 L 212.945312 72.320312 C 214.039062 71.914062 215.292969 71.503906 216.195312 71.261719 Z M 218.488281 68.800781 C 217.980469 68.328125 217.386719 67.824219 211.992188 69.828125 L 211.90625 69.863281 C 210.535156 70.488281 209.238281 71.277344 208.050781 72.207031 L 202.378906 76.667969 C 201.648438 77.242188 200.640625 77.285156 199.867188 76.773438 L 199.652344 76.628906 C 198.675781 75.984375 197.390625 76.136719 196.59375 76.992188 L 194.476562 79.269531 C 193.976562 79.808594 194.007812 80.652344 194.546875 81.15625 L 197.789062 84.167969 C 197.558594 84.234375 197.339844 84.355469 197.164062 84.542969 L 193.882812 88.074219 C 193.378906 88.613281 193.410156 89.457031 193.949219 89.960938 C 194.207031 90.199219 194.53125 90.316406 194.859375 90.316406 C 195.214844 90.316406 195.574219 90.171875 195.835938 89.890625 L 199.117188 86.363281 C 199.292969 86.171875 199.398438 85.945312 199.445312 85.710938 L 200.277344 86.480469 C 200.042969 86.546875 199.828125 86.667969 199.652344 86.855469 L 193.359375 93.621094 C 192.859375 94.160156 192.890625 95.003906 193.429688 95.507812 C 193.6875 95.746094 194.011719 95.863281 194.339844 95.863281 C 194.695312 95.863281 195.054688 95.722656 195.316406 95.4375 L 201.605469 88.671875 C 201.78125 88.484375 201.886719 88.257812 201.933594 88.023438 L 202.804688 88.832031 C 202.570312 88.894531 202.355469 89.019531 202.179688 89.207031 L 198.894531 92.734375 C 198.394531 93.277344 198.425781 94.121094 198.964844 94.621094 C 199.222656 94.859375 199.546875 94.980469 199.875 94.980469 C 200.230469 94.980469 200.585938 94.835938 200.851562 94.554688 L 204.132812 91.023438 C 204.308594 90.835938 204.414062 90.609375 204.460938 90.375 L 207.703125 93.386719 C 207.949219 93.617188 208.277344 93.746094 208.613281 93.746094 L 208.660156 93.746094 C 209.015625 93.730469 209.347656 93.578125 209.589844 93.320312 L 211.707031 91.042969 C 212.503906 90.1875 212.5625 88.894531 211.847656 87.964844 C 211.277344 87.234375 211.246094 86.222656 211.765625 85.453125 L 215.828125 79.453125 C 216.675781 78.1875 217.367188 76.84375 217.882812 75.457031 L 217.910156 75.371094 C 219.554688 69.792969 218.988281 69.265625 218.488281 68.800781 "/>
<path style=" stroke:none;fill-rule:nonzero;fill:rgb(86.27451%,96.078431%,97.647059%);fill-opacity:1;" d="M 117.542969 246.101562 C 117.300781 246.101562 117.054688 246.035156 116.835938 245.894531 L 110.488281 241.921875 C 109.863281 241.53125 109.671875 240.707031 110.066406 240.082031 C 110.457031 239.457031 111.277344 239.269531 111.902344 239.660156 L 118.253906 243.632812 C 118.878906 244.023438 119.066406 244.847656 118.675781 245.472656 C 118.421875 245.878906 117.988281 246.101562 117.542969 246.101562 "/>
<path style=" stroke:none;fill-rule:nonzero;fill:rgb(86.27451%,96.078431%,97.647059%);fill-opacity:1;" d="M 93.105469 246.101562 C 92.652344 246.101562 92.210938 245.871094 91.960938 245.453125 C 91.578125 244.824219 91.78125 244.003906 92.414062 243.621094 L 99 239.648438 C 99.628906 239.269531 100.449219 239.472656 100.832031 240.101562 C 101.210938 240.734375 101.007812 241.554688 100.378906 241.933594 L 93.792969 245.90625 C 93.578125 246.039062 93.339844 246.101562 93.105469 246.101562 "/>
<path style=" stroke:none;fill-rule:nonzero;fill:rgb(86.27451%,96.078431%,97.647059%);fill-opacity:1;" d="M 105.40625 238.867188 C 104.917969 238.867188 104.433594 238.714844 104.015625 238.410156 L 92.308594 229.757812 C 91.71875 229.320312 91.59375 228.484375 92.03125 227.894531 C 92.46875 227.300781 93.304688 227.175781 93.894531 227.613281 L 105.40625 236.117188 L 116.914062 227.613281 C 117.507812 227.175781 118.34375 227.300781 118.78125 227.894531 C 119.21875 228.484375 119.09375 229.320312 118.5 229.757812 L 106.792969 238.410156 C 106.378906 238.714844 105.890625 238.867188 105.40625 238.867188 "/>
<path style=" stroke:none;fill-rule:nonzero;fill:rgb(86.27451%,96.078431%,97.647059%);fill-opacity:1;" d="M 94.4375 244.011719 L 116.371094 244.011719 L 116.371094 230.019531 L 94.4375 230.019531 Z M 117.707031 246.679688 L 93.101562 246.679688 C 92.367188 246.679688 91.769531 246.082031 91.769531 245.347656 L 91.769531 228.6875 C 91.769531 227.949219 92.367188 227.351562 93.101562 227.351562 L 117.707031 227.351562 C 118.445312 227.351562 119.039062 227.949219 119.039062 228.6875 L 119.039062 245.347656 C 119.039062 246.082031 118.445312 246.679688 117.707031 246.679688 "/>
<path style=" stroke:none;fill-rule:nonzero;fill:rgb(86.27451%,96.078431%,97.647059%);fill-opacity:1;" d="M 534.511719 129.679688 C 534.148438 129.910156 533.917969 130.300781 533.894531 130.730469 C 533.867188 131.21875 533.78125 131.703125 533.644531 132.175781 C 533.519531 132.589844 533.605469 133.035156 533.875 133.375 L 534.867188 134.640625 L 534.429688 135.332031 L 532.863281 134.980469 C 532.441406 134.882812 532 135 531.679688 135.285156 C 531.3125 135.609375 530.910156 135.894531 530.476562 136.132812 C 530.101562 136.339844 529.847656 136.714844 529.796875 137.140625 L 529.601562 138.738281 L 528.804688 138.917969 L 527.945312 137.558594 C 527.71875 137.195312 527.324219 136.964844 526.894531 136.941406 C 526.40625 136.910156 525.921875 136.828125 525.449219 136.691406 C 525.328125 136.652344 525.199219 136.636719 525.074219 136.636719 C 524.78125 136.636719 524.488281 136.734375 524.25 136.921875 L 522.988281 137.910156 L 522.292969 137.472656 L 522.648438 135.90625 C 522.742188 135.488281 522.628906 135.046875 522.34375 134.726562 C 522.015625 134.363281 521.730469 133.957031 521.492188 133.523438 C 521.285156 133.148438 520.910156 132.894531 520.484375 132.84375 L 518.890625 132.652344 L 518.710938 131.851562 L 520.066406 130.992188 C 520.429688 130.765625 520.660156 130.375 520.6875 129.945312 C 520.714844 129.453125 520.800781 128.964844 520.9375 128.492188 C 521.058594 128.082031 520.972656 127.636719 520.707031 127.296875 L 519.714844 126.03125 L 520.152344 125.339844 L 521.722656 125.691406 C 522.140625 125.785156 522.578125 125.675781 522.902344 125.386719 C 523.273438 125.058594 523.675781 124.773438 524.101562 124.542969 C 524.480469 124.335938 524.734375 123.957031 524.785156 123.53125 L 524.976562 121.9375 L 525.777344 121.757812 L 526.636719 123.113281 C 526.867188 123.476562 527.257812 123.707031 527.6875 123.734375 C 528.171875 123.761719 528.660156 123.84375 529.136719 123.984375 C 529.546875 124.105469 529.992188 124.019531 530.332031 123.753906 L 531.59375 122.761719 L 532.289062 123.199219 L 531.933594 124.765625 C 531.839844 125.183594 531.953125 125.625 532.238281 125.945312 C 532.566406 126.3125 532.851562 126.71875 533.085938 127.148438 C 533.292969 127.527344 533.671875 127.777344 534.097656 127.832031 L 535.691406 128.023438 L 535.871094 128.824219 Z M 538.085938 126.515625 C 537.960938 125.964844 537.503906 125.550781 536.945312 125.484375 L 535.0625 125.257812 C 534.941406 125.074219 534.8125 124.894531 534.679688 124.71875 L 535.097656 122.867188 C 535.222656 122.316406 534.988281 121.746094 534.511719 121.445312 L 532.226562 120 C 531.75 119.699219 531.132812 119.730469 530.6875 120.078125 L 529.195312 121.25 C 528.980469 121.203125 528.761719 121.167969 528.542969 121.136719 L 527.53125 119.535156 C 527.230469 119.058594 526.660156 118.824219 526.109375 118.945312 L 523.472656 119.539062 C 522.921875 119.664062 522.507812 120.121094 522.441406 120.683594 L 522.214844 122.5625 C 522.03125 122.683594 521.847656 122.8125 521.671875 122.945312 L 519.824219 122.527344 C 519.273438 122.40625 518.703125 122.640625 518.402344 123.117188 L 516.957031 125.402344 C 516.65625 125.878906 516.6875 126.496094 517.035156 126.9375 L 518.203125 128.429688 C 518.160156 128.648438 518.121094 128.867188 518.089844 129.085938 L 516.488281 130.097656 C 516.011719 130.398438 515.773438 130.96875 515.898438 131.519531 L 516.492188 134.15625 C 516.617188 134.707031 517.074219 135.121094 517.636719 135.1875 L 519.515625 135.414062 C 519.640625 135.601562 519.765625 135.78125 519.898438 135.957031 L 519.484375 137.804688 C 519.359375 138.355469 519.59375 138.925781 520.070312 139.226562 L 522.355469 140.671875 C 522.832031 140.972656 523.449219 140.941406 523.894531 140.59375 L 525.382812 139.421875 C 525.601562 139.46875 525.820312 139.507812 526.039062 139.535156 L 527.050781 141.136719 C 527.296875 141.53125 527.726562 141.757812 528.179688 141.757812 C 528.273438 141.757812 528.375 141.75 528.472656 141.726562 L 531.109375 141.132812 C 531.660156 141.007812 532.070312 140.550781 532.140625 139.992188 L 532.367188 138.109375 C 532.550781 137.988281 532.734375 137.859375 532.910156 137.726562 L 534.757812 138.144531 C 535.308594 138.269531 535.878906 138.03125 536.179688 137.554688 L 537.625 135.269531 C 537.925781 134.792969 537.894531 134.175781 537.546875 133.734375 L 536.375 132.242188 C 536.421875 132.027344 536.460938 131.808594 536.488281 131.589844 L 538.09375 130.574219 C 538.570312 130.273438 538.804688 129.707031 538.683594 129.152344 L 538.085938 126.515625 "/>
<path style=" stroke:none;fill-rule:nonzero;fill:rgb(86.27451%,96.078431%,97.647059%);fill-opacity:1;" d="M 528.582031 131.152344 C 528.363281 131.5 528.023438 131.738281 527.625 131.828125 C 527.226562 131.917969 526.816406 131.847656 526.472656 131.628906 C 526.128906 131.410156 525.890625 131.070312 525.800781 130.671875 C 525.710938 130.273438 525.78125 129.863281 526 129.519531 C 526.214844 129.175781 526.554688 128.933594 526.953125 128.84375 C 527.066406 128.820312 527.179688 128.808594 527.292969 128.808594 C 527.578125 128.808594 527.859375 128.886719 528.105469 129.042969 C 528.453125 129.261719 528.691406 129.601562 528.78125 130 C 528.871094 130.398438 528.800781 130.808594 528.582031 131.152344 Z M 529.535156 126.789062 C 528.585938 126.1875 527.460938 125.996094 526.367188 126.242188 C 525.273438 126.488281 524.339844 127.144531 523.742188 128.09375 C 523.144531 129.042969 522.949219 130.164062 523.195312 131.257812 C 523.441406 132.351562 524.101562 133.285156 525.046875 133.882812 C 525.726562 134.3125 526.496094 134.535156 527.28125 134.535156 C 527.589844 134.535156 527.902344 134.5 528.214844 134.429688 C 529.308594 134.183594 530.238281 133.527344 530.839844 132.578125 C 531.4375 131.632812 531.632812 130.507812 531.386719 129.414062 C 531.140625 128.320312 530.480469 127.386719 529.535156 126.789062 "/>
<path style=" stroke:none;fill-rule:nonzero;fill:rgb(86.27451%,96.078431%,97.647059%);fill-opacity:1;" d="M 544.730469 119.570312 L 544.328125 117.46875 C 544.222656 116.914062 543.777344 116.484375 543.21875 116.398438 L 541.863281 116.191406 C 541.8125 116.109375 541.761719 116.03125 541.707031 115.953125 L 542.054688 114.621094 C 542.195312 114.078125 541.980469 113.5 541.511719 113.179688 L 539.742188 111.976562 C 539.273438 111.660156 538.65625 111.671875 538.203125 112.003906 L 537.09375 112.816406 C 537 112.796875 536.90625 112.777344 536.8125 112.761719 L 536.117188 111.574219 C 535.832031 111.085938 535.273438 110.832031 534.71875 110.9375 L 532.613281 111.339844 C 532.058594 111.445312 531.632812 111.890625 531.546875 112.449219 L 531.335938 113.804688 C 531.253906 113.855469 531.175781 113.90625 531.097656 113.960938 L 529.769531 113.613281 C 529.222656 113.472656 528.644531 113.691406 528.328125 114.15625 L 527.125 115.929688 C 526.808594 116.394531 526.816406 117.011719 527.152344 117.464844 L 528.34375 119.09375 C 528.777344 119.691406 529.613281 119.820312 530.207031 119.382812 C 530.804688 118.949219 530.933594 118.113281 530.496094 117.519531 L 529.859375 116.648438 L 530.007812 116.433594 L 531.046875 116.707031 C 531.464844 116.8125 531.90625 116.71875 532.238281 116.441406 C 532.523438 116.203125 532.832031 116 533.15625 115.835938 C 533.542969 115.644531 533.808594 115.273438 533.875 114.847656 L 534.039062 113.785156 L 534.292969 113.738281 L 534.839844 114.664062 C 535.054688 115.035156 535.4375 115.28125 535.867188 115.320312 C 536.230469 115.351562 536.59375 115.425781 536.945312 115.542969 C 537.355469 115.675781 537.804688 115.605469 538.148438 115.351562 L 539.019531 114.714844 L 539.234375 114.859375 L 538.960938 115.902344 C 538.851562 116.316406 538.953125 116.761719 539.226562 117.09375 C 539.460938 117.375 539.664062 117.683594 539.832031 118.015625 C 540.027344 118.398438 540.394531 118.664062 540.820312 118.730469 L 541.882812 118.894531 L 541.929688 119.148438 L 541.003906 119.691406 C 540.632812 119.910156 540.386719 120.292969 540.347656 120.722656 C 540.316406 121.085938 540.242188 121.449219 540.125 121.796875 C 539.988281 122.207031 540.0625 122.65625 540.316406 123.003906 L 540.8125 123.679688 L 539.40625 123.289062 C 538.699219 123.09375 537.960938 123.507812 537.765625 124.21875 C 537.566406 124.929688 537.984375 125.664062 538.695312 125.863281 L 541.066406 126.519531 C 541.183594 126.554688 541.304688 126.570312 541.425781 126.570312 C 541.8125 126.570312 542.191406 126.398438 542.449219 126.089844 L 543.609375 124.699219 C 544.003906 124.226562 544.023438 123.550781 543.660156 123.054688 L 542.851562 121.949219 C 542.871094 121.855469 542.890625 121.761719 542.910156 121.667969 L 544.09375 120.972656 C 544.582031 120.6875 544.835938 120.125 544.730469 119.570312 "/>
<path style=" stroke:none;fill-rule:nonzero;fill:rgb(86.27451%,96.078431%,97.647059%);fill-opacity:1;" d="M 171.597656 313.449219 C 170.554688 313.449219 169.515625 313.847656 168.71875 314.640625 C 167.132812 316.226562 167.132812 318.8125 168.71875 320.398438 L 178.605469 330.285156 L 188.488281 320.398438 C 190.074219 318.8125 190.074219 316.226562 188.488281 314.640625 C 186.902344 313.054688 184.316406 313.054688 182.730469 314.640625 L 179.546875 317.824219 C 179.027344 318.34375 178.179688 318.34375 177.660156 317.824219 L 174.476562 314.640625 C 173.683594 313.847656 172.640625 313.449219 171.597656 313.449219 Z M 178.632812 333.476562 C 178.550781 333.449219 178.441406 333.46875 178.351562 333.449219 C 178.085938 333.40625 177.832031 333.289062 177.632812 333.085938 L 166.832031 322.285156 C 164.203125 319.660156 164.203125 315.382812 166.832031 312.753906 C 169.460938 310.125 173.738281 310.125 176.363281 312.753906 L 178.605469 314.992188 L 180.84375 312.753906 C 183.472656 310.125 187.746094 310.125 190.375 312.753906 C 193.003906 315.382812 193.003906 319.660156 190.375 322.285156 L 179.574219 333.085938 C 179.324219 333.335938 178.984375 333.476562 178.632812 333.476562 "/>
<path style=" stroke:none;fill-rule:nonzero;fill:rgb(86.27451%,96.078431%,97.647059%);fill-opacity:1;" d="M 98.585938 100.5 L 96.410156 98.949219 L 101.910156 91.230469 L 109.996094 96.679688 L 108.503906 98.890625 L 102.574219 94.894531 L 98.585938 100.5 "/>
<path style=" stroke:none;fill-rule:nonzero;fill:rgb(86.27451%,96.078431%,97.647059%);fill-opacity:1;" d="M 188.917969 192.398438 L 194.640625 193.21875 L 195.417969 187.765625 L 189.699219 186.945312 Z M 196.902344 196.238281 L 185.898438 194.660156 L 187.433594 183.925781 L 198.441406 185.5 L 196.902344 196.238281 "/>
<path style=" stroke:none;fill-rule:nonzero;fill:rgb(86.27451%,96.078431%,97.647059%);fill-opacity:1;" d="M 586.648438 214.554688 L 586.222656 211.921875 L 590.148438 211.285156 L 590.574219 213.917969 L 586.648438 214.554688 "/>
<path style=" stroke:none;fill-rule:nonzero;fill:rgb(86.27451%,96.078431%,97.647059%);fill-opacity:1;" d="M 590.570312 210.277344 L 589.945312 206.425781 L 592.582031 206 L 593.203125 209.851562 L 590.570312 210.277344 "/>
<path style=" stroke:none;fill-rule:nonzero;fill:rgb(86.27451%,96.078431%,97.647059%);fill-opacity:1;" d="M 594.863281 213.226562 L 594.4375 210.589844 L 598.152344 209.988281 L 598.578125 212.625 L 594.863281 213.226562 "/>
<path style=" stroke:none;fill-rule:nonzero;fill:rgb(86.27451%,96.078431%,97.647059%);fill-opacity:1;" d="M 591.933594 218.699219 L 591.273438 214.625 L 593.910156 214.199219 L 594.566406 218.273438 L 591.933594 218.699219 "/>
<path style=" stroke:none;fill-rule:nonzero;fill:rgb(86.27451%,96.078431%,97.647059%);fill-opacity:1;" d="M 371.417969 83.867188 C 370.8125 83.867188 370.21875 84.035156 369.691406 84.363281 C 368.949219 84.824219 368.429688 85.546875 368.234375 86.398438 C 367.824219 88.160156 368.921875 89.921875 370.679688 90.332031 C 372.441406 90.742188 374.203125 89.644531 374.613281 87.886719 C 375.023438 86.125 373.921875 84.363281 372.164062 83.953125 C 371.917969 83.894531 371.664062 83.867188 371.417969 83.867188 Z M 371.421875 93.085938 C 370.976562 93.085938 370.527344 93.035156 370.074219 92.933594 C 366.882812 92.1875 364.890625 88.988281 365.632812 85.796875 C 365.992188 84.25 366.933594 82.933594 368.28125 82.097656 C 369.628906 81.257812 371.222656 80.992188 372.769531 81.355469 C 375.960938 82.097656 377.953125 85.296875 377.210938 88.488281 C 376.574219 91.230469 374.125 93.085938 371.421875 93.085938 "/>
<path style=" stroke:none;fill-rule:nonzero;fill:rgb(86.27451%,96.078431%,97.647059%);fill-opacity:1;" d="M 81.375 477.03125 L 87.097656 477.851562 L 87.878906 472.398438 L 82.15625 471.578125 Z M 89.363281 480.871094 L 78.355469 479.292969 L 79.894531 468.558594 L 90.898438 470.132812 L 89.363281 480.871094 "/>
</g>
</svg>
